<?xml version='1.0' encoding='UTF-8' standalone='no'?>
<svg height="314pt" xmlns:xlink="http://www.w3.org/1999/xlink" viewBox="0 0 418 314" width="418pt" xmlns="http://www.w3.org/2000/svg">
 <title>Figure 1</title>
 <desc>
Creator: GL2PS 1.4.2, (C) 1999-2020 C. Geuzaine
For: Octave
CreationDate: Wed Mar 12 13:53:47 2025
</desc>
 <defs/>
 <polygon fill="#ffffff" points="0,0 418,0 418,314 0,314"/>
 <g>
  <polygon shape-rendering="crispEdges" fill="#ffffff" points="0,314 418,314 418,0 0,0"/>
  <clipPath id="cp00418314">
   <polygon points="0,314 418,314 418,0 0,0"/>
  </clipPath>
  <g clip-path="url(#cp00418314)">
   <polygon shape-rendering="crispEdges" fill="#ffffff" points="54.4343,279.499 378.946,279.499 378.946,23.5533 54.4343,23.5533"/>
   <polyline stroke-width="0.5" stroke-linejoin="miter" stroke-dasharray="16,0" stroke-linecap="butt" stroke="#262626" fill="none" stroke-opacity="0.15" points="54.4343,279.499 54.4343,23.5533"/>
   <polyline stroke-width="0.5" stroke-linejoin="miter" stroke-dasharray="16,0" stroke-linecap="butt" stroke="#262626" fill="none" stroke-opacity="0.15" points="135.562,279.499 135.562,23.5533"/>
   <polyline stroke-width="0.5" stroke-linejoin="miter" stroke-dasharray="16,0" stroke-linecap="butt" stroke="#262626" fill="none" stroke-opacity="0.15" points="216.69,279.499 216.69,23.5533"/>
   <polyline stroke-width="0.5" stroke-linejoin="miter" stroke-dasharray="16,0" stroke-linecap="butt" stroke="#262626" fill="none" stroke-opacity="0.15" points="297.818,279.499 297.818,23.5533"/>
   <polyline stroke-width="0.5" stroke-linejoin="miter" stroke-dasharray="16,0" stroke-linecap="butt" stroke="#262626" fill="none" stroke-opacity="0.15" points="378.946,279.499 378.946,23.5533"/>
   <polyline stroke-width="0.5" stroke-linejoin="miter" stroke-linecap="butt" stroke="#262626" fill="none" points="54.4343,279.499 54.4343,276.255"/>
   <polyline stroke-width="0.5" stroke-linejoin="miter" stroke-linecap="butt" stroke="#262626" fill="none" points="135.562,279.499 135.562,276.255"/>
   <polyline stroke-width="0.5" stroke-linejoin="miter" stroke-linecap="butt" stroke="#262626" fill="none" points="216.69,279.499 216.69,276.255"/>
   <polyline stroke-width="0.5" stroke-linejoin="miter" stroke-linecap="butt" stroke="#262626" fill="none" points="297.818,279.499 297.818,276.255"/>
   <polyline stroke-width="0.5" stroke-linejoin="miter" stroke-linecap="butt" stroke="#262626" fill="none" points="378.946,279.499 378.946,276.255"/>
   <g font-style="normal" font-size="10" xml:space="preserve" transform="translate(51.4343,294.998) rotate(-0,3,-8)" font-weight="normal" font-family="FreeSans">
    <text x="0 " y="-0" fill="rgb(38,38,38)">0</text>
   </g>
   <g font-style="normal" font-size="10" xml:space="preserve" transform="translate(123.562,294.998) rotate(-0,12,-8)" font-weight="normal" font-family="FreeSans">
    <text x="0 6 12 18 " y="-0" fill="rgb(38,38,38)">1000</text>
   </g>
   <g font-style="normal" font-size="10" xml:space="preserve" transform="translate(204.69,294.998) rotate(-0,12,-8)" font-weight="normal" font-family="FreeSans">
    <text x="0 6 12 18 " y="-0" fill="rgb(38,38,38)">2000</text>
   </g>
   <g font-style="normal" font-size="10" xml:space="preserve" transform="translate(285.818,294.998) rotate(-0,12,-8)" font-weight="normal" font-family="FreeSans">
    <text x="0 6 12 18 " y="-0" fill="rgb(38,38,38)">3000</text>
   </g>
   <g font-style="normal" font-size="10" xml:space="preserve" transform="translate(366.946,294.998) rotate(-0,12,-8)" font-weight="normal" font-family="FreeSans">
    <text x="0 6 12 18 " y="-0" fill="rgb(38,38,38)">4000</text>
   </g>
   <polyline stroke-width="0.5" stroke-linejoin="miter" stroke-dasharray="16,0" stroke-linecap="butt" stroke="#262626" fill="none" stroke-opacity="0.15" points="54.4343,279.499 378.946,279.499"/>
   <polyline stroke-width="0.5" stroke-linejoin="miter" stroke-dasharray="16,0" stroke-linecap="butt" stroke="#262626" fill="none" stroke-opacity="0.15" points="54.4343,215.513 378.946,215.513"/>
   <polyline stroke-width="0.5" stroke-linejoin="miter" stroke-dasharray="16,0" stroke-linecap="butt" stroke="#262626" fill="none" stroke-opacity="0.15" points="54.4343,151.526 378.946,151.526"/>
   <polyline stroke-width="0.5" stroke-linejoin="miter" stroke-dasharray="16,0" stroke-linecap="butt" stroke="#262626" fill="none" stroke-opacity="0.15" points="54.4343,87.5397 378.946,87.5397"/>
   <polyline stroke-width="0.5" stroke-linejoin="miter" stroke-dasharray="16,0" stroke-linecap="butt" stroke="#262626" fill="none" stroke-opacity="0.15" points="54.4343,23.5533 378.946,23.5533"/>
   <polyline stroke-width="0.5" stroke-linejoin="miter" stroke-linecap="butt" stroke="#262626" fill="none" points="54.4343,279.499 57.6745,279.499"/>
   <polyline stroke-width="0.5" stroke-linejoin="miter" stroke-linecap="butt" stroke="#262626" fill="none" points="54.4343,215.513 57.6745,215.513"/>
   <polyline stroke-width="0.5" stroke-linejoin="miter" stroke-linecap="butt" stroke="#262626" fill="none" points="54.4343,151.526 57.6745,151.526"/>
   <polyline stroke-width="0.5" stroke-linejoin="miter" stroke-linecap="butt" stroke="#262626" fill="none" points="54.4343,87.5397 57.6745,87.5397"/>
   <polyline stroke-width="0.5" stroke-linejoin="miter" stroke-linecap="butt" stroke="#262626" fill="none" points="54.4343,23.5533 57.6745,23.5533"/>
   <g font-style="normal" font-size="10" xml:space="preserve" transform="translate(43.4418,283.499) rotate(-0,6,-4)" font-weight="normal" font-family="FreeSans">
    <text x="0 " y="-0" fill="rgb(38,38,38)">0</text>
   </g>
   <g font-style="normal" font-size="10" xml:space="preserve" transform="translate(43.4418,219.513) rotate(-0,6,-4)" font-weight="normal" font-family="FreeSans">
    <text x="0 " y="-0" fill="rgb(38,38,38)">5</text>
   </g>
   <g font-style="normal" font-size="10" xml:space="preserve" transform="translate(37.4418,155.526) rotate(-0,12,-4)" font-weight="normal" font-family="FreeSans">
    <text x="0 6 " y="-0" fill="rgb(38,38,38)">10</text>
   </g>
   <g font-style="normal" font-size="10" xml:space="preserve" transform="translate(37.4418,91.5398) rotate(-0,12,-4)" font-weight="normal" font-family="FreeSans">
    <text x="0 6 " y="-0" fill="rgb(38,38,38)">15</text>
   </g>
   <g font-style="normal" font-size="10" xml:space="preserve" transform="translate(37.4418,27.5533) rotate(-0,12,-4)" font-weight="normal" font-family="FreeSans">
    <text x="0 6 " y="-0" fill="rgb(38,38,38)">20</text>
   </g>
   <polyline stroke-width="0.5" stroke-linejoin="miter" stroke-dasharray="16,0" stroke-linecap="square" stroke="#262626" fill="none" points="54.4343,279.499 378.946,279.499"/>
   <polyline stroke-width="0.5" stroke-linejoin="miter" stroke-dasharray="16,0" stroke-linecap="square" stroke="#262626" fill="none" points="54.4343,279.499 54.4343,23.5533"/>
   <g font-style="normal" font-size="11" xml:space="preserve" transform="translate(203.69,309.998) rotate(-0,13,-10)" font-weight="normal" font-family="FreeSans">
    <text x="0 3 9 15 21 " y="-1" fill="rgb(38,38,38)">Index</text>
   </g>
   <g font-style="normal" font-size="11" xml:space="preserve" transform="translate(18.9418,151.526) rotate(-90,13.5,0)" font-weight="normal" font-family="FreeSans">
    <text x="0 7 13 15 21 " y="-1" fill="rgb(38,38,38)">Value</text>
   </g>
   <g font-style="normal" font-size="11" xml:space="preserve" transform="translate(179.19,13.5533) rotate(-0,37.5,0)" font-weight="bold" font-family="FreeSans">
    <text x="0 7 13 20 26 33 37 40 47 53 56 63 69 " y="-1" fill="rgb(0,0,0)">Sensor Values</text>
   </g>
   <polyline stroke-width="0.5" stroke-linejoin="round" stroke-linecap="butt" stroke="#0071bc" fill="none" points="54.5154,190.046 54.5965,174.305 54.6777,269.773 54.7588,248.914 54.8399,276.3 54.9211,264.526 55.0022,271.693 55.0833,270.413 55.1644,257.232 55.2456,259.151 55.3267,259.023 55.4078,264.654 55.489,264.27 55.5701,259.407 55.6512,259.151 55.7323,257.488 55.8135,259.151 55.8946,259.407 55.9757,259.407 56.0568,259.151 56.138,264.91 56.2191,259.151 56.3002,259.151 56.3814,259.151 56.4625,257.616 56.5436,259.151 56.6247,259.151 56.7059,259.151 56.787,259.151 56.8681,257.616 56.9493,259.151 57.0304,259.407 57.1115,259.407 57.1926,259.151 57.2738,257.616 57.3549,259.151 57.436,259.151 57.5172,259.407 57.5983,259.023 57.6794,259.151 57.7605,259.407 57.8417,259.151 57.9228,259.151 58.0039,259.407 58.085,259.407 58.1662,259.151 58.2473,259.151 58.3284,259.151 58.4096,259.151 58.4907,259.407 58.5718,259.151 58.6529,259.023 58.7341,259.407 58.8152,259.407 58.8963,259.407 58.9775,257.488 59.0586,259.151 59.1397,259.407 59.2208,259.151 59.302,259.151 59.3831,259.023 59.4642,259.151 59.5453,259.151 59.6265,259.151 59.7076,257.616 59.7887,259.151 59.8699,259.151 59.951,259.151 60.0321,259.407 60.1133,257.488 60.1944,259.151 60.2755,259.151 60.3566,259.151 60.4378,259.151 60.5189,257.616 60.6,264.91 60.6811,259.151 60.7623,259.023 60.8434,259.151 60.9245,259.151 61.0057,259.151 61.0868,258.128 61.1679,259.407 61.249,259.407 61.3302,259.151 61.4113,259.151 61.4924,258.768 61.5736,259.151 61.6547,259.151 61.7358,259.151 61.8169,259.407 61.8981,259.151 61.9792,259.151 62.0603,257.616 62.1415,259.151 62.2226,259.407 62.3037,259.151 62.3848,259.151 62.466,259.151 62.5471,259.151 62.6282,259.151 62.7093,259.151 62.7905,262.735 62.8716,264.526 62.9527,264.526 63.0339,264.526 63.115,259.151 63.1961,259.151 63.2772,259.151 63.3584,259.407 63.4395,259.151 63.5206,259.407 63.6018,259.151 63.6829,259.151 63.764,257.616 63.8451,264.91 63.9263,259.151 64.0074,259.407 64.0885,265.166 64.1696,257.488 64.2508,259.151 64.3319,264.91 64.413,259.151 64.4942,259.151 64.5753,259.151 64.6564,259.151 64.7375,259.151 64.8187,259.151 64.8998,259.151 64.9809,259.151 65.0621,259.407 65.1432,259.151 65.2243,259.151 65.3055,259.151 65.3866,258.768 65.4677,259.151 65.5488,256.976 65.63,259.151 65.7111,258.768 65.7922,259.151 65.8733,258.768 65.9545,257.488 66.0356,259.023 66.1167,264.91 66.1978,259.151 66.279,259.151 66.3601,259.151 66.4412,259.151 66.5224,259.151 66.6035,259.151 66.6846,259.407 66.7658,259.023 66.8469,259.407 66.928,259.151 67.0091,259.407 67.0903,259.023 67.1714,259.407 67.2525,259.151 67.3336,257.616 67.4148,259.023 67.4959,259.407 67.577,259.407 67.6582,259.151 67.7393,257.488 67.8204,259.151 67.9015,259.151 67.9827,259.151 68.0638,264.91 68.1449,258.768 68.2261,259.151 68.3072,259.151 68.3883,259.151 68.4694,257.616 68.5506,259.151 68.6317,259.407 68.7128,259.151 68.7939,259.151 68.8751,259.407 68.9562,259.407 69.0373,259.151 69.1185,257.616 69.1996,259.151 69.2807,259.151 69.3618,264.91 69.443,259.023 69.5241,257.488 69.6052,259.407 69.6864,259.151 69.7675,259.151 69.8486,259.151 69.9297,259.151 70.0109,259.151 70.092,257.488 70.1731,259.023 70.2542,257.616 70.3354,259.407 70.4165,259.407 70.4976,259.407 70.5788,259.407 70.6599,257.616 70.741,259.151 70.8221,259.151 70.9033,259.151 70.9844,259.151 71.0655,259.023 71.1467,259.151 71.2278,259.407 71.3089,259.151 71.39,259.407 71.4712,264.526 71.5523,259.151 71.6334,259.151 71.7146,259.151 71.7957,259.407 71.8768,259.407 71.9579,259.151 72.0391,259.151 72.1202,257.488 72.2013,259.151 72.2824,259.151 72.3636,259.151 72.4447,259.151 72.5258,259.023 72.607,259.151 72.6881,256.976 72.7692,259.151 72.8504,258.768 72.9315,259.151 73.0126,259.023 73.0937,257.488 73.1749,259.151 73.256,259.407 73.3371,259.151 73.4183,259.151 73.4994,259.407 73.5805,259.407 73.6616,257.616 73.7428,259.151 73.8239,264.91 73.905,259.023 73.9861,259.151 74.0673,259.407 74.1484,259.151 74.2295,259.407 74.3107,259.151 74.3918,259.151 74.4729,259.407 74.554,259.151 74.6352,259.023 74.7163,259.151 74.7974,257.616 74.8786,259.151 74.9597,259.151 75.0408,259.151 75.1219,259.151 75.2031,257.616 75.2842,259.151 75.3653,259.407 75.4464,259.151 75.5276,259.151 75.6087,259.151 75.6898,259.151 75.771,257.616 75.8521,259.023 75.9332,259.407 76.0143,259.407 76.0955,259.407 76.1766,265.166 76.2577,259.407 76.3389,257.488 76.42,259.151 76.5011,259.151 76.5822,259.407 76.6634,259.151 76.7445,258.768 76.8256,259.151 76.9067,257.616 76.9879,259.151 77.069,259.151 77.1501,259.151 77.2313,259.151 77.3124,263.119 77.3935,259.151 77.4746,259.151 77.5558,264.91 77.6369,259.151 77.718,259.151 77.7992,258.768 77.8803,259.407 77.9614,259.023 78.0425,259.151 78.1237,259.407 78.2048,259.151 78.2859,259.151 78.3671,259.151 78.4482,259.407 78.5293,265.166 78.6104,257.616 78.6916,259.151 78.7727,257.616 78.8538,264.654 78.9349,259.151 79.0161,259.023 79.0972,259.151 79.1783,259.151 79.2595,259.151 79.3406,257.616 79.4217,259.151 79.5029,259.151 79.584,265.166 79.6651,259.151 79.7462,259.151 79.8274,259.151 79.9085,259.151 79.9896,265.166 80.0707,264.91 80.1519,259.023 80.233,259.151 80.3141,259.407 80.3953,259.151 80.4764,264.91 80.5575,259.151 80.6386,263.375 80.7198,264.91 80.8009,265.166 80.882,265.166 80.9632,259.151 81.0443,264.91 81.1254,259.023 81.2065,257.488 81.2877,258.768 81.3688,257.616 81.4499,259.151 81.5311,264.91 81.6122,259.407 81.6933,259.151 81.7744,259.151 81.8556,259.151 81.9367,257.616 82.0178,259.023 82.0989,259.151 82.1801,259.151 82.2612,259.407 82.3423,259.023 82.4235,259.407 82.5046,259.023 82.5857,259.151 82.6668,259.407 82.748,259.151 82.8291,264.654 82.9102,257.616 82.9914,259.407 83.0725,264.654 83.1536,265.166 83.2347,264.654 83.3159,259.151 83.397,264.654 83.4781,259.151 83.5592,259.023 83.6404,257.488 83.7215,258.768 83.8026,259.151 83.8838,258.768 83.9649,259.151 84.046,257.232 84.1271,259.151 84.2083,258.768 84.2894,259.407 84.3705,259.151 84.4517,259.151 84.5328,259.151 84.6139,259.023 84.695,259.151 84.7762,262.991 84.8573,259.151 84.9384,259.023 85.0195,265.166 85.1007,259.023 85.1818,257.488 85.2629,259.023 85.3441,259.407 85.4252,259.023 85.5063,259.151 85.5874,257.232 85.6686,259.151 85.7497,259.023 85.8308,259.151 85.912,259.151 85.9931,263.375 86.0742,259.151 86.1553,259.151 86.2365,259.407 86.3176,259.407 86.3987,257.616 86.4799,259.407 86.561,259.151 86.6421,259.151 86.7232,259.407 86.8044,257.616 86.8855,259.407 86.9666,259.407 87.0477,259.407 87.1289,259.151 87.21,259.151 87.2911,259.151 87.3723,259.151 87.4534,259.407 87.5345,257.616 87.6157,259.407 87.6968,259.151 87.7779,259.151 87.859,259.407 87.9402,259.407 88.0213,259.151 88.1024,259.407 88.1835,259.151 88.2647,259.151 88.3458,259.407 88.4269,259.023 88.5081,259.151 88.5892,257.616 88.6703,259.151 88.7514,259.151 88.8326,259.407 88.9137,259.407 88.9948,259.151 89.076,259.151 89.1571,259.407 89.2382,259.407 89.3193,259.407 89.4005,257.616 89.4816,259.151 89.5627,259.407 89.6439,257.488 89.725,259.407 89.8061,259.151 89.8872,259.407 89.9684,259.151 90.0495,257.616 90.1306,259.407 90.2117,259.151 90.2929,259.151 90.374,259.151 90.4551,258.768 90.5363,259.407 90.6174,256.976 90.6985,259.151 90.7796,259.151 90.8608,259.407 90.9419,259.407 91.023,259.151 91.1042,264.91 91.1853,257.616 91.2664,259.151 91.3475,259.407 91.4287,259.151 91.5098,259.407 91.5909,257.616 91.6721,259.407 91.7532,259.407 91.8343,258.512 91.9154,259.407 91.9966,258.768 92.0777,259.407 92.1588,259.023 92.24,259.023 92.3211,258.768 92.4022,257.616 92.4833,259.023 92.5645,259.151 92.6456,259.151 92.7267,259.407 92.8078,257.616 92.889,259.151 92.9701,257.488 93.0512,259.151 93.1323,259.151 93.2135,258.768 93.2946,259.151 93.3757,259.023 93.4569,259.407 93.538,257.616 93.6191,264.91 93.7003,259.151 93.7814,259.151 93.8625,259.151 93.9436,257.488 94.0248,259.151 94.1059,259.151 94.187,259.151 94.2682,259.151 94.3493,257.616 94.4304,259.151 94.5115,259.151 94.5927,259.407 94.6738,259.151 94.7549,263.119 94.836,259.151 94.9172,259.407 94.9983,259.151 95.0794,258.768 95.1606,259.151 95.2417,259.407 95.3228,259.407 95.4039,259.023 95.4851,259.151 95.5662,259.151 95.6473,259.407 95.7285,259.151 95.8096,259.407 95.8907,257.616 95.9718,259.151 96.053,259.151 96.1341,259.407 96.2152,259.663 96.2963,258.768 96.3775,265.166 96.4586,257.616 96.5397,259.151 96.6209,258.768 96.702,259.151 96.7831,259.023 96.8642,259.151 96.9454,258.768 97.0265,259.151 97.1076,259.151 97.1888,264.91 97.2699,257.616 97.351,259.151 97.4321,259.151 97.5133,259.151 97.5944,259.151 97.6755,257.616 97.7567,259.151 97.8378,259.151 97.9189,259.151 98,259.407 98.0812,259.151 98.1623,259.151 98.2434,259.023 98.3245,257.488 98.4057,259.407 98.4868,257.616 98.5679,259.151 98.6491,259.151 98.7302,262.735 98.8113,259.919 98.8924,276.044 98.9736,276.3 99.0547,268.238 99.1358,264.526 99.217,265.166 99.2981,260.559 99.3792,261.199 99.4603,263.631 99.5415,226.006 99.6226,278.091 99.7037,256.848 99.7849,228.694 99.866,233.301 99.9471,259.407 100.028,262.479 100.109,255.056 100.19,244.946 100.272,228.694 100.353,238.804 100.434,262.095 100.515,244.946 100.596,233.941 100.677,242.259 100.758,277.58 100.84,278.347 100.921,276.556 101.002,278.347 101.083,276.3 101.164,278.347 101.245,270.797 101.326,271.949 101.407,276.812 101.489,278.347 101.57,276.556 101.651,278.347 101.732,272.589 101.813,278.347 101.894,277.58 101.975,278.347 102.056,272.589 102.138,277.58 102.219,278.091 102.3,272.589 102.381,278.091 102.462,278.347 102.543,272.205 102.624,278.347 102.705,278.347 102.787,272.205 102.868,278.091 102.949,272.589 103.03,272.589 103.111,272.333 103.192,278.347 103.273,270.797 103.354,277.836 103.436,270.797 103.517,272.589 103.598,278.347 103.679,278.347 103.76,277.836 103.841,278.347 103.922,278.347 104.004,278.347 104.085,278.347 104.166,276.556 104.247,278.091 104.328,270.413 104.409,266.446 104.49,250.193 104.571,274.508 104.653,233.301 104.734,259.663 104.815,278.987 104.896,276.812 104.977,273.228 105.058,262.479 105.139,279.115 105.22,273.74 105.302,273.228 105.383,273.228 105.464,266.062 105.545,273.484 105.626,266.19 105.707,267.726 105.788,267.726 105.869,267.598 105.951,267.726 106.032,267.598 106.113,267.982 106.194,266.19 106.275,267.982 106.356,266.19 106.437,273.228 106.518,262.735 106.6,262.095 106.681,252.881 106.762,226.006 106.843,232.661 106.924,269.261 107.005,243.155 107.086,247.506 107.168,236.628 107.249,236.372 107.33,236.372 107.411,236.372 107.492,236.372 107.573,234.581 107.654,236.628 107.735,231.381 107.817,258.768 107.898,236.628 107.979,248.274 108.06,246.866 108.141,232.021 108.222,249.553 108.303,227.414 108.384,238.548 108.466,244.307 108.547,244.307 108.628,249.553 108.709,243.795 108.79,244.307 108.871,244.307 108.952,249.553 109.033,249.553 109.115,249.553 109.196,249.809 109.277,248.018 109.358,244.307 109.439,249.553 109.52,244.307 109.601,249.553 109.682,249.809 109.764,244.307 109.845,244.307 109.926,244.307 110.007,244.307 110.088,249.553 110.169,244.435 110.25,244.307 110.331,244.307 110.413,242.771 110.494,249.553 110.575,249.553 110.656,248.018 110.737,249.809 110.818,244.307 110.899,247.506 110.981,244.307 111.062,249.553 111.143,244.307 111.224,244.307 111.305,244.307 111.386,249.809 111.467,244.307 111.548,249.809 111.63,244.307 111.711,244.307 111.792,243.795 111.873,249.809 111.954,249.042 112.035,244.307 112.116,244.307 112.197,244.307 112.279,244.307 112.36,249.553 112.441,249.553 112.522,249.809 112.603,249.553 112.684,244.307 112.765,244.307 112.846,243.795 112.928,244.307 113.009,249.809 113.09,244.307 113.171,249.809 113.252,244.051 113.333,249.042 113.414,244.307 113.495,244.307 113.577,244.307 113.658,244.307 113.739,244.307 113.82,249.553 113.901,249.553 113.982,244.307 114.063,249.042 114.145,244.307 114.226,244.307 114.307,244.307 114.388,244.307 114.469,244.051 114.55,244.307 114.631,249.809 114.712,244.307 114.794,244.307 114.875,249.809 114.956,244.307 115.037,249.809 115.118,244.307 115.199,244.307 115.28,244.307 115.361,244.051 115.443,244.307 115.524,244.307 115.605,244.307 115.686,242.515 115.767,244.307 115.848,244.307 115.929,242.515 116.01,249.553 116.092,249.809 116.173,244.307 116.254,244.307 116.335,244.307 116.416,244.307 116.497,249.553 116.578,244.307 116.659,244.307 116.741,244.051 116.822,244.307 116.903,244.307 116.984,244.307 117.065,244.307 117.146,244.307 117.227,244.307 117.309,244.307 117.39,244.307 117.471,244.307 117.552,242.515 117.633,244.307 117.714,244.307 117.795,243.795 117.876,244.307 117.958,244.307 118.039,244.307 118.12,242.515 118.201,244.307 118.282,244.307 118.363,244.307 118.444,244.051 118.525,244.051 118.607,244.307 118.688,244.307 118.769,244.307 118.85,244.307 118.931,244.051 119.012,244.051 119.093,244.307 119.174,244.307 119.256,244.051 119.337,244.307 119.418,244.307 119.499,244.307 119.58,243.795 119.661,244.307 119.742,243.795 119.823,244.307 119.905,243.795 119.986,249.809 120.067,243.795 120.148,244.307 120.229,244.307 120.31,244.307 120.391,244.307 120.472,244.307 120.554,244.307 120.635,244.051 120.716,242.771 120.797,244.307 120.878,244.307 120.959,243.795 121.04,244.307 121.122,243.411 121.203,244.307 121.284,244.307 121.365,244.307 121.446,243.795 121.527,244.307 121.608,242.771 121.689,244.435 121.771,244.307 121.852,244.307 121.933,244.435 122.014,244.051 122.095,249.809 122.176,249.553 122.257,249.553 122.338,244.307 122.42,249.553 122.501,244.307 122.582,244.307 122.663,244.307 122.744,244.307 122.825,244.307 122.906,244.307 122.987,244.307 123.069,249.809 123.15,244.307 123.231,244.307 123.312,244.307 123.393,244.051 123.474,242.515 123.555,244.307 123.636,244.307 123.718,243.795 123.799,244.307 123.88,244.307 123.961,244.307 124.042,244.307 124.123,244.307 124.204,249.553 124.286,244.307 124.367,244.307 124.448,244.307 124.529,244.307 124.61,249.298 124.691,244.307 124.772,243.795 124.853,244.307 124.935,244.307 125.016,244.307 125.097,244.307 125.178,244.307 125.259,244.307 125.34,244.307 125.421,244.307 125.502,244.307 125.584,242.515 125.665,244.307 125.746,244.307 125.827,244.307 125.908,244.307 125.989,244.307 126.07,244.051 126.151,244.051 126.233,244.307 126.314,244.051 126.395,244.307 126.476,244.307 126.557,244.307 126.638,244.307 126.719,243.795 126.8,249.809 126.882,244.435 126.963,242.515 127.044,244.307 127.125,249.809 127.206,244.307 127.287,244.307 127.368,244.051 127.45,244.307 127.531,243.795 127.612,244.307 127.693,244.307 127.774,244.307 127.855,244.307 127.936,244.307 128.017,244.051 128.099,244.307 128.18,244.051 128.261,243.667 128.342,244.307 128.423,244.307 128.504,244.307 128.585,244.307 128.666,244.051 128.748,244.307 128.829,243.795 128.91,244.051 128.991,244.307 129.072,244.307 129.153,247.762 129.234,244.307 129.315,244.307 129.397,244.307 129.478,244.307 129.559,243.795 129.64,242.515 129.721,244.307 129.802,244.307 129.883,243.795 129.964,244.307 130.046,243.667 130.127,244.307 130.208,243.795 130.289,244.051 130.37,244.051 130.451,244.307 130.532,244.307 130.613,244.307 130.695,244.307 130.776,244.307 130.857,244.307 130.938,243.795 131.019,244.307 131.1,244.307 131.181,244.307 131.263,244.307 131.344,244.307 131.425,249.553 131.506,244.307 131.587,244.051 131.668,242.259 131.749,244.051 131.83,244.307 131.912,244.307 131.993,244.307 132.074,244.307 132.155,242.515 132.236,244.307 132.317,244.307 132.398,244.307 132.479,244.307 132.561,244.051 132.642,243.795 132.723,249.809 132.804,244.051 132.885,244.307 132.966,243.795 133.047,244.307 133.128,244.307 133.21,244.307 133.291,244.307 133.372,244.307 133.453,249.553 133.534,249.553 133.615,244.307 133.696,249.553 133.777,233.941 133.859,244.435 133.94,239.7 134.021,244.946 134.102,233.941 134.183,239.188 134.264,238.292 134.345,233.045 134.427,249.553 134.508,217.56 134.589,233.301 134.67,239.06 134.751,239.188 134.832,244.307 134.913,228.054 134.994,228.054 135.076,242.771 135.157,232.661 135.238,243.155 135.319,268.621 135.4,237.652 135.481,227.798 135.562,232.405 135.643,259.407 135.725,238.164 135.806,227.414 135.887,223.447 135.968,233.685 136.049,239.828 136.13,268.877 136.211,224.087 136.292,234.581 136.374,255.952 136.455,231.381 136.536,216.792 136.617,247.122 136.698,257.872 136.779,221.399 136.86,168.291 136.941,196.445 137.023,191.198 137.104,222.807 137.185,206.555 137.266,212.185 137.347,212.441 137.428,219.224 137.509,223.447 137.591,223.447 137.672,223.447 137.753,217.56 137.834,217.688 137.915,218.2 137.996,223.447 138.077,223.447 138.158,225.239 138.24,218.2 138.321,223.447 138.402,218.2 138.483,212.185 138.564,212.441 138.645,217.56 138.726,223.447 138.807,223.447 138.889,212.441 138.97,212.697 139.051,212.185 139.132,212.185 139.213,212.185 139.294,212.185 139.375,234.581 139.456,200.54 139.538,239.188 139.619,212.441 139.7,212.185 139.781,212.185 139.862,212.185 139.943,212.441 140.024,218.2 140.105,217.944 140.187,218.2 140.268,218.2 140.349,218.2 140.43,217.944 140.511,218.2 140.592,218.2 140.673,212.441 140.755,212.953 140.836,212.441 140.917,212.441 140.998,218.2 141.079,212.185 141.16,223.447 141.241,234.581 141.322,240.979 141.404,231.125 141.485,244.946 141.566,221.271 141.647,212.953 141.728,229.334 141.809,206.555 141.89,194.269 141.971,206.299 142.053,203.483 142.134,206.299 142.215,208.986 142.296,218.2 142.377,212.953 142.458,212.953 142.539,212.697 142.62,214.489 142.702,218.84 142.783,218.584 142.864,224.087 142.945,224.087 143.026,224.087 143.107,223.831 143.188,224.087 143.269,224.087 143.351,224.087 143.432,224.087 143.513,224.087 143.594,224.087 143.675,224.087 143.756,224.087 143.837,224.087 143.919,224.087 144,224.087 144.081,224.087 144.162,224.343 144.243,229.846 144.324,225.239 144.405,224.087 144.486,224.087 144.568,223.831 144.649,224.087 144.73,224.087 144.811,229.846 144.892,224.087 144.973,224.087 145.054,224.087 145.135,224.087 145.217,224.087 145.298,224.087 145.379,224.087 145.46,224.343 145.541,229.846 145.622,229.974 145.703,223.831 145.784,229.974 145.866,224.087 145.947,224.087 146.028,229.846 146.109,229.846 146.19,224.087 146.271,225.367 146.352,224.087 146.433,229.846 146.515,224.087 146.596,223.831 146.677,224.087 146.758,229.846 146.839,224.087 146.92,224.471 147.001,229.974 147.082,224.087 147.164,229.846 147.245,224.087 147.326,224.087 147.407,224.343 147.488,229.974 147.569,224.087 147.65,224.087 147.732,229.846 147.813,224.087 147.894,229.974 147.975,224.343 148.056,224.087 148.137,224.087 148.218,224.087 148.299,224.087 148.381,224.087 148.462,224.087 148.543,224.087 148.624,229.846 148.705,224.087 148.786,224.087 148.867,224.087 148.948,229.846 149.03,224.087 149.111,224.087 149.192,229.846 149.273,224.087 149.354,224.087 149.435,229.846 149.516,224.087 149.597,224.087 149.679,224.087 149.76,224.343 149.841,224.087 149.922,224.343 150.003,224.087 150.084,224.087 150.165,224.087 150.246,224.087 150.328,224.087 150.409,224.087 150.49,224.087 150.571,224.087 150.652,224.087 150.733,224.087 150.814,224.087 150.896,224.087 150.977,224.087 151.058,224.087 151.139,224.087 151.22,224.087 151.301,224.983 151.382,224.087 151.463,229.974 151.545,229.974 151.626,229.846 151.707,224.087 151.788,229.846 151.869,224.087 151.95,229.846 152.031,229.846 152.112,229.846 152.194,224.087 152.275,224.087 152.356,224.087 152.437,229.974 152.518,224.087 152.599,229.974 152.68,229.974 152.761,229.974 152.843,235.221 152.924,229.846 153.005,224.087 153.086,224.087 153.167,223.831 153.248,224.087 153.329,224.087 153.41,229.846 153.492,224.087 153.573,224.087 153.654,224.087 153.735,229.974 153.816,224.087 153.897,224.087 153.978,229.974 154.059,223.831 154.141,224.087 154.222,224.087 154.303,224.087 154.384,229.974 154.465,229.846 154.546,229.974 154.627,229.846 154.709,224.087 154.79,224.343 154.871,224.087 154.952,235.221 155.033,224.087 155.114,224.087 155.195,223.831 155.276,224.087 155.358,229.846 155.439,229.974 155.52,235.221 155.601,229.974 155.682,229.846 155.763,229.846 155.844,224.087 155.925,224.087 156.007,229.59 156.088,224.087 156.169,224.087 156.25,229.846 156.331,224.471 156.412,224.087 156.493,229.846 156.574,229.846 156.656,224.087 156.737,229.846 156.818,229.846 156.899,224.087 156.98,229.974 157.061,229.846 157.142,229.846 157.223,229.846 157.305,229.846 157.386,229.846 157.467,229.846 157.548,229.846 157.629,229.846 157.71,224.087 157.791,229.846 157.873,224.087 157.954,229.846 158.035,229.846 158.116,229.846 158.197,229.846 158.278,224.087 158.359,223.831 158.44,224.087 158.522,224.087 158.603,229.846 158.684,229.846 158.765,224.087 158.846,229.846 158.927,229.846 159.008,229.846 159.089,229.846 159.171,224.087 159.252,229.846 159.333,225.879 159.414,229.974 159.495,229.846 159.576,224.087 159.657,224.087 159.738,229.846 159.82,224.087 159.901,224.087 159.982,224.087 160.063,229.846 160.144,229.846 160.225,229.846 160.306,229.846 160.387,224.087 160.469,224.087 160.55,224.087 160.631,224.087 160.712,229.846 160.793,224.087 160.874,224.087 160.955,224.087 161.036,224.087 161.118,224.087 161.199,224.087 161.28,225.879 161.361,224.087 161.442,224.343 161.523,224.087 161.604,224.087 161.686,229.846 161.767,229.846 161.848,224.087 161.929,224.087 162.01,229.846 162.091,229.846 162.172,224.087 162.253,224.087 162.335,229.974 162.416,229.846 162.497,229.974 162.578,224.087 162.659,224.087 162.74,224.087 162.821,224.087 162.902,223.831 162.984,224.087 163.065,224.087 163.146,229.846 163.227,224.343 163.308,229.974 163.389,229.974 163.47,229.846 163.551,224.087 163.633,224.087 163.714,224.087 163.795,229.846 163.876,224.087 163.957,229.846 164.038,223.831 164.119,224.087 164.201,229.974 164.282,229.846 164.363,224.087 164.444,224.087 164.525,229.974 164.606,224.087 164.687,229.974 164.768,224.087 164.85,229.974 164.931,223.831 165.012,229.974 165.093,224.087 165.174,229.974 165.255,229.846 165.336,229.846 165.417,229.846 165.499,229.846 165.58,224.087 165.661,229.846 165.742,229.846 165.823,224.087 165.904,229.846 165.985,229.846 166.066,229.846 166.148,224.087 166.229,229.846 166.31,229.846 166.391,224.087 166.472,229.846 166.553,224.087 166.634,224.087 166.715,224.087 166.797,224.087 166.878,224.087 166.959,229.846 167.04,224.087 167.121,224.087 167.202,229.846 167.283,229.846 167.365,225.879 167.446,224.087 167.527,224.343 167.608,224.087 167.689,224.087 167.77,229.974 167.851,224.087 167.932,229.846 168.014,224.087 168.095,224.087 168.176,229.974 168.257,224.087 168.338,224.087 168.419,224.087 168.5,229.846 168.581,229.846 168.663,224.087 168.744,229.846 168.825,224.087 168.906,224.087 168.987,218.84 169.068,207.834 169.149,202.587 169.23,196.701 169.312,207.578 169.393,196.445 169.474,209.37 169.555,207.578 169.636,218.84 169.717,224.087 169.798,214.233 169.879,213.593 169.961,224.727 170.042,230.613 170.123,225.239 170.204,219.48 170.285,220.12 170.366,214.233 170.447,196.701 170.528,213.593 170.61,192.478 170.691,182.624 170.772,207.834 170.853,197.341 170.934,186.079 171.015,186.591 171.096,186.079 171.178,191.326 171.259,191.198 171.34,197.341 171.421,213.593 171.502,194.013 171.583,206.939 171.664,205.659 171.745,220.76 171.827,247.506 171.908,179.296 171.989,179.296 172.07,177.121 172.151,199.26 172.232,189.15 172.313,183.519 172.394,189.022 172.476,189.022 172.557,188.766 172.638,189.406 172.719,188.766 172.8,190.558 172.881,190.558 172.962,188.766 173.043,189.15 173.125,188.766 173.206,188.766 173.287,188.766 173.368,189.15 173.449,188.766 173.53,190.558 173.611,190.558 173.692,190.558 173.774,190.558 173.855,190.942 173.936,190.558 174.017,190.558 174.098,190.558 174.179,190.558 174.26,190.558 174.342,199.9 174.423,248.274 174.504,178.401 174.585,188.766 174.666,188.766 174.747,189.15 174.828,189.15 174.909,188.51 174.991,188.766 175.072,188.766 175.153,190.686 175.234,190.942 175.315,190.558 175.396,190.558 175.477,190.558 175.558,184.415 175.64,190.558 175.721,189.15 175.802,177.121 175.883,194.653 175.964,190.686 176.045,240.979 176.126,244.691 176.207,186.719 176.289,222.551 176.37,195.805 176.451,205.659 176.532,213.593 176.613,192.734 176.694,198.364 176.775,178.656 176.856,169.059 176.938,168.803 177.019,184.415 177.1,179.808 177.181,174.049 177.262,178.273 177.343,194.653 177.424,179.296 177.505,178.912 177.587,173.794 177.668,184.543 177.749,190.686 177.83,185.951 177.911,185.439 177.992,185.695 178.073,185.439 178.155,187.615 178.236,187.231 178.317,185.695 178.398,185.439 178.479,185.439 178.56,186.079 178.641,185.951 178.722,185.951 178.804,185.439 178.885,185.439 178.966,185.439 179.047,185.695 179.128,185.695 179.209,185.695 179.29,186.079 179.371,186.079 179.453,185.439 179.534,185.695 179.615,185.695 179.696,186.335 179.777,185.695 179.858,185.695 179.939,186.079 180.02,185.695 180.102,185.439 180.183,185.695 180.264,185.695 180.345,185.695 180.426,185.951 180.507,186.079 180.588,185.439 180.669,185.439 180.751,185.695 180.832,186.079 180.913,185.695 180.994,187.231 181.075,187.231 181.156,187.231 181.237,185.695 181.319,186.079 181.4,185.439 181.481,185.695 181.562,185.439 181.643,185.439 181.724,185.695 181.805,185.439 181.886,185.695 181.968,185.439 182.049,185.695 182.13,185.951 182.211,186.079 182.292,187.487 182.373,187.487 182.454,187.231 182.535,187.231 182.617,186.079 182.698,186.079 182.779,185.439 182.86,185.695 182.941,185.695 183.022,185.695 183.103,186.079 183.184,185.695 183.266,185.695 183.347,185.695 183.428,186.079 183.509,187.487 183.59,187.487 183.671,187.487 183.752,187.231 183.833,186.591 183.915,186.079 183.996,185.439 184.077,185.439 184.158,185.439 184.239,185.695 184.32,186.079 184.401,185.695 184.483,185.695 184.564,185.695 184.645,185.695 184.726,185.695 184.807,186.079 184.888,187.231 184.969,187.231 185.05,185.695 185.132,185.695 185.213,186.079 185.294,186.079 185.375,185.695 185.456,185.695 185.537,185.695 185.618,185.439 185.699,185.439 185.781,187.487 185.862,187.231 185.943,186.079 186.024,185.695 186.105,185.695 186.186,185.695 186.267,185.695 186.348,185.439 186.43,185.695 186.511,186.079 186.592,186.079 186.673,185.695 186.754,185.695 186.835,185.695 186.916,185.695 186.997,185.439 187.079,185.695 187.16,185.951 187.241,186.079 187.322,185.695 187.403,185.439 187.484,185.695 187.565,185.695 187.647,185.439 187.728,185.439 187.809,185.951 187.89,186.079 187.971,185.439 188.052,185.439 188.133,185.695 188.214,185.695 188.296,185.695 188.377,185.695 188.458,185.695 188.539,185.695 188.62,185.695 188.701,185.439 188.782,186.079 188.863,187.231 188.945,187.231 189.026,185.695 189.107,185.439 189.188,185.439 189.269,185.951 189.35,185.439 189.431,185.439 189.512,185.695 189.594,185.695 189.675,185.439 189.756,185.439 189.837,186.079 189.918,185.439 189.999,185.439 190.08,185.439 190.161,185.439 190.243,185.439 190.324,185.951 190.405,185.695 190.486,185.695 190.567,185.439 190.648,185.695 190.729,187.615 190.811,187.231 190.892,187.231 190.973,185.951 191.054,185.695 191.135,185.695 191.216,186.079 191.297,185.951 191.378,185.695 191.46,185.439 191.541,185.695 191.622,185.951 191.703,185.439 191.784,185.439 191.865,187.487 191.946,187.231 192.027,187.231 192.109,185.695 192.19,187.487 192.271,187.231 192.352,187.231 192.433,187.231 192.514,187.487 192.595,187.231 192.676,187.231 192.758,187.615 192.839,185.439 192.92,185.439 193.001,185.695 193.082,185.439 193.163,185.695 193.244,185.439 193.325,185.695 193.407,185.695 193.488,185.439 193.569,185.183 193.65,185.439 193.731,185.695 193.812,185.695 193.893,185.695 193.974,187.487 194.056,187.871 194.137,185.695 194.218,185.439 194.299,185.439 194.38,185.695 194.461,185.695 194.542,186.079 194.624,185.695 194.705,185.695 194.786,185.439 194.867,185.439 194.948,186.079 195.029,185.439 195.11,185.439 195.191,185.695 195.273,187.231 195.354,187.615 195.435,187.615 195.516,187.231 195.597,187.231 195.678,187.487 195.759,185.439 195.84,185.439 195.922,186.079 196.003,185.695 196.084,185.439 196.165,185.439 196.246,185.695 196.327,185.695 196.408,185.439 196.489,185.695 196.571,187.231 196.652,187.231 196.733,187.231 196.814,187.615 196.895,185.439 196.976,185.695 197.057,185.439 197.138,185.695 197.22,187.231 197.301,185.695 197.382,185.695 197.463,185.439 197.544,185.695 197.625,186.079 197.706,185.695 197.788,187.487 197.869,187.231 197.95,187.231 198.031,187.231 198.112,187.615 198.193,185.695 198.274,185.695 198.355,185.695 198.437,185.695 198.518,185.439 198.599,185.695 198.68,185.439 198.761,185.439 198.842,185.695 198.923,185.439 199.004,185.439 199.086,185.439 199.167,185.439 199.248,185.695 199.329,185.951 199.41,185.439 199.491,185.695 199.572,185.439 199.653,185.695 199.735,186.079 199.816,174.433 199.897,185.439 199.978,176.225 200.059,219.096 200.14,197.341 200.221,173.794 200.302,186.335 200.384,220.76 200.465,198.876 200.546,199.26 200.627,173.41 200.708,168.163 200.789,157.157 200.87,240.979 200.952,156.517 201.033,149.479 201.114,160.868 201.195,183.008 201.276,166.755 201.357,160.868 201.438,168.291 201.519,162.404 201.601,162.788 201.682,167.011 201.763,166.755 201.844,160.868 201.925,166.627 202.006,166.627 202.087,166.627 202.168,160.868 202.25,161.252 202.331,166.627 202.412,161.764 202.493,167.011 202.574,166.627 202.655,160.868 202.736,160.612 202.817,160.868 202.899,160.612 202.98,160.612 203.061,166.627 203.142,160.868 203.223,166.627 203.304,161.124 203.385,162.788 203.466,163.3 203.548,162.788 203.629,161.124 203.71,167.011 203.791,160.612 203.872,157.157 203.953,166.627 204.034,171.874 204.115,150.374 204.197,155.621 204.278,155.621 204.359,155.365 204.44,155.877 204.521,161.124 204.602,161.252 204.683,155.365 204.765,161.252 204.846,155.877 204.927,157.541 205.008,162.404 205.089,162.404 205.17,162.404 205.251,155.365 205.332,160.612 205.414,160.612 205.495,160.868 205.576,171.234 205.657,155.621 205.738,196.829 205.819,155.621 205.9,156.261 205.981,168.291 206.063,158.437 206.144,148.327 206.225,212.185 206.306,190.686 206.387,136.937 206.468,170.978 206.549,136.937 206.63,191.198 206.712,186.335 206.793,185.695 206.874,185.439 206.955,185.439 207.036,185.695 207.117,185.439 207.198,185.951 207.279,185.439 207.361,185.439 207.442,185.695 207.523,185.439 207.604,185.695 207.685,185.951 207.766,190.942 207.847,185.439 207.929,190.686 208.01,196.701 208.091,192.861 208.172,190.686 208.253,190.686 208.334,196.445 208.415,190.686 208.496,190.686 208.578,190.686 208.659,190.686 208.74,198.62 208.821,192.861 208.902,190.686 208.983,190.686 209.064,190.686 209.145,196.701 209.227,196.701 209.308,190.942 209.389,190.686 209.47,198.364 209.551,198.236 209.632,190.942 209.713,196.445 209.794,196.701 209.876,196.445 209.957,196.701 210.038,196.701 210.119,190.686 210.2,196.701 210.281,191.198 210.362,190.686 210.443,198.364 210.525,198.236 210.606,190.942 210.687,196.701 210.768,191.198 210.849,190.686 210.93,190.686 211.011,190.686 211.092,196.701 211.174,196.701 211.255,196.701 211.336,198.364 211.417,196.701 211.498,191.198 211.579,196.701 211.66,196.445 211.742,190.942 211.823,196.701 211.904,196.701 211.985,197.085 212.066,191.326 212.147,190.686 212.228,196.701 212.309,196.445 212.391,197.085 212.472,198.236 212.553,196.701 212.634,196.701 212.715,197.085 212.796,196.445 212.877,196.701 212.958,196.701 213.04,191.198 213.121,192.478 213.202,196.445 213.283,196.701 213.364,190.942 213.445,190.942 213.526,197.085 213.607,196.701 213.689,190.942 213.77,190.686 213.851,191.198 213.932,190.686 214.013,198.364 214.094,198.364 214.175,190.942 214.257,191.198 214.338,196.701 214.419,190.942 214.5,196.701 214.581,196.445 214.662,191.198 214.743,196.701 214.824,190.686 214.906,192.478 214.987,191.326 215.068,191.326 215.149,196.701 215.23,191.326 215.311,196.701 215.392,196.445 215.473,196.701 215.555,190.686 215.636,192.478 215.717,196.701 215.798,196.701 215.879,196.701 215.96,196.701 216.041,196.701 216.122,196.701 216.204,196.701 216.285,198.364 216.366,192.478 216.447,193.117 216.528,191.198 216.609,196.701 216.69,196.701 216.771,196.701 216.853,196.701 216.934,196.445 217.015,196.701 217.096,196.701 217.177,196.701 217.258,198.876 217.339,196.701 217.42,190.686 217.502,196.701 217.583,196.701 217.664,196.701 217.745,191.198 217.826,190.686 217.907,196.445 217.988,190.686 218.07,192.861 218.151,190.686 218.232,190.942 218.313,196.445 218.394,196.701 218.475,196.829 218.556,191.582 218.637,196.701 218.719,196.701 218.8,198.236 218.881,192.478 218.962,195.933 219.043,201.948 219.124,191.198 219.205,190.686 219.286,201.948 219.368,201.948 219.449,197.724 219.53,208.986 219.611,195.933 219.692,201.948 219.773,207.194 219.854,207.194 219.935,207.194 220.017,191.326 220.098,196.701 220.179,198.62 220.26,196.701 220.341,196.701 220.422,196.701 220.503,196.701 220.584,196.829 220.666,196.701 220.747,198.364 220.828,196.701 220.909,196.445 220.99,196.701 221.071,197.085 221.152,196.701 221.234,196.701 221.315,197.724 221.396,198.876 221.477,198.876 221.558,196.701 221.639,196.701 221.72,196.701 221.801,196.701 221.883,191.326 221.964,196.701 222.045,196.701 222.126,196.701 222.207,196.701 222.288,197.085 222.369,191.326 222.45,192.861 222.532,196.701 222.613,196.701 222.694,196.829 222.775,196.701 222.856,196.701 222.937,196.701 223.018,196.701 223.099,196.445 223.181,196.701 223.262,196.701 223.343,197.085 223.424,196.701 223.505,196.701 223.586,196.701 223.667,197.085 223.748,191.326 223.83,198.364 223.911,198.364 223.992,191.582 224.073,196.701 224.154,196.701 224.235,196.701 224.316,191.198 224.397,196.701 224.479,196.701 224.56,196.701 224.641,191.198 224.722,196.701 224.803,196.445 224.884,196.701 224.965,196.701 225.047,196.701 225.128,191.838 225.209,196.701 225.29,198.364 225.371,198.364 225.452,196.701 225.533,191.582 225.614,196.701 225.696,196.701 225.777,191.326 225.858,191.326 225.939,196.701 226.02,196.701 226.101,196.701 226.182,196.445 226.263,198.364 226.345,197.98 226.426,196.701 226.507,196.701 226.588,196.701 226.669,196.701 226.75,196.701 226.831,197.085 226.912,196.701 226.994,196.701 227.075,196.701 227.156,198.364 227.237,198.364 227.318,196.701 227.399,196.701 227.48,196.701 227.561,197.085 227.643,196.701 227.724,196.701 227.805,196.701 227.886,196.701 227.967,196.701 228.048,196.701 228.129,196.701 228.211,197.085 228.292,196.701 228.373,196.701 228.454,196.701 228.535,197.085 228.616,196.701 228.697,196.445 228.778,198.364 228.86,196.701 228.941,197.085 229.022,196.701 229.103,196.829 229.184,196.701 229.265,196.445 229.346,197.085 229.427,196.701 229.509,196.701 229.59,198.364 229.671,198.62 229.752,196.829 229.833,196.701 229.914,196.701 229.995,196.701 230.076,196.701 230.158,196.701 230.239,196.829 230.32,191.326 230.401,191.326 230.482,193.117 230.563,198.364 230.644,196.701 230.725,196.701 230.807,197.085 230.888,196.701 230.969,196.701 231.05,196.701 231.131,197.085 231.212,198.364 231.293,196.701 231.375,196.701 231.456,196.701 231.537,197.085 231.618,196.701 231.699,191.326 231.78,196.701 231.861,196.701 231.942,196.701 232.024,196.701 232.105,198.364 232.186,196.701 232.267,197.085 232.348,196.445 232.429,196.701 232.51,196.701 232.591,197.085 232.673,196.701 232.754,196.701 232.835,198.364 232.916,196.701 232.997,196.829 233.078,190.942 233.159,196.701 233.24,196.829 233.322,196.701 233.403,197.085 233.484,196.701 233.565,190.942 233.646,190.942 233.727,196.701 233.808,197.341 233.889,196.445 233.971,196.701 234.052,196.701 234.133,196.701 234.214,197.085 234.295,196.701 234.376,196.701 234.457,196.829 234.539,196.701 234.62,196.701 234.701,198.364 234.782,196.829 234.863,196.701 234.944,191.326 235.025,196.701 235.106,196.701 235.188,191.326 235.269,196.701 235.35,197.085 235.431,191.326 235.512,198.364 235.593,198.364 235.674,196.829 235.755,197.085 235.837,196.701 235.918,196.829 235.999,196.701 236.08,196.829 236.161,196.701 236.242,196.701 236.323,198.236 236.404,197.085 236.486,196.701 236.567,190.942 236.648,196.701 236.729,196.701 236.81,197.085 236.891,196.701 236.972,196.701 237.053,198.364 237.135,198.876 237.216,196.445 237.297,196.701 237.378,196.701 237.459,197.085 237.54,196.701 237.621,196.445 237.702,190.942 237.784,198.364 237.865,196.701 237.946,196.701 238.027,196.701 238.108,196.701 238.189,190.942 238.27,196.701 238.352,197.085 238.433,196.829 238.514,196.701 238.595,196.701 238.676,190.942 238.757,196.701 238.838,196.701 238.919,197.085 239.001,196.701 239.082,196.701 239.163,190.942 239.244,197.085 239.325,198.364 239.406,192.478 239.487,196.701 239.568,196.829 239.65,191.326 239.731,196.701 239.812,196.701 239.893,196.701 239.974,197.085 240.055,196.701 240.136,196.701 240.217,198.364 240.299,198.364 240.38,191.326 240.461,196.829 240.542,196.701 240.623,190.942 240.704,190.942 240.785,197.085 240.866,196.701 240.948,196.701 241.029,196.701 241.11,198.62 241.191,198.364 241.272,196.701 241.353,196.445 241.434,196.701 241.516,196.701 241.597,197.085 241.678,196.701 241.759,191.326 241.84,196.701 241.921,197.085 242.002,196.445 242.083,198.364 242.165,196.701 242.246,197.085 242.327,197.085 242.408,196.829 242.489,196.701 242.57,196.701 242.651,196.701 242.732,196.829 242.814,196.701 242.895,198.236 242.976,192.734 243.057,197.724 243.138,196.701 243.219,196.701 243.3,196.701 243.381,196.701 243.463,196.701 243.544,197.085 243.625,196.829 243.706,196.701 243.787,196.701 243.868,196.829 243.949,196.829 244.03,196.701 244.112,198.364 244.193,198.364 244.274,197.085 244.355,196.701 244.436,196.701 244.517,196.701 244.598,196.701 244.68,197.085 244.761,196.701 244.842,196.701 244.923,196.701 245.004,198.62 245.085,196.445 245.166,190.942 245.247,196.701 245.329,196.701 245.41,196.701 245.491,196.701 245.572,196.701 245.653,191.326 245.734,196.701 245.815,197.085 245.896,190.686 245.978,190.686 246.059,131.946 246.14,167.651 246.221,183.903 246.302,182.112 246.383,150.119 246.464,144.872 246.545,209.37 246.627,138.729 246.708,154.982 246.789,137.577 246.87,131.69 246.951,127.723 247.032,132.97 247.113,137.193 247.194,153.446 247.276,192.222 247.357,171.874 247.438,116.718 247.519,133.61 247.6,128.875 247.681,125.292 247.762,243.795 247.844,160.868 247.925,149.223 248.006,125.932 248.087,120.685 248.168,122.092 248.249,122.092 248.33,120.301 248.411,120.685 248.493,122.22 248.574,122.476 248.655,120.685 248.736,120.301 248.817,122.092 248.898,122.092 248.979,120.301 249.06,120.685 249.142,122.476 249.223,122.476 249.304,120.685 249.385,120.301 249.466,120.301 249.547,122.092 249.628,122.092 249.709,120.045 249.791,120.301 249.872,122.476 249.953,122.476 250.034,120.685 250.115,120.301 250.196,122.092 250.277,122.092 250.358,114.798 250.44,122.22 250.521,115.822 250.602,132.074 250.683,123.372 250.764,129.899 250.845,133.866 250.926,135.018 251.007,160.484 251.089,136.297 251.17,130.795 251.251,124.012 251.332,124.012 251.413,125.164 251.494,125.164 251.575,125.164 251.657,123.628 251.738,125.548 251.819,125.804 251.9,124.012 251.981,123.628 252.062,125.292 252.143,125.292 252.224,123.628 252.306,123.628 252.387,125.548 252.468,125.548 252.549,123.628 252.63,123.628 252.711,125.292 252.792,125.164 252.873,124.012 252.955,125.548 253.036,125.164 253.117,123.628 253.198,123.628 253.279,125.164 253.36,125.548 253.441,124.012 253.522,124.012 253.604,123.756 253.685,125.548 253.766,125.804 253.847,123.756 253.928,123.628 254.009,123.628 254.09,125.164 254.171,125.292 254.253,123.628 254.334,123.628 254.415,123.372 254.496,125.548 254.577,125.548 254.658,124.012 254.739,124.012 254.821,125.292 254.902,125.292 254.983,123.628 255.064,123.372 255.145,125.548 255.226,125.548 255.307,124.012 255.388,124.012 255.47,124.012 255.551,125.164 255.632,125.164 255.713,125.164 255.794,123.628 255.875,123.628 255.956,125.292 256.037,130.795 256.119,124.012 256.2,124.012 256.281,125.548 256.362,125.804 256.443,125.548 256.524,125.548 256.605,123.628 256.686,123.628 256.768,125.164 256.849,125.292 256.93,123.628 257.011,124.012 257.092,124.012 257.173,125.548 257.254,125.548 257.335,124.012 257.417,124.012 257.498,125.164 257.579,125.292 257.66,123.628 257.741,123.628 257.822,123.628 257.903,125.292 257.984,125.804 258.066,124.012 258.147,124.012 258.228,125.804 258.309,125.164 258.39,123.628 258.471,123.628 258.552,123.628 258.634,125.164 258.715,125.804 258.796,124.012 258.877,124.012 258.958,124.012 259.039,125.164 259.12,123.628 259.201,123.628 259.283,125.292 259.364,125.804 259.445,123.756 259.526,124.012 259.607,124.012 259.688,124.012 259.769,125.804 259.85,125.548 259.932,125.164 260.013,124.012 260.094,124.012 260.175,125.292 260.256,125.164 260.337,123.628 260.418,123.628 260.499,125.804 260.581,125.548 260.662,124.012 260.743,124.012 260.824,124.652 260.905,125.164 260.986,125.292 261.067,123.628 261.148,125.548 261.23,125.548 261.311,124.012 261.392,123.628 261.473,125.164 261.554,125.164 261.635,125.164 261.716,123.628 261.798,123.628 261.879,125.804 261.96,125.804 262.041,125.548 262.122,124.012 262.203,123.628 262.284,125.164 262.365,123.372 262.447,123.628 262.528,123.628 262.609,125.548 262.69,125.804 262.771,124.012 262.852,123.628 262.933,125.292 263.014,123.628 263.096,123.628 263.177,123.628 263.258,125.548 263.339,125.804 263.42,124.012 263.501,123.756 263.582,125.292 263.663,125.164 263.745,123.628 263.826,123.372 263.907,125.548 263.988,125.804 264.069,124.012 264.15,123.628 264.231,125.292 264.312,125.292 264.394,123.628 264.475,123.628 264.556,123.628 264.637,125.548 264.718,125.804 264.799,124.012 264.88,123.628 264.962,124.908 265.043,125.164 265.124,125.164 265.205,123.628 265.286,123.372 265.367,123.628 265.448,125.548 265.529,124.012 265.611,124.012 265.692,125.292 265.773,125.164 265.854,125.164 265.935,123.628 266.016,123.628 266.097,125.548 266.178,125.548 266.26,124.012 266.341,124.012 266.422,125.164 266.503,125.164 266.584,125.292 266.665,123.628 266.746,123.372 266.827,125.164 266.909,125.548 266.99,125.804 267.071,124.012 267.152,124.012 267.233,124.012 267.314,125.804 267.395,125.292 267.476,123.628 267.558,123.628 267.639,125.292 267.72,125.164 267.801,125.164 267.882,124.012 267.963,124.012 268.044,125.548 268.126,125.548 268.207,123.372 268.288,123.628 268.369,125.164 268.45,125.548 268.531,124.012 268.612,124.012 268.693,125.548 268.775,125.548 268.856,125.804 268.937,123.628 269.018,123.628 269.099,125.164 269.18,125.292 269.261,123.628 269.342,124.012 269.424,125.804 269.505,125.548 269.586,125.292 269.667,123.372 269.748,123.628 269.829,125.164 269.91,125.292 269.991,125.292 270.073,124.012 270.154,124.012 270.235,125.804 270.316,125.804 270.397,125.548 270.478,124.012 270.559,124.012 270.64,125.164 270.722,130.539 270.803,123.628 270.884,124.012 270.965,125.804 271.046,125.548 271.127,125.292 271.208,123.628 271.29,125.292 271.371,125.292 271.452,125.164 271.533,123.628 271.614,124.012 271.695,125.548 271.776,125.804 271.857,123.628 271.939,123.628 272.02,125.292 272.101,125.292 272.182,125.292 272.263,123.628 272.344,123.628 272.425,125.804 272.506,125.804 272.588,123.756 272.669,123.628 272.75,125.164 272.831,125.292 272.912,123.628 272.993,124.012 273.074,125.804 273.155,125.548 273.237,124.012 273.318,123.628 273.399,125.164 273.48,125.292 273.561,124.012 273.642,124.012 273.723,125.548 273.804,125.804 273.886,123.628 273.967,123.628 274.048,125.164 274.129,125.164 274.21,125.164 274.291,123.756 274.372,134.378 274.453,129.003 274.535,115.182 274.616,118.765 274.697,124.268 274.778,172.514 274.859,147.303 274.94,167.267 275.021,137.449 275.103,121.197 275.184,103.408 275.265,96.7538 275.346,90.6111 275.427,116.718 275.508,104.432 275.589,95.73 275.67,93.2985 275.752,95.73 275.833,95.4741 275.914,93.9384 275.995,95.2181 276.076,95.73 276.157,93.9384 276.238,95.4741 276.319,95.2181 276.401,93.5545 276.482,95.73 276.563,93.9384 276.644,95.2181 276.725,95.73 276.806,93.9384 276.887,95.73 276.968,95.0902 277.05,93.5545 277.131,95.4741 277.212,95.73 277.293,93.5545 277.374,95.4741 277.455,93.6824 277.536,99.1853 277.617,128.363 277.699,106.224 277.78,104.944 277.861,98.1615 277.942,89.0754 278.023,101.361 278.104,89.0754 278.185,106.224 278.267,97.2657 278.348,115.438 278.429,102.769 278.51,104.688 278.591,102.896 278.672,102.769 278.753,104.304 278.834,104.304 278.916,102.896 278.997,104.688 279.078,104.304 279.159,97.3937 279.24,88.4356 279.321,88.4356 279.402,86.26 279.483,88.0517 279.565,86.644 279.646,88.0517 279.727,86.26 279.808,88.4356 279.889,88.0517 279.97,86.26 280.051,88.4356 280.132,86.644 280.214,88.0517 280.295,88.4356 280.376,86.644 280.457,88.0517 280.538,86.26 280.619,88.4356 280.7,88.4356 280.781,86.26 280.863,88.4356 280.944,86.516 281.025,88.0517 281.106,86.644 281.187,86.644 281.268,88.0517 281.349,86.26 281.431,88.4356 281.512,86.8999 281.593,88.0517 281.674,88.4356 281.755,86.644 281.836,88.0517 281.917,86.644 281.998,88.4356 282.08,88.4356 282.161,86.26 282.242,88.4356 282.323,86.644 282.404,88.0517 282.485,88.4356 282.566,86.644 282.647,88.0517 282.729,86.26 282.81,88.4356 282.891,88.4356 282.972,86.26 283.053,88.4356 283.134,88.4356 283.215,86.644 283.296,88.0517 283.378,86.644 283.459,86.644 283.54,88.4356 283.621,86.26 283.702,88.4356 283.783,86.644 283.864,88.0517 283.945,88.0517 284.027,86.644 284.108,88.4356 284.189,88.0517 284.27,86.644 284.351,88.4356 284.432,86.644 284.513,88.0517 284.595,88.4356 284.676,86.644 284.757,88.0517 284.838,86.644 284.919,86.644 285,88.4356 285.081,86.26 285.162,86.26 285.243,88.4356 285.325,86.644 285.406,88.0517 285.487,88.4356 285.568,86.644 285.649,88.4356 285.73,88.0517 285.811,86.26 285.893,88.4356 285.974,86.644 286.055,86.644 286.136,88.0517 286.217,86.644 286.298,88.4356 286.379,88.0517 286.46,86.26 286.542,88.4356 286.623,86.644 286.704,88.0517 286.785,86.644 286.866,88.4356 286.947,88.0517 287.028,86.644 287.109,88.4356 287.191,86.26 287.272,88.4356 287.353,86.644 287.434,88.0517 287.515,88.0517 287.596,86.644 287.677,88.4356 287.758,86.516 287.84,86.644 287.921,88.4356 288.002,86.644 288.083,86.26 288.164,88.0517 288.245,86.644 288.326,86.644 288.408,88.4356 288.489,86.26 288.57,88.4356 288.651,86.644 288.732,86.26 288.813,88.0517 288.894,88.4356 288.975,86.516 289.057,88.0517 289.138,86.26 289.219,88.4356 289.3,88.4356 289.381,86.26 289.462,88.4356 289.543,86.644 289.624,88.4356 289.706,88.0517 289.787,86.644 289.868,88.4356 289.949,86.26 290.03,88.4356 290.111,86.644 290.192,86.516 290.273,88.0517 290.355,86.26 290.436,88.4356 290.517,88.4356 290.598,86.26 290.679,88.4356 290.76,86.644 290.841,88.0517 290.922,86.26 291.004,86.516 291.085,88.4356 291.166,86.644 291.247,88.0517 291.328,88.4356 291.409,86.644 291.49,88.4356 291.572,86.26 291.653,88.4356 291.734,88.4356 291.815,86.26 291.896,88.4356 291.977,86.644 292.058,88.0517 292.139,86.644 292.221,88.4356 292.302,88.4356 292.383,86.26 292.464,88.4356 292.545,86.644 292.626,88.0517 292.707,86.26 292.788,88.4356 292.87,88.4356 292.951,86.26 293.032,88.0517 293.113,88.4356 293.194,86.644 293.275,88.0517 293.356,86.644 293.437,88.4356 293.519,88.0517 293.6,86.26 293.681,88.4356 293.762,86.644 293.843,88.0517 293.924,88.4356 294.005,86.644 294.086,88.0517 294.168,86.26 294.249,88.4356 294.33,88.4356 294.411,86.26 294.492,88.4356 294.573,86.644 294.654,88.0517 294.736,86.516 294.817,86.644 294.898,88.4356 294.979,86.26 295.06,88.4356 295.141,86.644 295.222,86.644 295.303,88.0517 295.385,86.644 295.466,88.4356 295.547,88.0517 295.628,86.26 295.709,88.4356 295.79,86.26 295.871,88.4356 295.952,86.644 296.034,88.0517 296.115,88.0517 296.196,86.644 296.277,88.4356 296.358,88.4356 296.439,86.26 296.52,88.4356 296.601,86.8999 296.683,86.644 296.764,88.0517 296.845,86.644 296.926,88.4356 297.007,88.4356 297.088,86.26 297.169,88.4356 297.25,86.644 297.332,86.644 297.413,88.0517 297.494,88.0517 297.575,86.644 297.656,88.4356 297.737,86.26 297.818,88.4356 297.9,86.516 297.981,88.0517 298.062,86.644 298.143,88.4356 298.224,88.0517 298.305,86.644 298.386,88.4356 298.467,86.644 298.549,88.0517 298.63,86.644 298.711,86.516 298.792,88.0517 298.873,86.516 298.954,86.644 299.035,88.4356 299.116,86.516 299.198,88.0517 299.279,88.4356 299.36,86.644 299.441,88.0517 299.522,86.644 299.603,88.4356 299.684,88.4356 299.765,86.516 299.847,88.0517 299.928,88.4356 300.009,86.644 300.09,88.0517 300.171,86.644 300.252,88.4356 300.333,86.26 300.414,88.4356 300.496,88.4356 300.577,86.644 300.658,88.0517 300.739,86.516 300.82,88.4356 300.901,86.26 300.982,86.516 301.064,88.4356 301.145,86.516 301.226,88.0517 301.307,88.4356 301.388,86.644 301.469,88.4356 301.55,86.26 301.631,88.4356 301.712,88.4356 301.794,86.26 301.875,88.0517 301.956,88.4356 302.037,86.644 302.118,88.0517 302.199,86.644 302.28,88.4356 302.362,88.4356 302.443,86.26 302.524,88.4356 302.605,86.644 302.686,88.0517 302.767,88.0517 302.848,86.644 302.929,88.4356 303.011,88.0517 303.092,86.26 303.173,88.4356 303.254,86.644 303.335,88.0517 303.416,88.4356 303.497,86.644 303.578,88.4356 303.66,86.26 303.741,88.4356 303.822,88.4356 303.903,86.26 303.984,88.4356 304.065,86.644 304.146,88.0517 304.227,86.26 304.309,86.644 304.39,88.4356 304.471,86.26 304.552,88.4356 304.633,86.644 304.714,86.644 304.795,88.0517 304.876,86.644 304.958,88.4356 305.039,88.0517 305.12,86.644 305.201,88.4356 305.282,86.26 305.363,88.4356 305.444,86.644 305.526,88.4356 305.607,88.0517 305.688,86.644 305.769,88.4356 305.85,86.26 305.931,88.4356 306.012,86.516 306.093,88.0517 306.175,88.0517 306.256,86.644 306.337,88.4356 306.418,88.0517 306.499,86.26 306.58,88.4356 306.661,86.644 306.742,88.0517 306.824,88.4356 306.905,86.644 306.986,88.0517 307.067,86.26 307.148,88.4356 307.229,86.0041 307.31,86.26 307.391,88.4356 307.473,86.644 307.554,86.644 307.635,88.0517 307.716,86.644 307.797,88.4356 307.878,88.0517 307.959,86.26 308.04,88.4356 308.122,86.644 308.203,88.0517 308.284,88.4356 308.365,86.644 308.446,88.4356 308.527,86.26 308.608,88.4356 308.69,88.4356 308.771,86.516 308.852,88.4356 308.933,86.644 309.014,88.4356 309.095,88.0517 309.176,86.644 309.257,88.4356 309.339,88.4356 309.42,86.26 309.501,88.4356 309.582,86.644 309.663,88.0517 309.744,88.0517 309.825,86.644 309.906,88.4356 309.988,86.26 310.069,88.4356 310.15,86.644 310.231,88.0517 310.312,88.4356 310.393,86.644 310.474,88.4356 310.555,86.26 310.637,88.4356 310.718,88.4356 310.799,86.26 310.88,88.4356 310.961,86.644 311.042,88.4356 311.123,88.0517 311.204,86.644 311.286,88.4356 311.367,86.26 311.448,86.26 311.529,88.4356 311.61,86.644 311.691,86.644 311.772,88.0517 311.854,86.644 311.935,88.4356 312.016,87.4118 312.097,86.644 312.178,88.4356 312.259,86.644 312.34,88.0517 312.421,88.4356 312.503,86.644 312.584,88.0517 312.665,86.644 312.746,88.4356 312.827,86.26 312.908,88.4356 312.989,86.644 313.07,88.0517 313.152,88.4356 313.233,86.644 313.314,88.4356 313.395,87.1559 313.476,86.26 313.557,88.4356 313.638,88.4356 313.719,86.644 313.801,88.0517 313.882,86.644 313.963,88.4356 314.044,88.0517 314.125,86.644 314.206,88.4356 314.287,86.644 314.368,86.26 314.45,88.0517 314.531,86.644 314.612,88.4356 314.693,88.0517 314.774,86.644 314.855,88.4356 314.936,86.644 315.017,86.26 315.099,88.0517 315.18,86.644 315.261,86.644 315.342,88.0517 315.423,86.26 315.504,88.4356 315.585,88.4356 315.667,86.26 315.748,88.4356 315.829,86.644 315.91,88.0517 315.991,86.26 316.072,86.644 316.153,88.4356 316.234,86.26 316.316,88.4356 316.397,86.644 316.478,86.644 316.559,88.0517 316.64,86.26 316.721,88.4356 316.802,88.4356 316.883,86.26 316.965,88.4356 317.046,86.644 317.127,88.0517 317.208,86.644 317.289,88.4356 317.37,88.4356 317.451,86.26 317.532,88.4356 317.614,86.644 317.695,88.0517 317.776,86.644 317.857,88.4356 317.938,88.4356 318.019,86.26 318.1,88.4356 318.181,86.644 318.263,88.0517 318.344,88.0517 318.425,86.516 318.506,88.4356 318.587,86.26 318.668,88.0517 318.749,88.4356 318.831,86.644 318.912,88.0517 318.993,88.0517 319.074,88.4356 319.155,88.4356 319.236,86.26 319.317,88.4356 319.398,86.644 319.48,88.0517 319.561,88.0517 319.642,88.4356 319.723,88.4356 319.804,86.26 319.885,88.4356 319.966,88.4356 320.047,86.644 320.129,88.0517 320.21,86.644 320.291,88.4356 320.372,88.4356 320.453,86.26 320.534,88.4356 320.615,86.644 320.696,88.0517 320.778,86.644 320.859,88.4356 320.94,88.0517 321.021,86.644 321.102,88.4356 321.183,86.644 321.264,88.0517 321.345,88.4356 321.427,86.644 321.508,88.0517 321.589,86.26 321.67,88.4356 321.751,88.4356 321.832,86.26 321.913,88.4356 321.995,86.644 322.076,88.0517 322.157,88.0517 322.238,86.644 322.319,88.4356 322.4,86.644 322.481,86.26 322.562,88.4356 322.644,86.644 322.725,88.0517 322.806,86.644 322.887,88.4356 322.968,86.26 323.049,86.644 323.13,88.4356 323.211,86.26 323.293,88.4356 323.374,86.644 323.455,88.0517 323.536,88.0517 323.617,86.644 323.698,88.4356 323.779,86.516 323.86,86.26 323.942,88.4356 324.023,86.644 324.104,88.0517 324.185,88.0517 324.266,86.644 324.347,88.4356 324.428,88.0517 324.509,86.26 324.591,88.4356 324.672,86.644 324.753,88.0517 324.834,88.4356 324.915,86.644 324.996,88.0517 325.077,86.644 325.159,88.4356 325.24,88.4356 325.321,86.26 325.402,88.4356 325.483,88.4356 325.564,86.644 325.645,88.0517 325.726,86.644 325.808,88.4356 325.889,88.4356 325.97,86.26 326.051,88.4356 326.132,86.644 326.213,88.0517 326.294,88.4356 326.375,86.8999 326.457,88.4356 326.538,88.0517 326.619,86.26 326.7,88.4356 326.781,86.644 326.862,88.0517 326.943,86.644 327.024,88.4356 327.106,88.0517 327.187,88.4356 327.268,88.4356 327.349,86.26 327.43,88.4356 327.511,86.644 327.592,86.644 327.673,88.0517 327.755,86.644 327.836,88.4356 327.917,88.0517 327.998,86.26 328.079,88.4356 328.16,88.4356 328.241,86.26 328.322,88.0517 328.404,86.644 328.485,86.644 328.566,88.4356 328.647,86.26 328.728,88.4356 328.809,86.644 328.89,86.26 328.972,88.0517 329.053,86.644 329.134,86.644 329.215,88.0517 329.296,86.644 329.377,88.4356 329.458,88.4356 329.539,86.26 329.621,88.4356 329.702,86.644 329.783,88.0517 329.864,86.644 329.945,86.644 330.026,88.4356 330.107,86.26 330.188,88.4356 330.27,88.4356 330.351,86.26 330.432,88.4356 330.513,86.644 330.594,88.4356 330.675,88.0517 330.756,86.644 330.837,88.4356 330.919,88.4356 331,86.26 331.081,88.4356 331.162,86.644 331.243,88.0517 331.324,88.0517 331.405,86.644 331.486,88.4356 331.568,88.4356 331.649,86.26 331.73,88.4356 331.811,86.644 331.892,86.644 331.973,88.0517 332.054,86.644 332.136,88.4356 332.217,88.0517 332.298,86.644 332.379,88.4356 332.46,86.26 332.541,88.4356 332.622,88.4356 332.703,86.644 332.785,88.0517 332.866,86.644 332.947,88.4356 333.028,88.0517 333.109,86.26 333.19,88.4356 333.271,87.1559 333.352,86.26 333.434,88.0517 333.515,88.4356 333.596,86.644 333.677,88.0517 333.758,86.26 333.839,88.4356 333.92,88.4356 334.001,86.26 334.083,88.4356 334.164,86.644 334.245,88.0517 334.326,88.0517 334.407,86.644 334.488,88.4356 334.569,86.26 334.65,88.4356 334.732,99.4412 334.813,86.644 334.894,82.0369 334.975,102.896 335.056,108.655 335.137,127.083 335.218,104.304 335.299,102.769 335.381,105.328 335.462,104.688 335.543,108.143 335.624,244.946 335.705,72.6949 335.786,140.904 335.867,97.6496 335.949,104.688 336.03,103.152 336.111,107.759 336.192,82.8048 336.273,87.1559 336.354,92.6587 336.435,93.9384 336.516,92.1468 336.598,94.1944 336.679,94.1944 336.76,92.1468 336.841,93.6824 336.922,94.3223 337.003,92.6587 337.084,93.9384 337.165,93.6824 337.247,92.6587 337.328,94.1944 337.409,92.1468 337.49,94.3223 337.571,94.3223 337.652,92.6587 337.733,93.9384 337.814,93.6824 337.896,92.6587 337.977,94.3223 338.058,92.1468 338.139,94.1944 338.22,94.1944 338.301,92.6587 338.382,93.6824 338.464,94.1944 338.545,92.6587 338.626,93.6824 338.707,92.1468 338.788,94.1944 338.869,94.3223 338.95,93.2985 339.031,92.1468 339.113,94.1944 339.194,92.6587 339.275,94.1944 339.356,93.9384 339.437,92.6587 339.518,99.4412 339.599,92.6587 339.68,92.1468 339.762,94.1944 339.843,92.6587 339.924,93.6824 340.005,94.3223 340.086,92.6587 340.167,94.3223 340.248,92.1468 340.329,92.1468 340.411,94.1944 340.492,94.1944 340.573,92.1468 340.654,93.9384 340.735,92.6587 340.816,94.3223 340.897,93.9384 340.978,92.1468 341.06,94.1944 341.141,94.3223 341.222,92.6587 341.303,93.6824 341.384,94.1944 341.465,92.6587 341.546,93.6824 341.627,92.1468 341.709,92.6587 341.79,94.1944 341.871,94.3223 341.952,92.1468 342.033,94.3223 342.114,92.6587 342.195,92.4027 342.277,93.6824 342.358,92.6587 342.439,94.1944 342.52,94.3223 342.601,92.0188 342.682,94.1944 342.763,93.5545 342.844,92.6587 342.926,93.9384 343.007,92.4027 343.088,92.6587 343.169,94.1944 343.25,93.9384 343.331,92.1468 343.412,94.1944 343.493,92.6587 343.575,93.9384 343.656,94.1944 343.737,92.6587 343.818,94.1944 343.899,93.9384 343.98,92.1468 344.061,94.3223 344.142,94.1944 344.224,92.1468 344.305,93.9384 344.386,92.6587 344.467,94.3223 344.548,93.9384 344.629,92.1468 344.71,94.1944 344.791,94.1944 344.873,92.1468 344.954,94.3223 345.035,92.6587 345.116,93.9384 345.197,93.6824 345.278,92.6587 345.359,94.1944 345.441,94.1944 345.522,92.1468 345.603,94.1944 345.684,94.1944 345.765,92.6587 345.846,93.6824 345.927,93.6824 346.008,92.6587 346.09,94.1944 346.171,94.1944 346.252,92.1468 346.333,94.3223 346.414,92.6587 346.495,92.6587 346.576,93.9384 346.657,93.9384 346.739,92.6587 346.82,94.1944 346.901,92.1468 346.982,94.1944 347.063,94.1944 347.144,92.6587 347.225,93.6824 347.306,93.9384 347.388,92.6587 347.469,94.1944 347.55,94.3223 347.631,92.1468 347.712,94.1944 347.793,94.3223 347.874,92.6587 347.955,93.6824 348.037,92.6587 348.118,92.4027 348.199,94.3223 348.28,93.9384 348.361,92.1468 348.442,94.1944 348.523,94.1944 348.605,92.1468 348.686,93.9384 348.767,92.6587 348.848,92.6587 348.929,93.9384 349.01,92.1468 349.091,99.6972 349.172,94.3223 349.254,92.1468 349.335,93.9384 349.416,92.6587 349.497,94.1944 349.578,93.6824 349.659,92.1468 349.74,94.3223 349.821,92.6587 349.903,92.1468 349.984,94.1944 350.065,92.6587 350.146,93.6824 350.227,92.6587 350.308,92.6587 350.389,94.1944 350.47,92.1468 350.552,94.1944 350.633,92.6587 350.714,93.9384 350.795,93.0426 350.876,92.6587 350.957,93.9384 351.038,92.6587 351.119,94.3223 351.201,94.3223 351.282,92.6587 351.363,92.1468 351.444,93.9384 351.525,92.6587 351.606,94.1944 351.687,93.9384 351.768,92.6587 351.85,94.1944 351.931,92.6587 352.012,93.9384 352.093,94.1944 352.174,92.6587 352.255,93.9384 352.336,93.9384 352.418,92.6587 352.499,94.1944 352.58,92.1468 352.661,92.1468 352.742,94.1944 352.823,92.6587 352.904,92.6587 352.985,93.6824 353.067,92.6587 353.148,94.3223 353.229,94.1944 353.31,92.1468 353.391,94.1944 353.472,94.3223 353.553,92.6587 353.634,93.6824 353.716,92.6587 353.797,94.1944 353.878,93.9384 353.959,92.6587 354.04,94.3223 354.121,92.1468 354.202,92.1468 354.283,94.1944 354.365,92.6587 354.446,94.1944 354.527,93.9384 354.608,92.6587 354.689,94.1944 354.77,94.3223 354.851,92.1468 354.932,94.1944 355.014,93.6824 355.095,92.6587 355.176,93.9384 355.257,93.9384 355.338,92.6587 355.419,94.1944 355.5,94.1944 355.582,92.1468 355.663,94.3223 355.744,94.1944 355.825,92.6587 355.906,93.6824 355.987,93.6824 356.068,92.4027 356.149,94.3223 356.231,92.1468 356.312,94.1944 356.393,94.3223 356.474,92.4027 356.555,93.9384 356.636,92.6587 356.717,94.3223 356.798,93.9384 356.88,92.1468 356.961,94.3223 357.042,94.3223 357.123,92.1468 357.204,93.9384 357.285,92.4027 357.366,94.1944 357.447,93.9384 357.529,92.1468 357.61,94.3223 357.691,94.3223 357.772,92.6587 357.853,93.9384 357.934,94.3223 358.015,92.6587 358.096,93.9384 358.178,92.6587 358.259,94.3223 358.34,92.6587 358.421,92.1468 358.502,94.3223 358.583,92.6587 358.664,93.9384 358.746,93.9384 358.827,92.6587 358.908,94.3223 358.989,92.1468 359.07,94.3223 359.151,94.3223 359.232,92.1468 359.313,93.6824 359.395,92.6587 359.476,92.6587 359.557,93.9384 359.638,92.1468 359.719,92.6587 359.8,94.3223 359.881,92.1468 359.962,94.1944 360.044,94.1944 360.125,92.6587 360.206,93.9384 360.287,92.6587 360.368,94.1944 360.449,93.9384 360.53,92.1468 360.611,94.1944 360.693,92.6587 360.774,92.1468 360.855,93.6824 360.936,93.2985 361.017,92.6587 361.098,94.3223 361.179,92.1468 361.26,94.1944 361.342,94.3223 361.423,92.6587 361.504,92.4027 361.585,93.9384 361.666,92.6587 361.747,94.1944 361.828,93.9384 361.91,92.1468 361.991,94.3223 362.072,92.6587 362.153,93.6824 362.234,94.3223 362.315,92.6587 362.396,94.3223 362.477,93.9384 362.559,92.1468 362.64,94.1944 362.721,94.3223 362.802,92.1468 362.883,94.3223 362.964,92.6587 363.045,94.3223 363.126,93.9384 363.208,92.6587 363.289,94.1944 363.37,92.6587 363.451,93.9384 363.532,94.1944 363.613,92.6587 363.694,94.3223 363.775,93.9384 363.857,92.6587 363.938,94.1944 364.019,92.1468 364.1,92.1468 364.181,94.3223 364.262,92.6587 364.343,93.9384 364.424,93.6824 364.506,92.6587 364.587,92.6587 364.668,94.1944 364.749,92.1468 364.83,94.1944 364.911,94.3223 364.992,92.6587 365.074,93.9384 365.155,92.6587 365.236,94.3223 365.317,93.9384 365.398,92.1468 365.479,94.3223 365.56,94.3223 365.641,92.0188 365.723,93.9384 365.804,94.1944 365.885,92.6587 365.966,93.9384"/>
  </g>
  <clipPath id="cp00418314">
   <polygon points="0,314 418,314 418,0 0,0"/>
  </clipPath>
  <g clip-path="url(#cp00418314)">
   <polygon shape-rendering="crispEdges" fill="#ffffff" points="300.478,47.9341 370.953,47.9341 370.953,31.547 300.478,31.547"/>
   <polyline stroke-width="0.5" stroke-linejoin="miter" stroke-dasharray="16,0" stroke-linecap="square" stroke="#262626" fill="none" points="300.478,47.9341 370.953,47.9341"/>
   <polyline stroke-width="0.5" stroke-linejoin="miter" stroke-dasharray="16,0" stroke-linecap="square" stroke="#262626" fill="none" points="300.478,31.547 370.953,31.547"/>
   <polyline stroke-width="0.5" stroke-linejoin="miter" stroke-dasharray="16,0" stroke-linecap="square" stroke="#262626" fill="none" points="300.478,47.9341 300.478,31.547"/>
   <polyline stroke-width="0.5" stroke-linejoin="miter" stroke-dasharray="16,0" stroke-linecap="square" stroke="#262626" fill="none" points="370.953,47.9341 370.953,31.547"/>
   <polyline stroke-width="0.5" stroke-linejoin="round" stroke-linecap="butt" stroke="#0071bc" fill="none" points="304.475,39.7406 324.459,39.7406"/>
   <g font-style="normal" font-size="9" xml:space="preserve" transform="translate(328.456,44.2406) rotate(-0,-0,-4.5)" font-weight="normal" font-family="FreeSans">
    <text x="0 5 7 10 13 18 22 27 32 34 " y="-1" fill="rgb(0,0,0)">ultrasonic</text>
   </g>
  </g>
 </g>
</svg>
