<?xml version='1.0' encoding='UTF-8' standalone='no'?>
<svg xmlns:xlink="http://www.w3.org/1999/xlink" width="418pt" height="314pt" viewBox="0 0 418 314" xmlns="http://www.w3.org/2000/svg">
 <title>Figure 1</title>
 <desc>
Creator: GL2PS 1.4.2, (C) 1999-2020 C. Geuzaine
For: Octave
CreationDate: Wed Mar 12 13:54:48 2025
</desc>
 <defs/>
 <polygon fill="#ffffff" points="0,0 418,0 418,314 0,314"/>
 <g>
  <polygon fill="#ffffff" points="0,314 418,314 418,0 0,0" shape-rendering="crispEdges"/>
  <clipPath id="cp00418314">
   <polygon points="0,314 418,314 418,0 0,0"/>
  </clipPath>
  <g clip-path="url(#cp00418314)">
   <polygon fill="#ffffff" points="54.4343,279.499 378.946,279.499 378.946,23.5533 54.4343,23.5533" shape-rendering="crispEdges"/>
   <polyline fill="none" stroke-linecap="butt" stroke-width="0.5" stroke-opacity="0.15" stroke-dasharray="16,0" stroke="#262626" points="54.4343,279.499 54.4343,23.5533" stroke-linejoin="miter"/>
   <polyline fill="none" stroke-linecap="butt" stroke-width="0.5" stroke-opacity="0.15" stroke-dasharray="16,0" stroke="#262626" points="108.52,279.499 108.52,23.5533" stroke-linejoin="miter"/>
   <polyline fill="none" stroke-linecap="butt" stroke-width="0.5" stroke-opacity="0.15" stroke-dasharray="16,0" stroke="#262626" points="162.605,279.499 162.605,23.5533" stroke-linejoin="miter"/>
   <polyline fill="none" stroke-linecap="butt" stroke-width="0.5" stroke-opacity="0.15" stroke-dasharray="16,0" stroke="#262626" points="216.69,279.499 216.69,23.5533" stroke-linejoin="miter"/>
   <polyline fill="none" stroke-linecap="butt" stroke-width="0.5" stroke-opacity="0.15" stroke-dasharray="16,0" stroke="#262626" points="270.776,279.499 270.776,23.5533" stroke-linejoin="miter"/>
   <polyline fill="none" stroke-linecap="butt" stroke-width="0.5" stroke-opacity="0.15" stroke-dasharray="16,0" stroke="#262626" points="324.861,279.499 324.861,23.5533" stroke-linejoin="miter"/>
   <polyline fill="none" stroke-linecap="butt" stroke-width="0.5" stroke-opacity="0.15" stroke-dasharray="16,0" stroke="#262626" points="378.946,279.499 378.946,23.5533" stroke-linejoin="miter"/>
   <polyline fill="none" stroke-linecap="butt" stroke-width="0.5" stroke="#262626" points="54.4343,279.499 54.4343,276.255" stroke-linejoin="miter"/>
   <polyline fill="none" stroke-linecap="butt" stroke-width="0.5" stroke="#262626" points="108.52,279.499 108.52,276.255" stroke-linejoin="miter"/>
   <polyline fill="none" stroke-linecap="butt" stroke-width="0.5" stroke="#262626" points="162.605,279.499 162.605,276.255" stroke-linejoin="miter"/>
   <polyline fill="none" stroke-linecap="butt" stroke-width="0.5" stroke="#262626" points="216.69,279.499 216.69,276.255" stroke-linejoin="miter"/>
   <polyline fill="none" stroke-linecap="butt" stroke-width="0.5" stroke="#262626" points="270.776,279.499 270.776,276.255" stroke-linejoin="miter"/>
   <polyline fill="none" stroke-linecap="butt" stroke-width="0.5" stroke="#262626" points="324.861,279.499 324.861,276.255" stroke-linejoin="miter"/>
   <polyline fill="none" stroke-linecap="butt" stroke-width="0.5" stroke="#262626" points="378.946,279.499 378.946,276.255" stroke-linejoin="miter"/>
   <g font-weight="normal" font-size="10" xml:space="preserve" font-family="FreeSans" transform="translate(51.4343,294.998) rotate(-0,3,-8)" font-style="normal">
    <text fill="rgb(38,38,38)" x="0 " y="-0">0</text>
   </g>
   <g font-weight="normal" font-size="10" xml:space="preserve" font-family="FreeSans" transform="translate(99.5196,294.998) rotate(-0,9,-8)" font-style="normal">
    <text fill="rgb(38,38,38)" x="0 6 12 " y="-0">500</text>
   </g>
   <g font-weight="normal" font-size="10" xml:space="preserve" font-family="FreeSans" transform="translate(150.605,294.998) rotate(-0,12,-8)" font-style="normal">
    <text fill="rgb(38,38,38)" x="0 6 12 18 " y="-0">1000</text>
   </g>
   <g font-weight="normal" font-size="10" xml:space="preserve" font-family="FreeSans" transform="translate(204.69,294.998) rotate(-0,12,-8)" font-style="normal">
    <text fill="rgb(38,38,38)" x="0 6 12 18 " y="-0">1500</text>
   </g>
   <g font-weight="normal" font-size="10" xml:space="preserve" font-family="FreeSans" transform="translate(258.776,294.998) rotate(-0,12,-8)" font-style="normal">
    <text fill="rgb(38,38,38)" x="0 6 12 18 " y="-0">2000</text>
   </g>
   <g font-weight="normal" font-size="10" xml:space="preserve" font-family="FreeSans" transform="translate(312.861,294.998) rotate(-0,12,-8)" font-style="normal">
    <text fill="rgb(38,38,38)" x="0 6 12 18 " y="-0">2500</text>
   </g>
   <g font-weight="normal" font-size="10" xml:space="preserve" font-family="FreeSans" transform="translate(366.946,294.998) rotate(-0,12,-8)" font-style="normal">
    <text fill="rgb(38,38,38)" x="0 6 12 18 " y="-0">3000</text>
   </g>
   <polyline fill="none" stroke-linecap="butt" stroke-width="0.5" stroke-opacity="0.15" stroke-dasharray="16,0" stroke="#262626" points="54.4343,279.499 378.946,279.499" stroke-linejoin="miter"/>
   <polyline fill="none" stroke-linecap="butt" stroke-width="0.5" stroke-opacity="0.15" stroke-dasharray="16,0" stroke="#262626" points="54.4343,215.513 378.946,215.513" stroke-linejoin="miter"/>
   <polyline fill="none" stroke-linecap="butt" stroke-width="0.5" stroke-opacity="0.15" stroke-dasharray="16,0" stroke="#262626" points="54.4343,151.526 378.946,151.526" stroke-linejoin="miter"/>
   <polyline fill="none" stroke-linecap="butt" stroke-width="0.5" stroke-opacity="0.15" stroke-dasharray="16,0" stroke="#262626" points="54.4343,87.5397 378.946,87.5397" stroke-linejoin="miter"/>
   <polyline fill="none" stroke-linecap="butt" stroke-width="0.5" stroke-opacity="0.15" stroke-dasharray="16,0" stroke="#262626" points="54.4343,23.5533 378.946,23.5533" stroke-linejoin="miter"/>
   <polyline fill="none" stroke-linecap="butt" stroke-width="0.5" stroke="#262626" points="54.4343,279.499 57.6745,279.499" stroke-linejoin="miter"/>
   <polyline fill="none" stroke-linecap="butt" stroke-width="0.5" stroke="#262626" points="54.4343,215.513 57.6745,215.513" stroke-linejoin="miter"/>
   <polyline fill="none" stroke-linecap="butt" stroke-width="0.5" stroke="#262626" points="54.4343,151.526 57.6745,151.526" stroke-linejoin="miter"/>
   <polyline fill="none" stroke-linecap="butt" stroke-width="0.5" stroke="#262626" points="54.4343,87.5397 57.6745,87.5397" stroke-linejoin="miter"/>
   <polyline fill="none" stroke-linecap="butt" stroke-width="0.5" stroke="#262626" points="54.4343,23.5533 57.6745,23.5533" stroke-linejoin="miter"/>
   <g font-weight="normal" font-size="10" xml:space="preserve" font-family="FreeSans" transform="translate(43.4418,283.499) rotate(-0,6,-4)" font-style="normal">
    <text fill="rgb(38,38,38)" x="0 " y="-0">0</text>
   </g>
   <g font-weight="normal" font-size="10" xml:space="preserve" font-family="FreeSans" transform="translate(43.4418,219.513) rotate(-0,6,-4)" font-style="normal">
    <text fill="rgb(38,38,38)" x="0 " y="-0">5</text>
   </g>
   <g font-weight="normal" font-size="10" xml:space="preserve" font-family="FreeSans" transform="translate(37.4418,155.526) rotate(-0,12,-4)" font-style="normal">
    <text fill="rgb(38,38,38)" x="0 6 " y="-0">10</text>
   </g>
   <g font-weight="normal" font-size="10" xml:space="preserve" font-family="FreeSans" transform="translate(37.4418,91.5398) rotate(-0,12,-4)" font-style="normal">
    <text fill="rgb(38,38,38)" x="0 6 " y="-0">15</text>
   </g>
   <g font-weight="normal" font-size="10" xml:space="preserve" font-family="FreeSans" transform="translate(37.4418,27.5533) rotate(-0,12,-4)" font-style="normal">
    <text fill="rgb(38,38,38)" x="0 6 " y="-0">20</text>
   </g>
   <polyline fill="none" stroke-linecap="square" stroke-width="0.5" stroke-dasharray="16,0" stroke="#262626" points="54.4343,279.499 378.946,279.499" stroke-linejoin="miter"/>
   <polyline fill="none" stroke-linecap="square" stroke-width="0.5" stroke-dasharray="16,0" stroke="#262626" points="54.4343,279.499 54.4343,23.5533" stroke-linejoin="miter"/>
   <g font-weight="normal" font-size="11" xml:space="preserve" font-family="FreeSans" transform="translate(203.69,309.998) rotate(-0,13,-10)" font-style="normal">
    <text fill="rgb(38,38,38)" x="0 3 9 15 21 " y="-1">Index</text>
   </g>
   <g font-weight="normal" font-size="11" xml:space="preserve" font-family="FreeSans" transform="translate(18.9418,151.526) rotate(-90,13.5,0)" font-style="normal">
    <text fill="rgb(38,38,38)" x="0 7 13 15 21 " y="-1">Value</text>
   </g>
   <g font-weight="bold" font-size="11" xml:space="preserve" font-family="FreeSans" transform="translate(179.19,13.5533) rotate(-0,37.5,0)" font-style="normal">
    <text fill="rgb(0,0,0)" x="0 7 13 20 26 33 37 40 47 53 56 63 69 " y="-1">Sensor Values</text>
   </g>
   <polyline fill="none" stroke-linecap="butt" stroke-width="0.5" stroke="#0071bc" points="54.5425,270.157 54.6506,269.901 54.7588,269.517 54.867,264.654 54.9751,275.916 55.0833,275.66 55.1915,275.916 55.2997,275.66 55.4078,275.66 55.516,259.023 55.6242,269.901 55.7323,275.66 55.8405,270.413 55.9487,268.621 56.0568,253.777 56.165,268.621 56.2732,258.384 56.3814,263.758 56.4895,259.407 56.5977,262.991 56.7059,265.294 56.814,252.625 56.9222,271.053 57.0304,258.384 57.1386,258.512 57.2467,262.991 57.3549,264.654 57.4631,259.407 57.5712,264.654 57.6794,268.621 57.7876,270.413 57.8958,264.526 58.0039,253.265 58.1121,256.848 58.2203,264.654 58.3284,257.488 58.4366,248.274 58.5448,253.009 58.6529,259.407 58.7611,264.27 58.8693,264.654 58.9775,269.901 59.0856,259.407 59.1938,269.773 59.302,258.768 59.4101,268.366 59.5183,262.991 59.6265,246.482 59.7346,257.616 59.8428,257.488 59.951,240.595 60.0592,245.202 60.1673,246.226 60.2755,246.226 60.3837,234.581 60.4918,238.804 60.6,240.339 60.7082,240.339 60.8164,240.339 60.9245,229.334 61.0327,229.334 61.1409,273.74 61.249,249.042 61.3572,267.342 61.4654,260.687 61.5736,277.58 61.6817,272.333 61.7899,272.333 61.8981,272.333 62.0062,272.205 62.1144,272.589 62.2226,271.949 62.3308,272.589 62.4389,272.589 62.5471,271.053 62.6553,272.589 62.7634,278.091 62.8716,272.589 62.9798,272.333 63.0879,272.589 63.1961,272.589 63.3043,271.949 63.4125,272.333 63.5206,270.797 63.6288,272.333 63.737,272.589 63.8451,272.205 63.9533,272.333 64.0615,270.669 64.1696,272.333 64.2778,272.333 64.386,272.333 64.4942,272.333 64.6023,270.797 64.7105,271.949 64.8187,272.589 64.9268,272.589 65.035,272.589 65.1432,272.333 65.2514,271.949 65.3595,272.333 65.4677,271.949 65.5759,272.333 65.684,272.333 65.7922,270.669 65.9004,272.333 66.0086,271.949 66.1167,278.091 66.2249,271.949 66.3331,272.333 66.4412,272.333 66.5494,272.333 66.6576,272.333 66.7658,272.205 66.8739,272.333 66.9821,270.413 67.0903,272.333 67.1984,271.949 67.3066,272.589 67.4148,272.589 67.5229,272.333 67.6311,270.669 67.7393,272.589 67.8475,271.309 67.9556,272.333 68.0638,272.333 68.172,272.589 68.2801,272.333 68.3883,272.333 68.4965,271.949 68.6046,272.333 68.7128,271.949 68.821,270.669 68.9292,272.333 69.0373,271.949 69.1455,272.333 69.2537,272.205 69.3618,272.333 69.47,272.333 69.5782,272.589 69.6864,272.333 69.7945,272.333 69.9027,272.589 70.0109,276.3 70.119,272.333 70.2272,272.589 70.3354,272.589 70.4436,272.333 70.5517,277.836 70.6599,278.347 70.7681,271.949 70.8762,272.589 70.9844,276.556 71.0926,272.333 71.2008,270.797 71.3089,271.949 71.4171,270.669 71.5253,272.205 71.6334,278.347 71.7416,272.333 71.8498,271.949 71.9579,272.333 72.0661,271.949 72.1743,272.333 72.2824,278.347 72.3906,277.836 72.4988,278.347 72.607,278.347 72.7151,270.413 72.8233,278.091 72.9315,277.836 73.0396,278.347 73.1478,278.347 73.256,276.044 73.3642,278.347 73.4723,272.589 73.5805,278.347 73.6887,272.333 73.7968,272.205 73.905,272.333 74.0132,270.797 74.1214,272.205 74.2295,272.333 74.3377,272.333 74.4459,272.589 74.554,278.347 74.6622,278.347 74.7704,272.589 74.8786,272.205 74.9867,272.333 75.0949,272.333 75.2031,270.413 75.3112,272.333 75.4194,270.413 75.5276,272.333 75.6357,272.205 75.7439,272.333 75.8521,272.333 75.9603,270.413 76.0684,272.333 76.1766,277.836 76.2848,278.347 76.3929,276.556 76.5011,278.091 76.6093,276.556 76.7174,272.333 76.8256,271.053 76.9338,271.949 77.042,271.949 77.1501,272.333 77.2583,272.333 77.3665,272.333 77.4746,271.949 77.5828,272.589 77.691,272.589 77.7992,270.669 77.9073,272.333 78.0155,271.949 78.1237,272.589 78.2318,272.205 78.34,272.589 78.4482,276.812 78.5564,272.333 78.6645,272.333 78.7727,271.949 78.8809,272.333 78.989,270.669 79.0972,272.333 79.2054,270.797 79.3136,271.949 79.4217,272.333 79.5299,272.589 79.6381,272.589 79.7462,272.333 79.8544,272.333 79.9626,272.333 80.0707,272.205 80.1789,272.589 80.2871,272.333 80.3953,272.589 80.5034,272.589 80.6116,272.589 80.7198,272.589 80.8279,272.333 80.9361,272.589 81.0443,272.589 81.1524,272.589 81.2606,272.333 81.3688,272.333 81.477,270.797 81.5851,272.205 81.6933,270.669 81.8015,272.333 81.9096,272.589 82.0178,272.333 82.126,270.413 82.2342,272.333 82.3423,272.589 82.4505,272.589 82.5587,272.589 82.6668,272.333 82.775,272.589 82.8832,272.205 82.9914,272.589 83.0995,272.205 83.2077,278.091 83.3159,272.589 83.424,272.333 83.5322,272.333 83.6404,272.589 83.7486,272.589 83.8567,271.949 83.9649,272.333 84.0731,272.333 84.1812,270.797 84.2894,272.589 84.3976,270.157 84.5057,272.333 84.6139,270.669 84.7221,272.333 84.8303,272.589 84.9384,272.589 85.0466,272.589 85.1548,272.205 85.2629,272.589 85.3711,278.091 85.4793,272.333 85.5874,272.589 85.6956,278.347 85.8038,270.797 85.912,272.333 86.0201,272.333 86.1283,272.333 86.2365,277.836 86.3446,270.669 86.4528,272.589 86.561,270.669 86.6692,272.333 86.7773,272.333 86.8855,276.044 86.9937,272.333 87.1018,272.333 87.21,272.205 87.3182,272.589 87.4264,271.949 87.5345,272.589 87.6427,270.797 87.7509,272.333 87.859,270.669 87.9672,271.949 88.0754,272.589 88.1835,272.589 88.2917,272.333 88.3999,272.589 88.508,271.949 88.6162,270.797 88.7244,272.589 88.8326,270.669 88.9407,272.589 89.0489,272.205 89.1571,272.333 89.2653,272.589 89.3734,272.589 89.4816,272.333 89.5898,272.333 89.6979,272.589 89.8061,272.205 89.9143,272.589 90.0224,272.589 90.1306,272.589 90.2388,272.589 90.347,272.205 90.4551,270.797 90.5633,272.589 90.6715,270.797 90.7796,272.589 90.8878,272.205 90.996,278.091 91.1042,272.589 91.2123,272.333 91.3205,272.589 91.4287,271.437 91.5368,272.589 91.645,272.589 91.7532,272.589 91.8614,272.589 91.9695,272.589 92.0777,272.589 92.1859,272.589 92.294,272.205 92.4022,272.589 92.5104,272.589 92.6185,272.589 92.7267,272.589 92.8349,272.205 92.943,272.333 93.0512,272.205 93.1594,272.589 93.2676,272.205 93.3757,272.845 93.4839,272.589 93.5921,272.333 93.7003,272.589 93.8084,272.589 93.9166,272.589 94.0248,270.413 94.1329,272.333 94.2411,278.091 94.3493,271.949 94.4574,272.333 94.5656,272.333 94.6738,272.589 94.782,272.333 94.8901,278.091 94.9983,276.556 95.1065,277.58 95.2146,272.589 95.3228,272.333 95.431,272.205 95.5392,272.333 95.6473,272.589 95.7555,270.797 95.8637,272.589 95.9718,270.669 96.08,272.589 96.1882,272.333 96.2963,278.347 96.4045,278.347 96.5127,277.836 96.6209,272.589 96.729,276.3 96.8372,272.589 96.9454,270.669 97.0535,278.347 97.1617,276.812 97.2699,272.205 97.378,272.589 97.4862,278.347 97.5944,272.589 97.7026,272.333 97.8107,277.836 97.9189,270.797 98.0271,277.836 98.1353,270.797 98.2434,272.589 98.3516,270.797 98.4598,272.333 98.5679,271.053 98.6761,272.333 98.7843,272.205 98.8924,278.091 99.0006,278.091 99.1088,272.589 99.217,272.589 99.3251,272.589 99.4333,272.589 99.5415,272.205 99.6496,272.589 99.7578,270.797 99.866,272.589 99.9742,270.797 100.082,272.589 100.19,270.797 100.299,271.949 100.407,272.589 100.515,272.589 100.623,272.589 100.731,272.333 100.84,271.949 100.948,270.797 101.056,272.333 101.164,270.797 101.272,272.589 101.38,272.333 101.489,272.589 101.597,272.205 101.705,272.333 101.813,271.949 101.921,272.589 102.029,272.333 102.138,271.949 102.246,272.589 102.354,270.797 102.462,278.347 102.57,272.333 102.678,272.589 102.787,278.347 102.895,270.669 103.003,272.333 103.111,272.333 103.219,272.589 103.327,270.797 103.436,272.333 103.544,270.797 103.652,272.333 103.76,272.333 103.868,272.333 103.976,272.205 104.085,272.333 104.193,272.589 104.301,270.797 104.409,272.333 104.517,270.413 104.625,272.333 104.734,272.333 104.842,272.205 104.95,272.333 105.058,270.413 105.166,272.589 105.275,270.669 105.383,272.333 105.491,272.589 105.599,272.589 105.707,272.589 105.815,272.333 105.924,272.333 106.032,272.333 106.14,272.205 106.248,272.589 106.356,271.949 106.464,272.589 106.573,272.333 106.681,270.797 106.789,272.333 106.897,270.413 107.005,272.333 107.113,270.413 107.222,272.589 107.33,270.669 107.438,272.589 107.546,278.347 107.654,272.205 107.762,272.589 107.871,271.949 107.979,272.333 108.087,272.205 108.195,272.333 108.303,278.347 108.411,272.205 108.52,276.556 108.628,272.589 108.736,272.589 108.844,278.347 108.952,277.836 109.06,278.347 109.169,272.589 109.277,276.3 109.385,272.589 109.493,272.589 109.601,270.797 109.71,272.589 109.818,276.556 109.926,278.347 110.034,272.589 110.142,277.836 110.25,278.347 110.359,278.347 110.467,278.347 110.575,276.556 110.683,277.58 110.791,276.556 110.899,272.205 111.008,270.797 111.116,272.333 111.224,270.797 111.332,278.347 111.44,270.797 111.548,278.347 111.657,272.205 111.765,272.589 111.873,272.589 111.981,272.205 112.089,278.347 112.197,270.669 112.306,272.589 112.414,278.091 112.522,271.949 112.63,272.333 112.738,272.333 112.846,272.333 112.955,272.589 113.063,272.589 113.171,272.333 113.279,277.836 113.387,270.797 113.495,272.333 113.604,272.589 113.712,272.589 113.82,271.949 113.928,272.333 114.036,272.333 114.145,272.589 114.253,272.589 114.361,272.333 114.469,272.333 114.577,271.949 114.685,272.589 114.794,271.949 114.902,272.333 115.01,272.589 115.118,272.589 115.226,272.589 115.334,272.589 115.443,270.797 115.551,272.205 115.659,270.669 115.767,272.205 115.875,272.589 115.983,272.333 116.092,272.205 116.2,272.333 116.308,272.589 116.416,270.797 116.524,272.589 116.632,270.669 116.741,272.333 116.849,276.812 116.957,272.333 117.065,272.589 117.173,271.949 117.281,278.091 117.39,272.333 117.498,272.589 117.606,270.413 117.714,272.333 117.822,272.333 117.93,272.333 118.039,272.333 118.147,272.589 118.255,271.949 118.363,271.053 118.471,272.333 118.58,271.437 118.688,272.589 118.796,272.589 118.904,272.333 119.012,272.589 119.12,272.205 119.229,272.589 119.337,272.205 119.445,272.589 119.553,270.797 119.661,272.333 119.769,270.797 119.878,272.205 119.986,272.333 120.094,272.589 120.202,272.589 120.31,272.333 120.418,271.949 120.527,270.669 120.635,272.589 120.743,270.669 120.851,272.333 120.959,270.669 121.067,272.333 121.176,272.333 121.284,272.589 121.392,272.333 121.5,270.413 121.608,272.589 121.716,278.091 121.825,272.333 121.933,272.589 122.041,271.949 122.149,272.589 122.257,270.797 122.365,272.333 122.474,270.797 122.582,272.205 122.69,272.333 122.798,272.333 122.906,272.589 123.015,272.333 123.123,272.333 123.231,272.589 123.339,272.205 123.447,272.589 123.555,272.333 123.664,272.589 123.772,272.589 123.88,270.669 123.988,272.589 124.096,270.413 124.204,272.589 124.313,272.589 124.421,271.949 124.529,272.589 124.637,272.589 124.745,272.333 124.853,272.589 124.962,272.589 125.07,272.333 125.178,272.333 125.286,272.589 125.394,272.205 125.502,272.589 125.611,272.589 125.719,270.797 125.827,272.589 125.935,271.949 126.043,272.333 126.151,272.333 126.26,272.333 126.368,272.333 126.476,270.157 126.584,272.589 126.692,272.333 126.8,272.333 126.909,272.589 127.017,272.205 127.125,272.333 127.233,270.797 127.341,272.205 127.45,270.669 127.558,271.949 127.666,272.589 127.774,272.589 127.882,271.949 127.99,272.333 128.099,267.086 128.207,272.589 128.315,270.413 128.423,267.086 128.531,267.086 128.639,261.455 128.748,262.095 128.856,271.437 128.964,255.696 129.072,277.452 129.18,267.342 129.288,267.726 129.397,278.347 129.505,266.83 129.613,267.726 129.721,239.828 129.829,240.339 129.937,258.128 130.046,240.595 130.154,235.221 130.262,235.221 130.37,240.595 130.478,246.482 130.586,246.482 130.695,251.089 130.803,234.197 130.911,235.221 131.019,235.988 131.127,234.581 131.235,217.56 131.344,251.089 131.452,131.051 131.56,227.542 131.668,163.044 131.776,222.167 131.885,243.795 131.993,195.549 132.101,260.943 132.209,193.629 132.317,194.269 132.425,185.439 132.534,189.022 132.642,183.519 132.75,183.647 132.858,183.647 132.966,184.159 133.074,184.159 133.183,183.647 133.291,185.439 133.399,183.647 133.507,184.159 133.615,184.159 133.723,183.647 133.832,189.662 133.94,191.198 134.048,191.582 134.156,184.159 134.264,183.647 134.372,183.647 134.481,189.406 134.589,189.79 134.697,185.439 134.805,183.647 134.913,183.647 135.021,184.159 135.13,183.519 135.238,185.439 135.346,183.519 135.454,189.15 135.562,189.79 135.67,183.647 135.779,189.406 135.887,185.183 135.995,184.159 136.103,184.159 136.211,183.647 136.32,183.519 136.428,183.647 136.536,189.79 136.644,183.903 136.752,183.519 136.86,183.647 136.969,183.647 137.077,183.647 137.185,189.79 137.293,183.647 137.401,183.647 137.509,190.686 137.618,183.647 137.726,184.159 137.834,189.662 137.942,183.647 138.05,183.903 138.158,185.695 138.267,185.695 138.375,183.647 138.483,183.647 138.591,183.519 138.699,183.647 138.807,189.15 138.916,184.159 139.024,190.558 139.132,189.406 139.24,189.662 139.348,183.647 139.456,189.662 139.565,189.406 139.673,190.686 139.781,189.15 139.889,189.022 139.997,189.406 140.105,189.022 140.214,189.022 140.322,189.662 140.43,185.439 140.538,185.951 140.646,183.647 140.755,183.519 140.863,189.406 140.971,189.022 141.079,189.406 141.187,191.198 141.295,189.022 141.404,189.022 141.512,189.022 141.62,189.79 141.728,189.662 141.836,189.022 141.944,189.662 142.053,190.046 142.161,189.406 142.269,189.662 142.377,189.022 142.485,191.198 142.593,189.022 142.702,189.662 142.81,189.662 142.918,189.406 143.026,183.647 143.134,189.022 143.242,190.686 143.351,189.022 143.459,189.662 143.567,189.406 143.675,183.647 143.783,183.903 143.891,189.662 144,183.519 144.108,191.582 144.216,189.662 144.324,183.903 144.432,189.662 144.54,189.022 144.649,184.159 144.757,189.022 144.865,185.439 144.973,185.439 145.081,189.662 145.189,189.406 145.298,183.647 145.406,183.647 145.514,183.903 145.622,189.662 145.73,191.198 145.839,185.951 145.947,183.647 146.055,183.903 146.163,183.647 146.271,183.647 146.379,189.662 146.488,190.686 146.596,190.558 146.704,189.022 146.812,189.662 146.92,189.022 147.028,184.159 147.137,183.647 147.245,189.406 147.353,183.647 147.461,185.439 147.569,184.159 147.677,183.647 147.786,183.647 147.894,183.647 148.002,183.647 148.11,189.79 148.218,191.198 148.326,191.198 148.435,183.647 148.543,189.662 148.651,189.79 148.759,183.647 148.867,183.647 148.975,189.662 149.084,191.198 149.192,189.79 149.3,189.662 149.408,189.662 149.516,189.406 149.624,189.406 149.733,189.662 149.841,190.942 149.949,189.022 150.057,189.406 150.165,189.022 150.274,189.406 150.382,189.15 150.49,190.558 150.598,190.558 150.706,189.022 150.814,189.406 150.923,189.406 151.031,191.198 151.139,191.198 151.247,189.406 151.355,189.406 151.463,189.79 151.572,189.662 151.68,189.406 151.788,189.406 151.896,183.647 152.004,189.79 152.112,189.662 152.221,189.406 152.329,189.406 152.437,189.662 152.545,189.79 152.653,189.662 152.761,189.022 152.87,189.406 152.978,189.15 153.086,191.198 153.194,189.406 153.302,189.022 153.41,189.662 153.519,189.79 153.627,189.406 153.735,191.198 153.843,189.022 153.951,189.406 154.059,189.406 154.168,183.647 154.276,183.647 154.384,191.198 154.492,189.79 154.6,183.647 154.709,189.406 154.817,189.662 154.925,189.79 155.033,185.695 155.141,189.406 155.249,189.15 155.358,183.647 155.466,189.662 155.574,189.406 155.682,189.662 155.79,189.662 155.898,189.406 156.007,183.903 156.115,183.647 156.223,191.198 156.331,185.183 156.439,189.406 156.547,189.79 156.656,189.406 156.764,183.647 156.872,183.647 156.98,183.519 157.088,185.439 157.196,184.159 157.305,183.647 157.413,183.647 157.521,189.406 157.629,183.647 157.737,185.439 157.845,185.439 157.954,183.647 158.062,183.647 158.17,183.647 158.278,183.647 158.386,189.406 158.494,189.15 158.603,183.647 158.711,183.647 158.819,185.439 158.927,189.406 159.035,189.79 159.144,189.79 159.252,189.406 159.36,183.647 159.468,183.647 159.576,183.903 159.684,189.662 159.793,183.647 159.901,189.662 160.009,189.406 160.117,189.79 160.225,191.198 160.333,183.647 160.442,189.406 160.55,183.647 160.658,183.647 160.766,189.79 160.874,183.647 160.982,185.439 161.091,190.302 161.199,189.662 161.307,183.647 161.415,189.406 161.523,185.439 161.631,185.439 161.74,189.79 161.848,189.662 161.956,189.406 162.064,183.647 162.172,189.406 162.28,189.79 162.389,185.439 162.497,183.647 162.605,183.647 162.713,189.022 162.821,189.406 162.929,189.15 163.038,189.022 163.146,189.662 163.254,190.686 163.362,190.558 163.47,189.022 163.579,189.15 163.687,188.766 163.795,190.558 163.903,189.15 164.011,189.406 164.119,183.519 164.228,183.647 164.336,189.662 164.444,189.662 164.552,191.198 164.66,189.406 164.768,189.406 164.877,189.662 164.985,184.159 165.093,183.647 165.201,185.183 165.309,183.519 165.417,183.647 165.526,184.159 165.634,189.406 165.742,183.647 165.85,184.159 165.958,185.439 166.066,183.903 166.175,183.647 166.283,183.647 166.391,183.519 166.499,183.647 166.607,183.647 166.715,185.695 166.824,185.439 166.932,189.406 167.04,183.647 167.148,183.647 167.256,184.159 167.364,183.519 167.473,185.183 167.581,191.198 167.689,189.662 167.797,183.647 167.905,183.647 168.014,184.159 168.122,184.159 168.23,189.406 168.338,183.647 168.446,185.439 168.554,183.903 168.663,183.647 168.771,183.647 168.879,183.647 168.987,189.15 169.095,191.582 169.203,183.647 169.312,183.647 169.42,183.647 169.528,184.159 169.636,184.159 169.744,183.647 169.852,185.439 169.961,183.647 170.069,183.647 170.177,184.159 170.285,183.647 170.393,183.647 170.501,185.439 170.61,185.439 170.718,184.159 170.826,183.647 170.934,189.022 171.042,194.909 171.15,189.022 171.259,189.79 171.367,191.198 171.475,200.54 171.583,200.54 171.691,206.555 171.799,206.299 171.908,197.085 172.016,195.933 172.124,217.688 172.232,200.54 172.34,184.415 172.449,257.488 172.557,195.933 172.665,190.046 172.773,201.948 172.881,241.875 172.989,207.834 173.098,218.328 173.206,215.129 173.314,214.233 173.422,175.201 173.53,251.345 173.638,205.147 173.747,203.227 173.855,205.019 173.963,200.412 174.071,182.624 174.179,199.9 174.287,130.539 174.396,177.121 174.504,221.399 174.612,171.874 174.72,171.874 174.828,177.121 174.936,177.121 175.045,177.121 175.153,177.121 175.261,178.273 175.369,178.401 175.477,189.15 175.585,187.615 175.694,187.615 175.802,187.615 175.91,187.615 176.018,187.615 176.126,187.871 176.234,187.615 176.343,187.615 176.451,189.15 176.559,187.487 176.667,187.487 176.775,187.615 176.884,188.126 176.992,188.126 177.1,187.615 177.208,187.615 177.316,187.615 177.424,187.487 177.533,189.406 177.641,189.022 177.749,187.615 177.857,187.615 177.965,187.615 178.073,187.615 178.182,187.871 178.29,187.487 178.398,187.615 178.506,187.615 178.614,187.487 178.722,188.126 178.831,187.615 178.939,187.615 179.047,189.406 179.155,187.871 179.263,188.126 179.371,187.615 179.48,187.615 179.588,187.615 179.696,187.615 179.804,188.126 179.912,189.406 180.02,187.615 180.129,187.615 180.237,187.871 180.345,187.615 180.453,187.615 180.561,187.615 180.669,189.406 180.778,189.406 180.886,189.15 180.994,187.871 181.102,187.871 181.21,187.615 181.319,187.615 181.427,187.615 181.535,187.615 181.643,189.662 181.751,189.406 181.859,187.615 181.968,187.615 182.076,187.615 182.184,187.615 182.292,188.126 182.4,187.615 182.508,189.15 182.617,187.615 182.725,187.615 182.833,188.126 182.941,187.615 183.049,187.615 183.157,187.615 183.266,189.406 183.374,189.406 183.482,187.871 183.59,187.615 183.698,187.487 183.806,187.615 183.915,187.231 184.023,189.79 184.131,187.615 184.239,187.615 184.347,187.615 184.455,187.487 184.564,187.615 184.672,189.15 184.78,189.15 184.888,187.615 184.996,187.487 185.104,187.487 185.213,188.126 185.321,187.615 185.429,187.487 185.537,189.406 185.645,189.15 185.754,188.126 185.862,187.615 185.97,187.615 186.078,187.487 186.186,187.615 186.294,187.615 186.403,187.615 186.511,189.15 186.619,187.615 186.727,187.615 186.835,187.615 186.943,187.615 187.052,188.126 187.16,189.15 187.268,187.487 187.376,187.615 187.484,187.615 187.592,187.871 187.701,187.487 187.809,189.15 187.917,187.615 188.025,187.615 188.133,188.126 188.241,188.126 188.35,187.487 188.458,187.615 188.566,189.15 188.674,189.662 188.782,188.126 188.89,187.615 188.999,187.615 189.107,187.615 189.215,187.615 189.323,187.871 189.431,189.15 189.539,187.615 189.648,187.615 189.756,187.615 189.864,187.615 189.972,188.126 190.08,188.126 190.189,187.487 190.297,189.15 190.405,189.15 190.513,187.487 190.621,187.871 190.729,187.615 190.838,187.615 190.946,187.487 191.054,189.15 191.162,189.662 191.27,189.79 191.378,189.662 191.487,187.487 191.595,187.487 191.703,187.487 191.811,187.615 191.919,188.126 192.027,187.615 192.136,189.15 192.244,189.406 192.352,187.615 192.46,187.487 192.568,187.487 192.676,187.615 192.785,189.15 192.893,189.15 193.001,188.126 193.109,187.615 193.217,187.615 193.325,187.615 193.434,187.615 193.542,188.126 193.65,187.615 193.758,187.615 193.866,187.615 193.974,187.615 194.083,187.615 194.191,188.126 194.299,187.615 194.407,189.15 194.515,187.615 194.624,187.615 194.732,187.615 194.84,187.487 194.948,187.871 195.056,187.487 195.164,187.615 195.273,187.615 195.381,187.615 195.489,187.615 195.597,189.79 195.705,189.662 195.813,187.615 195.922,187.615 196.03,187.615 196.138,187.615 196.246,187.615 196.354,187.615 196.462,189.15 196.571,187.615 196.679,187.615 196.787,187.615 196.895,187.487 197.003,187.871 197.111,187.615 197.22,187.615 197.328,187.615 197.436,187.615 197.544,189.15 197.652,189.662 197.76,187.615 197.869,187.615 197.977,187.615 198.085,187.487 198.193,187.615 198.301,187.487 198.409,187.615 198.518,187.615 198.626,189.15 198.734,189.15 198.842,189.15 198.95,187.487 199.059,187.615 199.167,188.126 199.275,187.615 199.383,187.615 199.491,189.15 199.599,187.615 199.708,187.871 199.816,187.615 199.924,187.487 200.032,187.615 200.14,189.662 200.248,189.662 200.357,187.487 200.465,187.615 200.573,187.615 200.681,187.615 200.789,187.871 200.897,189.15 201.006,189.15 201.114,187.487 201.222,187.487 201.33,187.487 201.438,187.615 201.546,187.615 201.655,188.126 201.763,189.15 201.871,187.487 201.979,187.871 202.087,187.615 202.195,187.487 202.304,187.615 202.412,187.487 202.52,189.79 202.628,187.487 202.736,187.615 202.844,187.487 202.953,187.487 203.061,189.15 203.169,187.615 203.277,187.487 203.385,187.487 203.493,187.615 203.602,187.487 203.71,187.615 203.818,189.15 203.926,189.15 204.034,187.487 204.143,188.126 204.251,187.615 204.359,187.487 204.467,187.615 204.575,187.615 204.683,189.79 204.792,187.615 204.9,187.615 205.008,187.615 205.116,187.615 205.224,187.615 205.332,187.615 205.441,189.15 205.549,187.615 205.657,187.615 205.765,187.871 205.873,187.615 205.981,189.406 206.09,187.615 206.198,187.871 206.306,187.615 206.414,187.615 206.522,187.487 206.63,189.662 206.739,189.662 206.847,189.406 206.955,187.615 207.063,187.615 207.171,187.615 207.279,187.487 207.388,187.871 207.496,187.615 207.604,189.15 207.712,187.487 207.82,187.487 207.928,188.126 208.037,187.871 208.145,187.615 208.253,187.615 208.361,189.15 208.469,189.406 208.578,188.126 208.686,187.615 208.794,187.615 208.902,187.615 209.01,187.487 209.118,189.662 209.227,187.615 209.335,187.487 209.443,187.615 209.551,187.615 209.659,187.615 209.767,188.126 209.876,187.487 209.984,187.615 210.092,189.15 210.2,187.615 210.308,187.615 210.416,187.615 210.525,187.871 210.633,187.487 210.741,187.615 210.849,189.15 210.957,187.871 211.065,187.871 211.174,187.615 211.282,187.487 211.39,187.487 211.498,189.662 211.606,187.615 211.714,187.487 211.823,187.615 211.931,187.615 212.039,187.871 212.147,189.15 212.255,189.406 212.364,187.615 212.472,187.615 212.58,187.615 212.688,187.487 212.796,193.373 212.904,189.406 213.013,189.15 213.121,187.615 213.229,187.871 213.337,187.615 213.445,187.615 213.553,187.615 213.662,187.615 213.77,187.487 213.878,189.662 213.986,189.406 214.094,187.487 214.202,187.615 214.311,187.615 214.419,187.615 214.527,187.871 214.635,187.871 214.743,187.615 214.851,189.406 214.96,189.406 215.068,187.615 215.176,187.871 215.284,187.615 215.392,187.615 215.5,189.15 215.609,188.126 215.717,187.615 215.825,187.615 215.933,187.487 216.041,188.126 216.149,189.15 216.258,189.15 216.366,187.615 216.474,187.615 216.582,188.126 216.69,187.615 216.799,189.15 216.907,187.615 217.015,187.615 217.123,187.871 217.231,193.373 217.339,192.734 217.448,187.615 217.556,172.898 217.664,178.273 217.772,171.362 217.88,176.865 217.988,187.615 218.097,176.481 218.205,198.62 218.313,182.368 218.421,182.368 218.529,187.487 218.637,167.651 218.746,178.273 218.854,162.404 218.962,205.147 219.07,148.327 219.178,205.147 219.286,232.021 219.395,167.011 219.503,174.945 219.611,166.755 219.719,167.523 219.827,187.231 219.935,186.335 220.044,214.489 220.152,181.728 220.26,165.731 220.368,154.726 220.476,182.88 220.584,156.261 220.693,245.586 220.801,149.479 220.909,165.731 221.017,160.484 221.125,148.967 221.234,154.342 221.342,148.967 221.45,209.114 221.558,194.397 221.666,174.305 221.774,157.541 221.883,178.273 221.991,167.011 222.099,161.764 222.207,167.011 222.315,172.898 222.423,167.011 222.532,172.898 222.64,172.898 222.748,161.764 222.856,161.764 222.964,161.764 223.072,167.011 223.181,167.011 223.289,173.41 223.397,160.484 223.505,160.484 223.613,165.475 223.721,160.484 223.83,167.011 223.938,159.972 224.046,159.972 224.154,165.219 224.262,159.972 224.37,171.234 224.479,171.234 224.587,165.475 224.695,165.475 224.803,165.731 224.911,171.618 225.019,165.731 225.128,171.618 225.236,171.234 225.344,165.475 225.452,165.475 225.56,171.234 225.669,165.475 225.777,165.475 225.885,170.978 225.993,162.148 226.101,167.523 226.209,167.011 226.318,172.898 226.426,171.234 226.534,165.475 226.642,171.234 226.75,171.234 226.858,171.234 226.967,171.618 227.075,171.618 227.183,171.234 227.291,171.234 227.399,171.234 227.507,171.234 227.616,172.514 227.724,172.898 227.832,173.41 227.94,173.41 228.048,171.362 228.156,171.234 228.265,165.475 228.373,165.475 228.481,171.234 228.589,171.234 228.697,171.618 228.805,165.731 228.914,171.234 229.022,172.898 229.13,172.898 229.238,172.898 229.346,172.898 229.454,172.898 229.563,172.898 229.671,171.618 229.779,171.618 229.887,171.618 229.995,171.234 230.104,171.234 230.212,171.234 230.32,165.475 230.428,165.475 230.536,165.219 230.644,171.234 230.753,171.234 230.861,171.234 230.969,171.618 231.077,171.234 231.185,172.898 231.293,172.898 231.402,172.898 231.51,172.77 231.618,172.898 231.726,172.898 231.834,167.267 231.942,165.731 232.051,165.475 232.159,165.475 232.267,165.475 232.375,165.475 232.483,171.234 232.591,165.219 232.7,171.234 232.808,171.234 232.916,171.618 233.024,171.618 233.132,171.234 233.24,165.475 233.349,171.362 233.457,167.011 233.565,167.011 233.673,172.898 233.781,167.651 233.889,173.41 233.998,167.523 234.106,173.41 234.214,167.267 234.322,171.234 234.43,171.234 234.538,171.234 234.647,171.234 234.755,171.234 234.863,171.618 234.971,171.618 235.079,171.618 235.188,171.618 235.296,165.987 235.404,171.234 235.512,171.234 235.62,171.234 235.728,171.234 235.837,165.475 235.945,165.475 236.053,165.475 236.161,171.234 236.269,171.234 236.377,171.234 236.486,171.618 236.594,165.731 236.702,165.987 236.81,171.618 236.918,171.234 237.026,171.234 237.135,172.898 237.243,172.898 237.351,172.898 237.459,173.41 237.567,173.41 237.675,173.41 237.784,167.011 237.892,167.267 238,172.898 238.108,161.764 238.216,167.011 238.324,161.764 238.433,161.764 238.541,161.764 238.649,162.02 238.757,161.764 238.865,161.764 238.973,161.764 239.082,162.148 239.19,162.148 239.298,161.252 239.406,161.124 239.514,160.228 239.623,160.228 239.731,162.02 239.839,166.627 239.947,165.475 240.055,159.972 240.163,161.764 240.272,160.228 240.38,159.972 240.488,160.228 240.596,167.011 240.704,162.148 240.812,162.148 240.921,162.148 241.029,162.148 241.137,162.148 241.245,171.234 241.353,172.898 241.461,172.898 241.57,171.234 241.678,171.234 241.786,165.475 241.894,172.898 242.002,172.898 242.11,167.267 242.219,172.898 242.327,171.234 242.435,171.362 242.543,165.731 242.651,171.618 242.759,165.987 242.868,165.987 242.976,171.234 243.084,165.475 243.192,171.234 243.3,171.234 243.408,165.475 243.517,165.475 243.625,165.475 243.733,171.234 243.841,171.234 243.949,165.731 244.058,171.618 244.166,171.362 244.274,165.987 244.382,171.234 244.49,171.234 244.598,171.234 244.707,165.475 244.815,171.234 244.923,165.475 245.031,170.978 245.139,171.618 245.247,172.898 245.356,172.898 245.464,167.267 245.572,171.234 245.68,171.234 245.788,159.972 245.896,160.228 246.005,162.02 246.113,161.764 246.221,161.764 246.329,162.02 246.437,162.148 246.545,162.148 246.654,162.148 246.762,162.148 246.87,162.02 246.978,161.764 247.086,161.764 247.194,161.764 247.303,167.267 247.411,162.02 247.519,161.764 247.627,160.868 247.735,159.972 247.843,160.612 247.952,160.612 248.06,160.612 248.168,160.612 248.276,160.484 248.384,160.612 248.493,160.484 248.601,160.484 248.709,162.02 248.817,162.148 248.925,161.764 249.033,161.764 249.142,162.02 249.25,161.764 249.358,160.228 249.466,162.02 249.574,162.02 249.682,167.011 249.791,161.764 249.899,161.764 250.007,167.011 250.115,161.764 250.223,167.011 250.331,167.011 250.44,165.731 250.548,165.731 250.656,173.41 250.764,167.523 250.872,172.898 250.98,171.234 251.089,165.475 251.197,165.475 251.305,165.219 251.413,171.234 251.521,171.234 251.629,171.234 251.738,171.234 251.846,171.618 251.954,171.618 252.062,165.475 252.17,165.475 252.278,171.234 252.387,171.234 252.495,167.011 252.603,173.41 252.711,165.475 252.819,171.234 252.928,171.234 253.036,171.234 253.144,170.978 253.252,171.234 253.36,171.234 253.468,165.475 253.577,176.481 253.685,165.987 253.793,176.865 253.901,176.481 254.009,176.225 254.117,171.234 254.226,160.484 254.334,163.94 254.442,154.982 254.55,136.937 254.658,218.84 254.766,144.232 254.875,144.872 254.983,188.766 255.091,197.341 255.199,170.594 255.307,169.826 255.415,176.225 255.524,153.19 255.632,147.303 255.74,186.719 255.848,163.684 255.956,146.407 256.064,157.541 256.173,152.294 256.281,157.541 256.389,152.294 256.497,168.547 256.605,152.294 256.714,157.541 256.822,174.433 256.93,173.154 257.038,145.767 257.146,140.904 257.254,140.904 257.363,131.434 257.471,147.943 257.579,147.687 257.687,142.696 257.795,142.696 257.903,142.696 258.012,135.018 258.12,151.398 258.228,248.402 258.336,131.051 258.444,146.151 258.552,129.771 258.661,135.018 258.769,130.795 258.877,141.544 258.985,161.764 259.093,136.681 259.201,120.429 259.31,120.429 259.418,118.253 259.526,113.006 259.634,120.045 259.742,115.182 259.85,120.429 259.959,118.765 260.067,113.518 260.175,118.253 260.283,114.798 260.391,120.045 260.499,120.045 260.608,118.765 260.716,118.765 260.824,118.765 260.932,115.182 261.04,120.045 261.148,118.253 261.257,118.253 261.365,115.182 261.473,120.429 261.581,120.429 261.689,119.405 261.798,113.006 261.906,113.006 262.014,114.798 262.122,120.429 262.23,118.765 262.338,113.518 262.447,113.006 262.555,120.045 262.663,120.045 262.771,118.253 262.879,118.253 262.987,113.518 263.096,115.182 263.204,115.182 263.312,113.006 263.42,113.006 263.528,120.429 263.636,120.429 263.745,120.429 263.853,118.509 263.961,118.253 264.069,114.798 264.177,114.798 264.285,118.765 264.394,113.518 264.502,114.798 264.61,114.798 264.718,113.518 264.826,120.429 264.934,115.182 265.043,114.798 265.151,113.006 265.259,113.006 265.367,120.429 265.475,115.182 265.583,113.518 265.692,118.253 265.8,119.661 265.908,114.798 266.016,115.182 266.124,113.518 266.233,113.518 266.341,120.045 266.449,114.798 266.557,113.006 266.665,113.518 266.773,113.518 266.882,120.429 266.99,115.182 267.098,115.182 267.206,113.006 267.314,118.253 267.422,115.182 267.531,120.429 267.639,115.182 267.747,113.262 267.855,113.006 267.963,120.045 268.071,114.798 268.18,114.798 268.288,113.518 268.396,113.518 268.504,113.518 268.612,114.798 268.72,114.798 268.829,113.006 268.937,113.518 269.045,115.182 269.153,115.182 269.261,120.429 269.369,113.006 269.478,113.006 269.586,120.429 269.694,115.182 269.802,113.518 269.91,113.006 270.018,114.798 270.127,114.798 270.235,114.798 270.343,113.518 270.451,115.054 270.559,114.798 270.668,120.045 270.776,118.253 270.884,115.182 270.992,115.182 271.1,115.182 271.208,118.253 271.317,113.006 271.425,120.429 271.533,120.429 271.641,115.182 271.749,115.182 271.857,118.765 271.966,113.518 272.074,113.518 272.182,120.045 272.29,120.045 272.398,120.045 272.506,118.253 272.615,118.509 272.723,120.045 272.831,115.182 272.939,120.429 273.047,118.253 273.155,118.253 273.264,113.006 273.372,120.045 273.48,120.429 273.588,118.765 273.696,113.518 273.804,118.253 273.913,114.798 274.021,115.182 274.129,113.518 274.237,113.518 274.345,114.798 274.453,120.045 274.562,114.798 274.67,113.006 274.778,113.518 274.886,115.182 274.994,114.798 275.103,114.798 275.211,113.006 275.319,115.182 275.427,115.182 275.535,113.518 275.643,113.006 275.752,113.006 275.86,114.798 275.968,115.182 276.076,120.429 276.184,113.518 276.292,113.518 276.401,118.509 276.509,114.798 276.617,114.798 276.725,114.798 276.833,113.006 276.941,113.518 277.05,115.182 277.158,115.182 277.266,114.798 277.374,113.006 277.482,114.798 277.59,115.182 277.699,115.182 277.807,113.006 277.915,114.798 278.023,115.182 278.131,120.429 278.239,113.518 278.348,118.765 278.456,120.045 278.564,114.798 278.672,114.286 278.78,113.518 278.888,113.518 278.997,115.182 279.105,114.798 279.213,113.006 279.321,113.006 279.429,113.006 279.538,115.182 279.646,115.182 279.754,113.518 279.862,113.006 279.97,114.158 280.078,114.798 280.187,115.182 280.295,118.509 280.403,113.518 280.511,114.798 280.619,114.798 280.727,114.798 280.836,113.006 280.944,113.518 281.052,115.182 281.16,115.182 281.268,114.798 281.376,118.509 281.485,115.182 281.593,115.182 281.701,115.438 281.809,113.518 281.917,113.006 282.025,113.006 282.134,114.798 282.242,114.798 282.35,113.518 282.458,113.518 282.566,115.182 282.674,114.798 282.783,114.798 282.891,114.798 282.999,113.006 283.107,115.182 283.215,115.182 283.323,115.182 283.432,113.006 283.54,118.253 283.648,113.006 283.756,115.182 283.864,115.182 283.973,113.518 284.081,113.518 284.189,114.798 284.297,114.798 284.405,114.798 284.513,113.006 284.622,113.518 284.73,115.182 284.838,114.798 284.946,113.006 285.054,113.006 285.162,113.006 285.271,113.006 285.379,115.182 285.487,115.182 285.595,113.262 285.703,113.006 285.811,114.798 285.92,120.045 286.028,115.182 286.136,113.518 286.244,115.182 286.352,114.798 286.46,113.006 286.569,113.518 286.677,113.518 286.785,115.182 286.893,114.798 287.001,118.253 287.109,113.262 287.218,115.182 287.326,115.182 287.434,115.182 287.542,113.262 287.65,113.518 287.758,114.798 287.867,114.798 287.975,114.798 288.083,113.518 288.191,113.518 288.299,115.182 288.408,114.798 288.516,114.798 288.624,118.253 288.732,113.006 288.84,113.006 288.948,115.182 289.057,115.182 289.165,113.006 289.273,113.006 289.381,113.006 289.489,115.182 289.597,115.054 289.706,113.518 289.814,113.518 289.922,113.518 290.03,113.006 290.138,114.798 290.246,114.798 290.355,120.045 290.463,118.253 290.571,113.518 290.679,118.765 290.787,115.182 290.895,115.182 291.004,114.798 291.112,113.006 291.22,113.006 291.328,113.006 291.436,115.182 291.544,115.182 291.653,113.518 291.761,113.006 291.869,114.798 291.977,114.798 292.085,114.798 292.193,113.518 292.302,113.518 292.41,113.518 292.518,114.798 292.626,114.798 292.734,118.253 292.842,113.006 292.951,113.518 293.059,115.182 293.167,114.798 293.275,113.006 293.383,113.006 293.492,115.182 293.6,115.182 293.708,118.765 293.816,113.006 293.924,114.798 294.032,115.182 294.141,115.182 294.249,118.765 294.357,113.518 294.465,113.518 294.573,114.798 294.681,114.798 294.79,120.045 294.898,118.509 295.006,118.509 295.114,118.253 295.222,115.182 295.33,115.182 295.439,125.804 295.547,118.253 295.655,118.253 295.763,125.292 295.871,141.544 295.979,126.444 296.088,113.006 296.196,137.577 296.304,188.126 296.412,155.365 296.52,104.432 296.628,116.078 296.737,112.622 296.845,106.864 296.953,104.688 297.061,104.432 297.169,121.325 297.277,112.622 297.386,113.262 297.494,122.22 297.602,110.575 297.71,106.864 297.818,106.864 297.927,107.376 298.035,105.84 298.143,105.84 298.251,112.111 298.359,110.831 298.467,98.2895 298.576,121.325 298.684,116.718 298.792,112.367 298.9,113.262 299.008,113.262 299.116,111.983 299.225,94.8342 299.333,113.262 299.441,108.143 299.549,112.111 299.657,95.4741 299.765,102.257 299.874,102.896 299.982,101.233 300.09,101.233 300.198,102.769 300.306,102.513 300.414,100.721 300.523,101.233 300.631,102.896 300.739,102.513 300.847,100.721 300.955,101.233 301.063,102.896 301.172,102.769 301.28,100.721 301.388,102.896 301.496,102.769 301.604,100.977 301.712,100.721 301.821,102.257 301.929,102.896 302.037,101.233 302.145,102.513 302.253,102.257 302.362,101.233 302.47,101.233 302.578,102.896 302.686,102.513 302.794,100.721 302.902,101.233 303.011,102.769 303.119,102.769 303.227,102.769 303.335,100.721 303.443,102.896 303.551,102.769 303.66,102.769 303.768,100.721 303.876,102.257 303.984,102.769 304.092,100.977 304.2,102.513 304.309,102.257 304.417,102.769 304.525,101.233 304.633,102.513 304.741,102.257 304.849,101.233 304.958,102.769 305.066,102.769 305.174,100.721 305.282,100.721 305.39,102.896 305.498,102.769 305.607,100.721 305.715,102.513 305.823,102.896 305.931,102.769 306.039,101.233 306.147,102.257 306.256,102.257 306.364,101.233 306.472,102.769 306.58,102.257 306.688,102.001 306.797,101.233 306.905,102.769 307.013,102.769 307.121,100.465 307.229,100.721 307.337,102.769 307.446,102.769 307.554,101.233 307.662,100.721 307.77,102.257 307.878,102.769 307.986,100.977 308.095,101.233 308.203,102.257 308.311,102.257 308.419,101.233 308.527,101.233 308.635,102.769 308.744,102.257 308.852,101.233 308.96,102.769 309.068,102.769 309.176,100.721 309.284,100.465 309.393,102.769 309.501,102.769 309.609,100.465 309.717,100.721 309.825,102.257 309.933,102.769 310.042,101.233 310.15,102.257 310.258,102.513 310.366,102.769 310.474,101.233 310.582,102.257 310.691,102.257 310.799,102.257 310.907,101.233 311.015,102.769 311.123,102.257 311.232,102.257 311.34,101.233 311.448,102.769 311.556,102.769 311.664,100.465 311.772,100.465 311.881,102.769 311.989,102.896 312.097,100.977 312.205,102.257 312.313,102.769 312.421,101.233 312.53,100.977 312.638,102.257 312.746,102.257 312.854,102.513 312.962,101.233 313.07,102.769 313.179,102.257 313.287,100.721 313.395,102.769 313.503,102.769 313.611,102.769 313.719,100.721 313.828,100.721 313.936,102.769 314.044,102.769 314.152,102.769 314.26,101.233 314.368,100.721 314.477,102.257 314.585,102.769 314.693,101.233 314.801,101.233 314.909,102.257 315.017,102.257 315.126,101.233 315.234,102.001 315.342,102.257 315.45,102.257 315.558,100.721 315.667,102.896 315.775,102.769 315.883,102.896 315.991,100.465 316.099,100.465 316.207,102.769 316.316,102.769 316.424,102.769 316.532,100.977 316.64,102.257 316.748,102.769 316.856,101.233 316.965,101.233 317.073,102.257 317.181,102.257 317.289,102.257 317.397,101.233 317.505,102.769 317.614,102.257 317.722,100.721 317.83,101.233 317.938,102.769 318.046,102.896 318.154,100.721 318.263,102.257 318.371,102.769 318.479,102.769 318.587,100.721 318.695,102.257 318.803,102.896 318.912,101.233 319.02,100.977 319.128,102.257 319.236,102.513 319.344,100.721 319.452,101.233 319.561,102.769 319.669,102.896 319.777,100.721 319.885,102.896 319.993,102.769 320.102,102.769 320.21,100.721 320.318,102.513 320.426,102.769 320.534,101.233 320.642,101.233 320.751,102.257 320.859,102.513 320.967,101.233 321.075,102.896 321.183,102.896 321.291,100.721 321.4,102.896 321.508,102.896 321.616,101.233 321.724,100.721 321.832,102.257 321.94,102.769 322.049,100.977 322.157,101.233 322.265,102.513 322.373,102.513 322.481,101.233 322.589,102.896 322.698,102.769 322.806,102.257 322.914,100.721 323.022,102.769 323.13,102.769 323.238,102.769 323.347,100.721 323.455,102.896 323.563,102.769 323.671,101.233 323.779,100.721 323.887,102.257 323.996,102.769 324.104,101.233 324.212,102.257 324.32,102.257 324.428,101.233 324.537,100.977 324.645,102.769 324.753,102.513 324.861,100.465 324.969,101.233 325.077,102.769 325.186,102.896 325.294,100.721 325.402,100.721 325.51,100.721 325.618,102.257 325.726,102.769 325.835,102.769 325.943,101.233 326.051,102.257 326.159,102.769 326.267,101.233 326.375,101.233 326.484,102.513 326.592,102.257 326.7,101.233 326.808,102.769 326.916,96.6258 327.024,88.9475 327.133,105.072 327.241,91.123 327.349,91.123 327.457,88.9475 327.565,91.123 327.673,96.3699 327.782,105.84 327.89,90.6111 327.998,262.991 328.106,113.518 328.214,135.402 328.322,162.788 328.431,108.015 328.539,150.119 328.647,150.119 328.755,150.119 328.863,107.12 328.972,96.3699 329.08,135.658 329.188,139.113 329.296,139.113 329.404,139.113 329.512,139.369 329.621,98.8014 329.729,109.295 329.837,91.251 329.945,104.304 330.053,80.7572 330.161,82.0369 330.27,92.0188 330.378,93.5545 330.486,93.0426 330.594,86.0041 330.702,77.046 330.81,81.397 330.919,71.9271 331.027,70.2634 331.135,71.9271 331.243,70.0074 331.351,71.9271 331.459,70.0074 331.568,71.9271 331.676,70.3914 331.784,71.9271 331.892,71.9271 332,71.5431 332.108,72.183 332.217,72.183 332.325,71.7991 332.433,70.2634 332.541,71.9271 332.649,70.6473 332.757,71.9271 332.866,72.183 332.974,70.0074 333.082,72.183 333.19,70.0074 333.298,72.183 333.407,72.183 333.515,71.9271 333.623,71.9271 333.731,70.3914 333.839,71.9271 333.947,70.2634 334.056,77.3019 334.164,70.3914 334.272,71.7991 334.38,70.3914 334.488,71.7991 334.596,70.3914 334.705,72.183 334.813,70.3914 334.921,71.9271 335.029,71.9271 335.137,71.9271 335.245,71.9271 335.354,71.5431 335.462,72.183 335.57,70.0074 335.678,71.9271 335.786,70.2634 335.894,71.7991 336.003,71.7991 336.111,71.9271 336.219,71.7991 336.327,70.2634 336.435,71.5431 336.543,70.3914 336.652,72.183 336.76,70.0074 336.868,71.9271 336.976,71.9271 337.084,71.7991 337.192,71.9271 337.301,70.0074 337.409,71.9271 337.517,70.3914 337.625,71.9271 337.733,70.3914 337.842,71.5431 337.95,72.183 338.058,71.9271 338.166,71.7991 338.274,70.2634 338.382,71.9271 338.491,71.7991 338.599,70.3914 338.707,71.9271 338.815,70.0074 338.923,72.183 339.031,71.9271 339.14,71.9271 339.248,72.183 339.356,70.3914 339.464,71.7991 339.572,72.183 339.68,70.3914 339.789,71.7991 339.897,70.3914 340.005,71.5431 340.113,70.3914 340.221,72.183 340.329,71.7991 340.438,72.183 340.546,72.183 340.654,70.0074 340.762,71.9271 340.87,71.9271 340.978,70.0074 341.087,72.183 341.195,70.3914 341.303,71.7991 341.411,72.183 341.519,71.9271 341.627,71.7991 341.736,70.3914 341.844,72.183 341.952,71.5431 342.06,71.9271 342.168,71.7991 342.277,71.9271 342.385,72.183 342.493,70.3914 342.601,71.9271 342.709,70.3914 342.817,71.5431 342.926,72.183 343.034,70.2634 343.142,71.9271 343.25,70.3914 343.358,71.5431 343.466,70.3914 343.575,72.183 343.683,71.7991 343.791,70.2634 343.899,71.9271 344.007,70.9033 344.115,77.3019 344.224,71.9271 344.332,71.7991 344.44,72.183 344.548,70.0074 344.656,71.9271 344.764,70.3914 344.873,72.183 344.981,70.2634 345.089,71.9271 345.197,71.7991 345.305,72.183 345.413,71.5431 345.522,70.2634 345.63,71.9271 345.738,70.0074 345.846,71.9271 345.954,72.183 346.062,71.5431 346.171,71.9271 346.279,70.2634 346.387,72.183 346.495,71.9271 346.603,71.7991 346.712,71.9271 346.82,70.3914 346.928,71.5431 347.036,70.3914 347.144,71.9271 347.252,71.7991 347.361,72.183 347.469,71.9271 347.577,70.3914 347.685,71.9271 347.793,70.0074 347.901,71.9271 348.01,70.3914 348.118,71.9271 348.226,72.183 348.334,70.3914 348.442,71.7991 348.55,70.2634 348.659,71.5431 348.767,70.3914 348.875,71.9271 348.983,71.5431 349.091,71.9271 349.199,71.9271 349.308,70.0074 349.416,72.183 349.524,70.0074 349.632,71.9271 349.74,71.9271 349.848,71.5431 349.957,71.9271 350.065,70.3914 350.173,72.183 350.281,70.2634 350.389,71.7991 350.497,72.183 350.606,71.9271 350.714,71.7991 350.822,70.2634 350.93,71.9271 351.038,70.0074 351.147,71.9271 351.255,72.183 351.363,70.0074 351.471,71.9271 351.579,72.183 351.687,70.0074 351.796,72.183 351.904,70.3914 352.012,71.7991 352.12,71.9271 352.228,71.9271 352.336,72.183 352.445,70.3914 352.553,71.7991 352.661,71.9271 352.769,72.183 352.877,72.183 352.985,70.2634 353.094,72.183 353.202,71.9271 353.31,70.3914 353.418,71.9271 353.526,70.0074 353.634,71.9271 353.743,71.9271 353.851,70.2634 353.959,71.9271 354.067,71.9271 354.175,71.7991 354.283,72.183 354.392,70.3914 354.5,71.5431 354.608,70.2634 354.716,72.183 354.824,71.9271 354.932,71.9271 355.041,71.7991 355.149,70.3914 355.257,71.9271 355.365,70.0074 355.473,71.9271 355.582,72.183 355.69,72.183 355.798,72.183 355.906,70.0074 356.014,71.9271 356.122,71.9271 356.231,71.7991 356.339,71.9271 356.447,70.3914 356.555,71.9271 356.663,71.7991 356.771,70.3914 356.88,72.183 356.988,71.7991 357.096,71.9271 357.204,71.9271 357.312,70.3914 357.42,72.183 357.529,70.0074 357.637,71.9271 357.745,70.0074 357.853,72.183 357.961,70.2634 358.069,71.9271 358.178,70.3914 358.286,71.7991 358.394,70.3914 358.502,71.9271 358.61,72.183 358.718,71.9271 358.827,71.7991 358.935,71.9271 359.043,72.183 359.151,70.0074 359.259,72.183 359.367,71.5431 359.476,72.183 359.584,72.183 359.692,71.9271 359.8,71.7991 359.908,71.9271 360.017,72.183 360.125,71.7991 360.233,75.7662 360.341,72.183 360.449,70.0074 360.557,72.183 360.666,72.183 360.774,71.7991 360.882,71.9271 360.99,70.2634 361.098,71.9271 361.206,72.183 361.315,71.9271 361.423,70.3914 361.531,71.5431 361.639,70.6473 361.747,71.7991 361.855,72.183 361.964,71.9271 362.072,70.9033 362.18,72.183 362.288,70.0074 362.396,72.183 362.504,70.3914 362.613,71.7991 362.721,72.183 362.829,71.9271 362.937,71.5431 363.045,70.9033 363.153,71.5431 363.262,71.9271 363.37,72.183 363.478,72.183 363.586,71.9271 363.694,70.9033 363.802,71.9271 363.911,70.3914 364.019,71.7991 364.127,71.9271 364.235,72.183 364.343,71.7991 364.452,71.9271 364.56,71.9271 364.668,71.9271 364.776,71.9271 364.884,71.5431 364.992,72.183 365.101,72.183 365.209,70.0074 365.317,72.183 365.425,70.2634 365.533,71.7991 365.641,72.183 365.75,71.9271 365.858,71.9271 365.966,71.9271 366.074,71.5431 366.182,70.3914 366.29,71.5431 366.399,70.2634 366.507,71.9271 366.615,71.5431 366.723,72.183 366.831,72.183 366.939,70.0074 367.048,71.9271 367.156,71.9271 367.264,71.5431 367.372,72.183 367.48,70.3914 367.588,71.7991 367.697,71.9271 367.805,71.9271 367.913,71.7991 368.021,70.3914 368.129,71.9271 368.237,71.7991 368.346,72.183 368.454,71.7991 368.562,70.0074 368.67,71.9271 368.778,70.0074 368.887,71.9271 368.995,71.1592 369.103,71.7991 369.211,71.9271 369.319,70.3914 369.427,71.5431 369.536,71.1592 369.644,71.5431 369.752,71.9271 369.86,72.183" stroke-linejoin="round"/>
  </g>
  <clipPath id="cp00418314">
   <polygon points="0,314 418,314 418,0 0,0"/>
  </clipPath>
  <g clip-path="url(#cp00418314)">
   <polygon fill="#ffffff" points="300.478,47.9341 370.953,47.9341 370.953,31.547 300.478,31.547" shape-rendering="crispEdges"/>
   <polyline fill="none" stroke-linecap="square" stroke-width="0.5" stroke-dasharray="16,0" stroke="#262626" points="300.478,47.9341 370.953,47.9341" stroke-linejoin="miter"/>
   <polyline fill="none" stroke-linecap="square" stroke-width="0.5" stroke-dasharray="16,0" stroke="#262626" points="300.478,31.547 370.953,31.547" stroke-linejoin="miter"/>
   <polyline fill="none" stroke-linecap="square" stroke-width="0.5" stroke-dasharray="16,0" stroke="#262626" points="300.478,47.9341 300.478,31.547" stroke-linejoin="miter"/>
   <polyline fill="none" stroke-linecap="square" stroke-width="0.5" stroke-dasharray="16,0" stroke="#262626" points="370.953,47.9341 370.953,31.547" stroke-linejoin="miter"/>
   <polyline fill="none" stroke-linecap="butt" stroke-width="0.5" stroke="#0071bc" points="304.475,39.7406 324.459,39.7406" stroke-linejoin="round"/>
   <g font-weight="normal" font-size="9" xml:space="preserve" font-family="FreeSans" transform="translate(328.456,44.2406) rotate(-0,-0,-4.5)" font-style="normal">
    <text fill="rgb(0,0,0)" x="0 5 7 10 13 18 22 27 32 34 " y="-1">ultrasonic</text>
   </g>
  </g>
 </g>
</svg>
