<?xml version='1.0' encoding='UTF-8' standalone='no'?>
<svg viewBox="0 0 418 314" height="314pt" xmlns="http://www.w3.org/2000/svg" xmlns:xlink="http://www.w3.org/1999/xlink" width="418pt">
 <title>Figure 1</title>
 <desc>
Creator: GL2PS 1.4.2, (C) 1999-2020 C. Geuzaine
For: Octave
CreationDate: Wed Mar 12 14:10:10 2025
</desc>
 <defs/>
 <polygon fill="#ffffff" points="0,0 418,0 418,314 0,314"/>
 <g>
  <polygon fill="#ffffff" shape-rendering="crispEdges" points="0,314 418,314 418,0 0,0"/>
  <clipPath id="cp00418314">
   <polygon points="0,314 418,314 418,0 0,0"/>
  </clipPath>
  <g clip-path="url(#cp00418314)">
   <polygon fill="#ffffff" shape-rendering="crispEdges" points="54.4343,279.499 378.946,279.499 378.946,23.5533 54.4343,23.5533"/>
   <polyline fill="none" stroke-dasharray="16,0" stroke-linecap="butt" stroke-opacity="0.15" stroke-width="0.5" stroke-linejoin="miter" stroke="#262626" points="54.4343,279.499 54.4343,23.5533"/>
   <polyline fill="none" stroke-dasharray="16,0" stroke-linecap="butt" stroke-opacity="0.15" stroke-width="0.5" stroke-linejoin="miter" stroke="#262626" points="119.337,279.499 119.337,23.5533"/>
   <polyline fill="none" stroke-dasharray="16,0" stroke-linecap="butt" stroke-opacity="0.15" stroke-width="0.5" stroke-linejoin="miter" stroke="#262626" points="184.239,279.499 184.239,23.5533"/>
   <polyline fill="none" stroke-dasharray="16,0" stroke-linecap="butt" stroke-opacity="0.15" stroke-width="0.5" stroke-linejoin="miter" stroke="#262626" points="249.142,279.499 249.142,23.5533"/>
   <polyline fill="none" stroke-dasharray="16,0" stroke-linecap="butt" stroke-opacity="0.15" stroke-width="0.5" stroke-linejoin="miter" stroke="#262626" points="314.044,279.499 314.044,23.5533"/>
   <polyline fill="none" stroke-dasharray="16,0" stroke-linecap="butt" stroke-opacity="0.15" stroke-width="0.5" stroke-linejoin="miter" stroke="#262626" points="378.946,279.499 378.946,23.5533"/>
   <polyline fill="none" stroke-linecap="butt" stroke-width="0.5" stroke-linejoin="miter" stroke="#262626" points="54.4343,279.499 54.4343,276.255"/>
   <polyline fill="none" stroke-linecap="butt" stroke-width="0.5" stroke-linejoin="miter" stroke="#262626" points="119.337,279.499 119.337,276.255"/>
   <polyline fill="none" stroke-linecap="butt" stroke-width="0.5" stroke-linejoin="miter" stroke="#262626" points="184.239,279.499 184.239,276.255"/>
   <polyline fill="none" stroke-linecap="butt" stroke-width="0.5" stroke-linejoin="miter" stroke="#262626" points="249.142,279.499 249.142,276.255"/>
   <polyline fill="none" stroke-linecap="butt" stroke-width="0.5" stroke-linejoin="miter" stroke="#262626" points="314.044,279.499 314.044,276.255"/>
   <polyline fill="none" stroke-linecap="butt" stroke-width="0.5" stroke-linejoin="miter" stroke="#262626" points="378.946,279.499 378.946,276.255"/>
   <g font-style="normal" transform="translate(51.4343,294.998) rotate(-0,3,-8)" font-weight="normal" font-family="FreeSans" font-size="10" xml:space="preserve">
    <text y="-0" fill="rgb(38,38,38)" x="0 ">0</text>
   </g>
   <g font-style="normal" transform="translate(110.337,294.998) rotate(-0,9,-8)" font-weight="normal" font-family="FreeSans" font-size="10" xml:space="preserve">
    <text y="-0" fill="rgb(38,38,38)" x="0 6 12 ">500</text>
   </g>
   <g font-style="normal" transform="translate(172.239,294.998) rotate(-0,12,-8)" font-weight="normal" font-family="FreeSans" font-size="10" xml:space="preserve">
    <text y="-0" fill="rgb(38,38,38)" x="0 6 12 18 ">1000</text>
   </g>
   <g font-style="normal" transform="translate(237.142,294.998) rotate(-0,12,-8)" font-weight="normal" font-family="FreeSans" font-size="10" xml:space="preserve">
    <text y="-0" fill="rgb(38,38,38)" x="0 6 12 18 ">1500</text>
   </g>
   <g font-style="normal" transform="translate(302.044,294.998) rotate(-0,12,-8)" font-weight="normal" font-family="FreeSans" font-size="10" xml:space="preserve">
    <text y="-0" fill="rgb(38,38,38)" x="0 6 12 18 ">2000</text>
   </g>
   <g font-style="normal" transform="translate(366.946,294.998) rotate(-0,12,-8)" font-weight="normal" font-family="FreeSans" font-size="10" xml:space="preserve">
    <text y="-0" fill="rgb(38,38,38)" x="0 6 12 18 ">2500</text>
   </g>
   <polyline fill="none" stroke-dasharray="16,0" stroke-linecap="butt" stroke-opacity="0.15" stroke-width="0.5" stroke-linejoin="miter" stroke="#262626" points="54.4343,279.499 378.946,279.499"/>
   <polyline fill="none" stroke-dasharray="16,0" stroke-linecap="butt" stroke-opacity="0.15" stroke-width="0.5" stroke-linejoin="miter" stroke="#262626" points="54.4343,242.935 378.946,242.935"/>
   <polyline fill="none" stroke-dasharray="16,0" stroke-linecap="butt" stroke-opacity="0.15" stroke-width="0.5" stroke-linejoin="miter" stroke="#262626" points="54.4343,206.372 378.946,206.372"/>
   <polyline fill="none" stroke-dasharray="16,0" stroke-linecap="butt" stroke-opacity="0.15" stroke-width="0.5" stroke-linejoin="miter" stroke="#262626" points="54.4343,169.808 378.946,169.808"/>
   <polyline fill="none" stroke-dasharray="16,0" stroke-linecap="butt" stroke-opacity="0.15" stroke-width="0.5" stroke-linejoin="miter" stroke="#262626" points="54.4343,133.244 378.946,133.244"/>
   <polyline fill="none" stroke-dasharray="16,0" stroke-linecap="butt" stroke-opacity="0.15" stroke-width="0.5" stroke-linejoin="miter" stroke="#262626" points="54.4343,96.6807 378.946,96.6807"/>
   <polyline fill="none" stroke-dasharray="16,0" stroke-linecap="butt" stroke-opacity="0.15" stroke-width="0.5" stroke-linejoin="miter" stroke="#262626" points="54.4343,60.117 378.946,60.117"/>
   <polyline fill="none" stroke-dasharray="16,0" stroke-linecap="butt" stroke-opacity="0.15" stroke-width="0.5" stroke-linejoin="miter" stroke="#262626" points="54.4343,23.5533 378.946,23.5533"/>
   <polyline fill="none" stroke-linecap="butt" stroke-width="0.5" stroke-linejoin="miter" stroke="#262626" points="54.4343,279.499 57.6745,279.499"/>
   <polyline fill="none" stroke-linecap="butt" stroke-width="0.5" stroke-linejoin="miter" stroke="#262626" points="54.4343,242.935 57.6745,242.935"/>
   <polyline fill="none" stroke-linecap="butt" stroke-width="0.5" stroke-linejoin="miter" stroke="#262626" points="54.4343,206.372 57.6745,206.372"/>
   <polyline fill="none" stroke-linecap="butt" stroke-width="0.5" stroke-linejoin="miter" stroke="#262626" points="54.4343,169.808 57.6745,169.808"/>
   <polyline fill="none" stroke-linecap="butt" stroke-width="0.5" stroke-linejoin="miter" stroke="#262626" points="54.4343,133.244 57.6745,133.244"/>
   <polyline fill="none" stroke-linecap="butt" stroke-width="0.5" stroke-linejoin="miter" stroke="#262626" points="54.4343,96.6807 57.6745,96.6807"/>
   <polyline fill="none" stroke-linecap="butt" stroke-width="0.5" stroke-linejoin="miter" stroke="#262626" points="54.4343,60.117 57.6745,60.117"/>
   <polyline fill="none" stroke-linecap="butt" stroke-width="0.5" stroke-linejoin="miter" stroke="#262626" points="54.4343,23.5533 57.6745,23.5533"/>
   <g font-style="normal" transform="translate(43.4418,283.499) rotate(-0,6,-4)" font-weight="normal" font-family="FreeSans" font-size="10" xml:space="preserve">
    <text y="-0" fill="rgb(38,38,38)" x="0 ">0</text>
   </g>
   <g font-style="normal" transform="translate(43.4418,246.935) rotate(-0,6,-4)" font-weight="normal" font-family="FreeSans" font-size="10" xml:space="preserve">
    <text y="-0" fill="rgb(38,38,38)" x="0 ">2</text>
   </g>
   <g font-style="normal" transform="translate(43.4418,210.372) rotate(-0,6,-4)" font-weight="normal" font-family="FreeSans" font-size="10" xml:space="preserve">
    <text y="-0" fill="rgb(38,38,38)" x="0 ">4</text>
   </g>
   <g font-style="normal" transform="translate(43.4418,173.808) rotate(-0,6,-4)" font-weight="normal" font-family="FreeSans" font-size="10" xml:space="preserve">
    <text y="-0" fill="rgb(38,38,38)" x="0 ">6</text>
   </g>
   <g font-style="normal" transform="translate(43.4418,137.244) rotate(-0,6,-4)" font-weight="normal" font-family="FreeSans" font-size="10" xml:space="preserve">
    <text y="-0" fill="rgb(38,38,38)" x="0 ">8</text>
   </g>
   <g font-style="normal" transform="translate(37.4418,100.681) rotate(-0,12,-4)" font-weight="normal" font-family="FreeSans" font-size="10" xml:space="preserve">
    <text y="-0" fill="rgb(38,38,38)" x="0 6 ">10</text>
   </g>
   <g font-style="normal" transform="translate(37.4418,64.117) rotate(-0,12,-4)" font-weight="normal" font-family="FreeSans" font-size="10" xml:space="preserve">
    <text y="-0" fill="rgb(38,38,38)" x="0 6 ">12</text>
   </g>
   <g font-style="normal" transform="translate(37.4418,27.5533) rotate(-0,12,-4)" font-weight="normal" font-family="FreeSans" font-size="10" xml:space="preserve">
    <text y="-0" fill="rgb(38,38,38)" x="0 6 ">14</text>
   </g>
   <polyline fill="none" stroke-dasharray="16,0" stroke-linecap="square" stroke-width="0.5" stroke-linejoin="miter" stroke="#262626" points="54.4343,279.499 378.946,279.499"/>
   <polyline fill="none" stroke-dasharray="16,0" stroke-linecap="square" stroke-width="0.5" stroke-linejoin="miter" stroke="#262626" points="54.4343,279.499 54.4343,23.5533"/>
   <g font-style="normal" transform="translate(203.69,309.998) rotate(-0,13,-10)" font-weight="normal" font-family="FreeSans" font-size="11" xml:space="preserve">
    <text y="-1" fill="rgb(38,38,38)" x="0 3 9 15 21 ">Index</text>
   </g>
   <g font-style="normal" transform="translate(18.9418,151.526) rotate(-90,13.5,0)" font-weight="normal" font-family="FreeSans" font-size="11" xml:space="preserve">
    <text y="-1" fill="rgb(38,38,38)" x="0 7 13 15 21 ">Value</text>
   </g>
   <g font-style="normal" transform="translate(179.19,13.5533) rotate(-0,37.5,0)" font-weight="bold" font-family="FreeSans" font-size="11" xml:space="preserve">
    <text y="-1" fill="rgb(0,0,0)" x="0 7 13 20 26 33 37 40 47 53 56 63 69 ">Sensor Values</text>
   </g>
   <polyline fill="none" stroke-linecap="butt" stroke-width="0.5" stroke-linejoin="round" stroke="#0071bc" points="54.5641,278.037 54.6939,278.037 54.8237,278.037 54.9535,278.037 55.0833,277.123 55.2131,277.488 55.3429,277.854 55.4727,277.854 55.6025,278.402 55.7323,277.854 55.8621,278.037 55.9919,278.037 56.1217,278.037 56.2516,277.854 56.3814,278.951 56.5112,277.488 56.641,277.854 56.7708,278.037 56.9006,276.757 57.0304,277.123 57.1602,277.854 57.29,277.854 57.4198,278.037 57.5496,277.854 57.6794,277.488 57.8092,277.854 57.939,277.854 58.0688,278.402 58.1986,277.854 58.3284,277.854 58.4582,278.037 58.588,277.488 58.7178,277.488 58.8476,278.037 58.9775,277.854 59.1073,278.037 59.2371,277.488 59.3669,277.488 59.4967,278.037 59.6265,278.037 59.7563,277.488 59.8861,278.037 60.0159,277.854 60.1457,274.015 60.2755,267.433 60.4053,258.109 60.5351,266.519 60.6649,193.757 60.7947,253.356 60.9245,166.7 61.0543,252.99 61.1841,236.72 61.3139,238.182 61.4438,250.797 61.5736,246.043 61.7034,246.043 61.8332,245.861 61.963,246.043 62.0928,245.861 62.2226,246.043 62.3524,261.4 62.4822,245.861 62.612,245.861 62.7418,246.043 62.8716,245.129 63.0014,246.043 63.1312,246.043 63.261,245.861 63.3908,246.043 63.5206,246.043 63.6504,246.043 63.7802,245.129 63.91,245.861 64.0398,254.27 64.1696,254.27 64.2995,245.861 64.4293,261.766 64.5591,254.27 64.6889,245.129 64.8187,243.301 64.9485,245.861 65.0783,245.861 65.2081,245.861 65.3379,253.905 65.4677,246.043 65.5975,245.129 65.7273,246.043 65.8571,243.301 65.9869,246.043 66.1167,245.129 66.2465,246.043 66.3763,243.301 66.5061,245.861 66.6359,243.301 66.7658,254.27 66.8956,246.043 67.0254,245.495 67.1552,245.861 67.285,261.217 67.4148,245.861 67.5446,245.861 67.6744,245.861 67.8042,246.043 67.934,243.301 68.0638,246.043 68.1936,258.658 68.3234,246.043 68.4532,242.935 68.583,245.861 68.7128,243.301 68.8426,245.861 68.9724,243.301 69.1022,246.043 69.232,246.043 69.3618,245.495 69.4916,246.043 69.6215,246.043 69.7513,243.301 69.8811,261.766 70.0109,245.861 70.1407,246.043 70.2705,245.495 70.4003,245.861 70.5301,245.495 70.6599,246.043 70.7897,258.658 70.9195,245.861 71.0493,243.667 71.1791,246.043 71.3089,243.667 71.4387,246.043 71.5685,246.043 71.6983,246.043 71.8281,246.043 71.9579,246.043 72.0877,246.043 72.2175,246.043 72.3474,254.27 72.4772,245.495 72.607,246.043 72.7368,245.861 72.8666,246.043 72.9964,246.043 73.1262,245.861 73.256,246.043 73.3858,246.043 73.5156,261.4 73.6454,245.495 73.7752,246.043 73.905,245.495 74.0348,261.766 74.1646,245.861 74.2944,243.301 74.4242,261.217 74.554,245.861 74.6838,245.129 74.8137,246.043 74.9435,245.495 75.0733,246.043 75.2031,246.043 75.3329,246.043 75.4627,245.861 75.5925,245.861 75.7223,246.043 75.8521,246.043 75.9819,246.043 76.1117,245.495 76.2415,246.043 76.3713,245.495 76.5011,246.043 76.6309,245.495 76.7607,246.043 76.8905,245.495 77.0203,243.667 77.1501,245.129 77.2799,246.043 77.4097,245.861 77.5395,244.946 77.6693,246.043 77.7992,243.667 77.929,246.043 78.0588,243.85 78.1886,246.043 78.3184,245.861 78.4482,246.043 78.578,261.766 78.7078,246.043 78.8376,245.129 78.9674,245.861 79.0972,245.129 79.227,246.043 79.3568,245.495 79.4866,246.043 79.6164,245.129 79.7462,245.861 79.876,245.129 80.0058,245.861 80.1357,246.043 80.2655,245.495 80.3952,246.043 80.5251,245.861 80.6549,245.861 80.7847,246.043 80.9145,246.043 81.0443,245.495 81.1741,246.043 81.3039,246.043 81.4337,246.043 81.5635,246.043 81.6933,246.043 81.8231,254.27 81.9529,254.27 82.0827,246.043 82.2125,245.861 82.3423,245.861 82.4721,245.495 82.6019,245.861 82.7317,245.861 82.8615,245.861 82.9914,246.043 83.1212,246.043 83.251,245.861 83.3808,253.722 83.5106,246.043 83.6404,245.495 83.7702,246.043 83.9,246.043 84.0298,246.043 84.1596,246.043 84.2894,254.27 84.4192,245.861 84.549,245.861 84.6788,246.043 84.8086,245.861 84.9384,245.861 85.0682,242.935 85.198,245.861 85.3278,242.935 85.4576,246.043 85.5874,243.667 85.7172,246.043 85.8471,251.711 85.9769,246.043 86.1067,246.043 86.2365,246.043 86.3663,245.495 86.4961,245.129 86.6259,245.861 86.7557,245.495 86.8855,245.861 87.0153,246.043 87.1451,246.043 87.2749,245.861 87.4047,246.043 87.5345,246.043 87.6643,246.043 87.7941,245.861 87.9239,245.861 88.0537,243.667 88.1835,245.861 88.3133,254.27 88.4431,246.043 88.573,254.27 88.7028,245.861 88.8326,245.861 88.9624,246.043 89.0922,254.27 89.222,246.043 89.3518,254.27 89.4816,245.861 89.6114,246.043 89.7412,246.043 89.871,261.766 90.0008,245.861 90.1306,245.861 90.2604,245.495 90.3902,245.861 90.52,245.129 90.6498,246.043 90.7796,245.495 90.9094,246.043 91.0393,246.043 91.1691,245.861 91.2989,246.043 91.4287,246.043 91.5585,246.043 91.6883,246.043 91.8181,246.043 91.9479,245.861 92.0777,245.861 92.2075,246.043 92.3373,254.27 92.4671,245.861 92.5969,245.861 92.7267,254.27 92.8565,253.722 92.9863,245.861 93.1161,261.217 93.2459,254.27 93.3757,245.861 93.5055,254.27 93.6354,245.861 93.7651,245.861 93.895,245.861 94.0248,246.043 94.1546,246.043 94.2844,246.043 94.4142,245.861 94.544,245.861 94.6738,246.043 94.8036,243.667 94.9334,245.861 95.0632,245.861 95.193,245.861 95.3228,245.861 95.4526,246.043 95.5824,254.27 95.7122,253.356 95.842,245.861 95.9718,254.27 96.1016,245.861 96.2314,245.861 96.3613,245.861 96.4911,246.043 96.6209,253.722 96.7507,246.043 96.8805,245.495 97.0103,245.861 97.1401,253.722 97.2699,245.861 97.3997,245.861 97.5295,245.861 97.6593,245.861 97.7891,245.861 97.9189,246.043 98.0487,245.495 98.1785,246.043 98.3083,245.861 98.4381,245.861 98.5679,245.861 98.6977,254.27 98.8275,245.861 98.9573,246.043 99.0872,246.043 99.217,253.722 99.3468,246.043 99.4766,253.905 99.6064,254.27 99.7362,246.043 99.866,245.129 99.9958,245.861 100.126,245.495 100.255,245.861 100.385,243.85 100.515,245.861 100.645,245.129 100.775,245.861 100.904,245.129 101.034,246.043 101.164,246.043 101.294,246.043 101.424,246.043 101.553,243.301 101.683,245.861 101.813,243.667 101.943,254.27 102.073,245.861 102.202,246.043 102.332,246.043 102.462,246.043 102.592,253.722 102.722,246.043 102.851,245.861 102.981,245.861 103.111,245.861 103.241,245.861 103.371,246.043 103.501,245.861 103.63,246.043 103.76,245.129 103.89,246.043 104.02,246.043 104.15,246.043 104.279,261.766 104.409,245.861 104.539,246.043 104.669,245.129 104.799,246.043 104.928,246.043 105.058,246.043 105.188,245.861 105.318,246.043 105.448,246.043 105.577,246.043 105.707,246.043 105.837,246.043 105.967,254.27 106.097,251.711 106.226,245.861 106.356,243.667 106.486,246.043 106.616,242.753 106.746,246.043 106.875,245.495 107.005,245.861 107.135,245.129 107.265,245.861 107.395,246.043 107.524,245.861 107.654,254.27 107.784,246.043 107.914,246.043 108.044,245.495 108.173,245.861 108.303,246.043 108.433,246.043 108.563,254.27 108.693,246.043 108.823,246.043 108.952,246.043 109.082,246.043 109.212,246.043 109.342,245.861 109.472,254.27 109.601,245.861 109.731,246.043 109.861,253.722 109.991,254.27 110.121,245.861 110.25,246.043 110.38,254.27 110.51,246.043 110.64,246.043 110.77,245.861 110.899,254.27 111.029,245.861 111.159,245.861 111.289,253.722 111.419,259.206 111.548,245.495 111.678,245.861 111.808,253.722 111.938,246.043 112.068,245.495 112.197,246.043 112.327,251.162 112.457,246.043 112.587,245.495 112.717,254.27 112.846,246.043 112.976,246.043 113.106,245.861 113.236,246.043 113.366,246.043 113.495,246.043 113.625,246.043 113.755,245.495 113.885,246.043 114.015,246.043 114.145,245.861 114.274,246.043 114.404,245.495 114.534,245.861 114.664,246.043 114.794,246.043 114.923,246.043 115.053,246.043 115.183,246.043 115.313,243.667 115.443,246.043 115.572,246.043 115.702,246.043 115.832,245.861 115.962,246.043 116.092,246.043 116.221,246.043 116.351,245.861 116.481,245.861 116.611,245.495 116.741,246.043 116.87,245.495 117,246.043 117.13,246.043 117.26,251.711 117.39,246.043 117.519,245.861 117.649,245.495 117.779,245.861 117.909,253.905 118.039,246.043 118.168,246.043 118.298,245.861 118.428,245.861 118.558,245.861 118.688,246.043 118.817,246.043 118.947,245.861 119.077,254.27 119.207,246.043 119.337,245.861 119.467,246.043 119.596,254.27 119.726,253.722 119.856,246.043 119.986,253.722 120.116,246.043 120.245,246.043 120.375,254.27 120.505,254.27 120.635,253.722 120.765,246.043 120.894,246.043 121.024,254.27 121.154,246.043 121.284,246.043 121.414,246.043 121.543,246.043 121.673,253.905 121.803,246.043 121.933,245.861 122.063,245.861 122.192,246.043 122.322,243.301 122.452,246.043 122.582,245.861 122.712,246.043 122.841,245.129 122.971,245.861 123.101,245.495 123.231,254.27 123.361,254.27 123.49,245.861 123.62,245.861 123.75,246.043 123.88,246.043 124.01,246.043 124.139,246.043 124.269,254.27 124.399,243.667 124.529,254.27 124.659,246.043 124.789,246.043 124.918,245.861 125.048,245.861 125.178,245.495 125.308,246.043 125.438,253.905 125.567,254.27 125.697,246.043 125.827,245.861 125.957,245.861 126.087,253.722 126.216,254.27 126.346,254.27 126.476,245.861 126.606,246.043 126.736,244.946 126.865,254.27 126.995,253.722 127.125,246.043 127.255,245.495 127.385,245.861 127.514,246.043 127.644,253.905 127.774,246.043 127.904,246.043 128.034,245.861 128.163,245.861 128.293,246.043 128.423,251.711 128.553,246.043 128.683,251.162 128.812,246.043 128.942,251.162 129.072,254.27 129.202,251.528 129.332,246.043 129.461,254.27 129.591,245.861 129.721,246.043 129.851,246.043 129.981,246.043 130.111,245.495 130.24,245.861 130.37,246.043 130.5,254.27 130.63,246.043 130.76,246.043 130.889,246.043 131.019,245.495 131.149,245.861 131.279,245.129 131.409,245.861 131.538,245.861 131.668,245.861 131.798,246.043 131.928,246.043 132.058,254.27 132.187,245.495 132.317,254.27 132.447,246.043 132.577,251.711 132.707,246.043 132.836,246.043 132.966,246.043 133.096,245.495 133.226,245.861 133.356,253.722 133.485,243.301 133.615,246.043 133.745,246.043 133.875,245.495 134.005,245.861 134.134,245.495 134.264,246.043 134.394,246.043 134.524,254.27 134.654,246.043 134.783,245.861 134.913,246.043 135.043,246.043 135.173,243.667 135.303,245.861 135.432,246.043 135.562,245.861 135.692,254.27 135.822,245.861 135.952,245.861 136.082,245.495 136.211,251.711 136.341,245.861 136.471,246.043 136.601,246.043 136.731,245.861 136.86,246.043 136.99,258.658 137.12,245.861 137.25,246.043 137.38,245.861 137.509,246.043 137.639,254.27 137.769,243.667 137.899,245.495 138.029,243.667 138.158,246.043 138.288,246.043 138.418,245.861 138.548,245.861 138.678,246.043 138.807,245.861 138.937,253.905 139.067,246.043 139.197,246.043 139.327,245.861 139.456,243.667 139.586,245.495 139.716,243.667 139.846,253.722 139.976,243.667 140.105,246.043 140.235,244.215 140.365,245.861 140.495,246.043 140.625,246.043 140.755,242.935 140.884,245.861 141.014,243.301 141.144,245.861 141.274,245.861 141.404,246.043 141.533,254.27 141.663,245.861 141.793,246.043 141.923,245.861 142.053,246.043 142.182,245.495 142.312,246.043 142.442,246.043 142.572,246.043 142.702,246.043 142.831,246.043 142.961,243.667 143.091,254.27 143.221,251.528 143.351,245.861 143.48,246.043 143.61,246.043 143.74,246.043 143.87,246.043 144,261.766 144.129,253.722 144.259,253.905 144.389,261.766 144.519,259.206 144.649,245.861 144.778,243.667 144.908,246.043 145.038,242.935 145.168,245.861 145.298,245.861 145.427,245.861 145.557,245.129 145.687,246.043 145.817,253.722 145.947,246.043 146.076,246.043 146.206,261.766 146.336,246.043 146.466,245.861 146.596,246.043 146.726,245.495 146.855,254.27 146.985,245.861 147.115,246.043 147.245,246.043 147.375,246.043 147.504,246.043 147.634,245.129 147.764,246.043 147.894,246.043 148.024,251.528 148.153,245.129 148.283,251.711 148.413,253.356 148.543,243.301 148.673,253.722 148.802,259.023 148.932,246.043 149.062,251.711 149.192,246.043 149.322,246.043 149.451,246.043 149.581,243.667 149.711,245.861 149.841,246.043 149.971,246.043 150.1,243.301 150.23,246.043 150.36,245.129 150.49,245.495 150.62,245.861 150.749,245.129 150.879,261.766 151.009,246.043 151.139,243.301 151.269,261.766 151.398,242.935 151.528,245.861 151.658,245.495 151.788,254.27 151.918,246.043 152.048,245.861 152.177,253.905 152.307,246.043 152.437,246.043 152.567,253.722 152.697,245.861 152.826,245.129 152.956,246.043 153.086,245.495 153.216,246.043 153.346,246.043 153.475,246.043 153.605,246.043 153.735,246.043 153.865,244.215 153.995,246.043 154.124,243.667 154.254,245.495 154.384,246.043 154.514,245.495 154.644,246.043 154.773,245.495 154.903,246.043 155.033,246.043 155.163,245.861 155.293,246.043 155.422,246.043 155.552,246.043 155.682,245.861 155.812,243.667 155.942,246.043 156.071,246.043 156.201,246.043 156.331,246.043 156.461,246.043 156.591,245.861 156.72,245.495 156.85,246.043 156.98,254.27 157.11,261.766 157.24,261.766 157.37,245.861 157.499,261.766 157.629,245.495 157.759,245.861 157.889,245.861 158.019,253.356 158.148,269.261 158.278,275.843 158.408,258.292 158.538,263.594 158.668,238.182 158.797,275.66 158.927,246.775 159.057,251.162 159.187,270.175 159.317,245.495 159.446,269.993 159.576,134.158 159.706,213.867 159.836,259.938 159.966,254.636 160.095,241.107 160.225,187.176 160.355,225.019 160.485,249.334 160.615,240.193 160.744,226.299 160.874,234.891 161.004,211.308 161.134,200.339 161.264,242.387 161.393,214.416 161.523,245.861 161.653,262.68 161.783,245.129 161.913,121.727 162.042,160.85 162.172,201.253 162.302,200.339 162.432,221.911 162.562,200.887 162.692,224.471 162.821,216.975 162.951,240.376 163.081,170.539 163.211,199.973 163.341,200.339 163.47,246.775 163.6,223.557 163.73,207.469 163.86,223.557 163.99,223.557 164.119,231.052 164.249,223.557 164.379,223.557 164.509,230.687 164.639,223.191 164.768,231.052 164.898,230.687 165.028,223.557 165.158,230.504 165.288,223.557 165.417,231.052 165.547,231.052 165.677,231.052 165.807,231.052 165.937,230.504 166.066,223.557 166.196,230.504 166.326,223.557 166.456,230.504 166.586,223.557 166.715,223.557 166.845,223.557 166.975,231.052 167.105,223.557 167.235,222.825 167.364,228.858 167.494,231.052 167.624,223.557 167.754,231.052 167.884,231.052 168.014,223.557 168.143,231.052 168.273,223.557 168.403,231.052 168.533,231.052 168.663,231.052 168.792,223.557 168.922,223.557 169.052,231.052 169.182,231.052 169.312,223.557 169.441,222.825 169.571,223.191 169.701,223.557 169.831,223.557 169.961,231.052 170.09,231.052 170.22,223.557 170.35,223.557 170.48,223.191 170.61,223.557 170.739,223.557 170.869,223.557 170.999,223.557 171.129,223.557 171.259,223.557 171.388,223.557 171.518,231.052 171.648,223.557 171.778,223.191 171.908,223.557 172.037,223.557 172.167,223.557 172.297,223.557 172.427,228.493 172.557,223.557 172.686,222.825 172.816,223.557 172.946,222.825 173.076,223.557 173.206,223.557 173.336,220.997 173.465,223.557 173.595,231.052 173.725,228.858 173.855,223.557 173.985,223.557 174.114,231.052 174.244,231.052 174.374,231.052 174.504,222.825 174.634,228.858 174.763,231.052 174.893,223.557 175.023,223.557 175.153,222.825 175.283,230.687 175.412,230.504 175.542,223.557 175.672,230.687 175.802,223.557 175.932,222.825 176.061,231.052 176.191,231.052 176.321,231.052 176.451,231.052 176.581,222.825 176.71,230.504 176.84,228.858 176.97,231.052 177.1,231.052 177.23,231.052 177.359,231.052 177.489,231.052 177.619,231.052 177.749,231.052 177.879,231.052 178.008,231.052 178.138,231.052 178.268,223.191 178.398,223.557 178.528,231.052 178.658,231.052 178.787,223.557 178.917,230.687 179.047,223.557 179.177,222.825 179.307,231.052 179.436,231.418 179.566,223.557 179.696,223.557 179.826,231.052 179.956,223.557 180.085,231.418 180.215,231.052 180.345,223.922 180.475,223.557 180.605,231.052 180.734,220.997 180.864,223.191 180.994,223.557 181.124,231.052 181.254,231.418 181.383,223.557 181.513,223.557 181.643,231.052 181.773,231.418 181.903,223.557 182.032,223.557 182.162,231.052 182.292,231.052 182.422,223.557 182.552,223.557 182.681,223.557 182.811,231.052 182.941,231.052 183.071,228.493 183.201,231.052 183.33,231.052 183.46,231.052 183.59,231.052 183.72,222.277 183.85,222.825 183.98,223.557 184.109,223.557 184.239,223.557 184.369,223.557 184.499,223.557 184.629,231.052 184.758,231.052 184.888,230.504 185.018,231.052 185.148,223.557 185.278,231.052 185.407,223.557 185.537,223.557 185.667,223.557 185.797,223.557 185.927,223.557 186.056,230.504 186.186,223.557 186.316,231.052 186.446,231.052 186.576,231.052 186.705,222.825 186.835,231.052 186.965,223.191 187.095,228.493 187.225,222.825 187.354,223.557 187.484,231.052 187.614,223.557 187.744,228.493 187.874,231.052 188.003,230.504 188.133,223.557 188.263,223.191 188.393,223.191 188.523,223.557 188.652,223.557 188.782,223.557 188.912,223.557 189.042,223.557 189.172,223.557 189.302,223.557 189.431,223.557 189.561,223.557 189.691,223.557 189.821,223.557 189.951,223.557 190.08,231.052 190.21,223.557 190.34,223.557 190.47,222.825 190.6,223.557 190.729,223.557 190.859,223.557 190.989,223.557 191.119,223.191 191.249,223.557 191.378,223.557 191.508,223.557 191.638,223.557 191.768,223.191 191.898,223.191 192.027,223.557 192.157,231.052 192.287,231.052 192.417,223.557 192.547,220.997 192.676,230.504 192.806,223.557 192.936,223.557 193.066,231.052 193.196,220.997 193.325,231.052 193.455,223.191 193.585,231.052 193.715,231.052 193.845,231.052 193.974,231.052 194.104,231.052 194.234,223.557 194.364,223.557 194.494,231.052 194.624,223.557 194.753,223.557 194.883,231.052 195.013,223.557 195.143,228.493 195.273,223.557 195.402,223.557 195.532,231.052 195.662,231.052 195.792,231.052 195.922,223.557 196.051,223.557 196.181,230.504 196.311,231.052 196.441,222.643 196.571,231.052 196.7,223.557 196.83,231.052 196.96,222.825 197.09,231.052 197.22,231.052 197.349,231.052 197.479,230.504 197.609,223.557 197.739,215.33 197.869,215.147 197.998,199.425 198.128,216.061 198.258,191.929 198.388,191.929 198.518,215.33 198.647,223.557 198.777,183.702 198.907,192.112 199.037,176.755 199.167,184.434 199.296,206.92 199.426,114.048 199.556,241.107 199.686,186.262 199.816,187.176 199.945,179.68 200.075,178.766 200.205,187.176 200.335,209.663 200.465,163.044 200.595,121.361 200.724,162.313 200.854,196.5 200.984,160.119 201.114,159.205 201.244,151.709 201.373,151.709 201.503,151.709 201.633,151.709 201.763,154.268 201.893,151.709 202.022,152.44 202.152,159.205 202.282,167.797 202.412,159.205 202.542,162.313 202.671,167.431 202.801,167.797 202.931,167.98 203.061,159.205 203.191,167.431 203.32,159.205 203.45,167.98 203.58,167.797 203.71,159.205 203.84,167.431 203.969,154.817 204.099,159.205 204.229,167.431 204.359,151.709 204.489,159.205 204.618,167.431 204.748,151.709 204.878,169.991 205.008,159.936 205.138,167.431 205.268,151.343 205.397,151.709 205.527,154.817 205.657,159.57 205.787,167.431 205.917,151.709 206.046,152.44 206.176,151.709 206.306,154.268 206.436,167.431 206.566,152.44 206.695,151.343 206.825,151.709 206.955,151.709 207.085,154.268 207.215,154.268 207.344,151.709 207.474,151.709 207.604,152.44 207.734,151.709 207.864,154.268 207.993,152.623 208.123,151.343 208.253,167.431 208.383,151.709 208.513,167.431 208.642,167.431 208.772,152.44 208.902,151.709 209.032,151.709 209.162,151.709 209.291,169.991 209.421,151.709 209.551,151.343 209.681,167.431 209.811,167.797 209.94,151.709 210.07,151.709 210.2,151.709 210.33,154.268 210.46,152.44 210.589,151.709 210.719,151.709 210.849,151.709 210.979,152.44 211.109,154.268 211.239,167.431 211.368,151.709 211.498,151.709 211.628,159.205 211.758,151.709 211.888,154.268 212.017,151.709 212.147,152.44 212.277,151.709 212.407,151.709 212.537,151.709 212.666,151.709 212.796,152.44 212.926,154.268 213.056,151.709 213.186,159.57 213.315,159.57 213.445,159.205 213.575,152.075 213.705,154.268 213.835,152.44 213.964,151.709 214.094,159.57 214.224,159.205 214.354,159.57 214.484,159.205 214.613,154.268 214.743,151.709 214.873,151.709 215.003,152.44 215.133,159.57 215.262,151.709 215.392,159.57 215.522,154.268 215.652,151.709 215.782,151.709 215.911,159.57 216.041,151.709 216.171,151.709 216.301,154.268 216.431,154.268 216.561,151.709 216.69,152.44 216.82,151.709 216.95,151.709 217.08,151.709 217.21,151.709 217.339,154.817 217.469,151.709 217.599,167.431 217.729,151.709 217.859,151.709 217.988,152.44 218.118,167.797 218.248,167.797 218.378,159.936 218.508,151.709 218.637,151.709 218.767,167.431 218.897,170.905 219.027,167.797 219.157,167.797 219.286,167.797 219.416,159.936 219.546,167.797 219.676,160.119 219.806,167.797 219.935,167.797 220.065,167.797 220.195,170.174 220.325,168.346 220.455,167.797 220.584,167.431 220.714,159.57 220.844,154.268 220.974,154.268 221.104,151.709 221.234,159.57 221.363,152.44 221.493,151.709 221.623,151.343 221.753,167.797 221.883,169.991 222.012,151.709 222.142,151.709 222.272,151.709 222.402,151.709 222.532,152.44 222.661,151.709 222.791,154.268 222.921,151.709 223.051,152.44 223.181,151.709 223.31,151.709 223.44,151.709 223.57,151.709 223.7,154.268 223.83,167.431 223.959,159.205 224.089,152.44 224.219,151.709 224.349,162.313 224.479,159.936 224.608,152.44 224.738,151.709 224.868,151.709 224.998,154.817 225.128,151.709 225.257,151.709 225.387,151.709 225.517,151.709 225.647,152.44 225.777,168.894 225.906,167.431 226.036,151.709 226.166,151.709 226.296,154.268 226.426,154.268 226.555,151.709 226.685,159.205 226.815,151.709 226.945,159.936 227.075,159.205 227.205,151.709 227.334,167.431 227.464,167.98 227.594,167.431 227.724,154.268 227.854,159.205 227.983,152.44 228.113,151.709 228.243,151.709 228.373,151.709 228.503,154.268 228.632,151.709 228.762,151.343 228.892,151.709 229.022,167.431 229.152,151.709 229.281,167.797 229.411,159.205 229.541,147.687 229.671,147.321 229.801,152.623 229.93,145.493 230.06,152.623 230.19,177.486 230.32,184.434 230.45,155.548 230.579,162.678 230.709,186.262 230.839,170.539 230.969,146.042 231.099,147.687 231.228,217.889 231.358,278.037 231.488,194.123 231.618,164.872 231.748,102.165 231.877,106.004 232.007,142.934 232.137,121.727 232.267,113.134 232.397,113.134 232.527,120.081 232.656,112.586 232.786,112.586 232.916,112.586 233.046,112.586 233.176,112.586 233.305,112.586 233.435,112.586 233.565,112.586 233.695,113.134 233.825,113.134 233.954,120.63 234.084,112.769 234.214,112.586 234.344,112.586 234.474,112.586 234.603,112.586 234.733,112.586 234.863,112.586 234.993,112.586 235.123,112.586 235.252,113.134 235.382,112.586 235.512,112.586 235.642,112.586 235.772,112.586 235.901,112.586 236.031,112.586 236.161,112.769 236.291,120.63 236.421,115.145 236.55,115.145 236.68,115.145 236.81,115.145 236.94,115.145 237.07,115.145 237.199,115.694 237.329,115.694 237.459,112.586 237.589,112.586 237.719,112.586 237.849,112.586 237.978,115.145 238.108,115.145 238.238,115.145 238.368,115.145 238.498,115.145 238.627,113.134 238.757,115.694 238.887,115.694 239.017,115.694 239.147,115.145 239.276,115.145 239.406,115.145 239.536,115.145 239.666,115.145 239.796,115.145 239.925,115.145 240.055,115.145 240.185,113.134 240.315,115.694 240.445,123.189 240.574,115.694 240.704,115.145 240.834,115.145 240.964,115.145 241.094,115.145 241.223,115.145 241.353,115.145 241.483,115.145 241.613,115.145 241.743,113.134 241.872,113.134 242.002,113.134 242.132,112.586 242.262,112.586 242.392,112.586 242.521,112.586 242.651,113.134 242.781,113.134 242.911,113.134 243.041,113.5 243.171,115.145 243.3,115.145 243.43,115.145 243.56,114.78 243.69,115.694 243.82,112.769 243.949,113.134 244.079,115.145 244.209,115.145 244.339,115.145 244.469,115.145 244.598,112.769 244.728,112.586 244.858,112.586 244.988,112.586 245.118,113.134 245.247,113.134 245.377,113.134 245.507,113.134 245.637,112.586 245.767,112.586 245.896,112.586 246.026,112.586 246.156,112.586 246.286,112.586 246.416,112.586 246.545,113.134 246.675,113.134 246.805,113.134 246.935,112.769 247.065,115.694 247.194,115.694 247.324,115.145 247.454,112.586 247.584,113.5 247.714,115.145 247.843,122.641 247.973,115.145 248.103,115.145 248.233,113.5 248.363,113.134 248.493,115.694 248.622,115.145 248.752,120.447 248.882,112.586 249.012,112.586 249.142,112.586 249.271,112.586 249.401,113.134 249.531,113.134 249.661,112.586 249.791,112.586 249.92,120.081 250.05,112.22 250.18,112.586 250.31,113.134 250.44,113.134 250.569,112.586 250.699,113.134 250.829,115.145 250.959,115.145 251.089,115.145 251.218,115.145 251.348,122.641 251.478,115.694 251.608,115.694 251.738,115.694 251.867,115.145 251.997,115.145 252.127,114.78 252.257,115.145 252.387,115.145 252.516,114.78 252.646,115.145 252.776,115.145 252.906,115.694 253.036,113.134 253.165,113.134 253.295,112.586 253.425,112.769 253.555,112.586 253.685,112.586 253.815,112.586 253.944,112.586 254.074,112.586 254.204,112.586 254.334,112.586 254.464,113.134 254.593,113.134 254.723,113.134 254.853,120.081 254.983,112.769 255.113,112.586 255.242,112.586 255.372,112.769 255.502,113.5 255.632,113.134 255.762,112.769 255.891,120.081 256.021,115.145 256.151,122.641 256.281,122.641 256.411,123.189 256.54,120.081 256.67,112.586 256.8,112.586 256.93,115.145 257.06,115.145 257.189,115.145 257.319,115.145 257.449,115.145 257.579,115.145 257.709,122.641 257.838,115.145 257.968,115.145 258.098,115.145 258.228,115.694 258.358,123.189 258.487,114.78 258.617,115.145 258.747,115.145 258.877,115.145 259.007,115.145 259.137,115.145 259.266,115.145 259.396,115.145 259.526,115.145 259.656,115.145 259.786,115.694 259.915,115.694 260.045,115.694 260.175,115.694 260.305,115.694 260.435,115.145 260.564,115.145 260.694,106.919 260.824,106.919 260.954,106.919 261.084,106.919 261.213,106.919 261.343,115.145 261.473,122.641 261.603,107.467 261.733,107.467 261.862,123.189 261.992,123.189 262.122,115.145 262.252,115.145 262.382,112.586 262.511,104.359 262.641,112.586 262.771,113.134 262.901,104.725 263.031,105.09 263.16,105.09 263.29,112.586 263.42,104.359 263.55,112.769 263.68,120.081 263.809,113.134 263.939,113.134 264.069,120.996 264.199,112.769 264.329,104.359 264.458,120.081 264.588,115.145 264.718,122.641 264.848,115.145 264.978,106.919 265.108,123.189 265.237,115.694 265.367,107.467 265.497,106.919 265.627,122.824 265.757,106.919 265.886,104.359 266.016,115.145 266.146,122.824 266.276,122.641 266.406,106.919 266.535,123.189 266.665,115.694 266.795,115.694 266.925,107.467 267.055,115.145 267.184,115.145 267.314,112.769 267.444,112.586 267.574,115.145 267.704,115.145 267.833,115.145 267.963,120.63 268.093,105.09 268.223,113.5 268.353,120.081 268.482,112.586 268.612,112.586 268.742,104.359 268.872,120.447 269.002,120.447 269.131,112.769 269.261,120.081 269.391,120.996 269.521,112.586 269.651,104.359 269.78,112.769 269.91,112.769 270.04,112.586 270.17,104.359 270.3,113.5 270.43,105.09 270.559,105.09 270.689,106.919 270.819,122.641 270.949,122.824 271.079,115.145 271.208,122.641 271.338,122.641 271.468,120.996 271.598,123.189 271.728,107.467 271.857,120.081 271.987,112.769 272.117,120.447 272.247,112.769 272.377,104.359 272.506,120.447 272.636,120.081 272.766,105.09 272.896,105.09 273.026,105.09 273.155,105.09 273.285,105.09 273.415,107.467 273.545,115.694 273.675,107.467 273.804,115.145 273.934,106.919 274.064,115.145 274.194,115.145 274.324,106.919 274.453,115.145 274.583,106.919 274.713,122.641 274.843,115.694 274.973,115.694 275.103,112.769 275.232,106.919 275.362,112.586 275.492,112.769 275.622,112.586 275.752,112.586 275.881,106.919 276.011,115.145 276.141,115.145 276.271,113.5 276.401,120.63 276.53,112.586 276.66,112.769 276.79,112.586 276.92,112.769 277.05,113.5 277.179,113.5 277.309,120.63 277.439,112.769 277.569,166.152 277.699,106.919 277.828,146.042 277.958,169.26 278.088,181.874 278.218,142.568 278.348,120.996 278.477,97.7776 278.607,163.958 278.737,99.423 278.867,121.91 278.997,169.26 279.126,114.048 279.256,91.5618 279.386,144.579 279.516,104.359 279.646,163.409 279.775,160.119 279.905,108.198 280.035,106.919 280.165,116.608 280.295,78.3988 280.424,86.8085 280.554,102.165 280.684,107.833 280.814,116.059 280.944,126.663 281.074,107.833 281.203,92.8415 281.333,100.337 281.463,124.103 281.593,100.337 281.723,84.9803 281.852,84.6147 281.982,87.1741 282.112,87.1741 282.242,87.5397 282.372,87.1741 282.501,87.1741 282.631,87.1741 282.761,87.1741 282.891,87.1741 283.021,85.3459 283.15,84.6147 283.28,84.9803 283.41,84.9803 283.54,84.9803 283.67,84.9803 283.799,84.9803 283.929,85.3459 284.059,84.6147 284.189,84.9803 284.319,85.3459 284.448,85.5287 284.578,87.1741 284.708,87.7226 284.838,87.7226 284.968,87.7226 285.097,87.7226 285.227,88.0882 285.357,87.7226 285.487,85.3459 285.617,87.7226 285.746,85.3459 285.876,85.3459 286.006,85.3459 286.136,85.3459 286.266,84.9803 286.396,84.6147 286.525,84.6147 286.655,84.9803 286.785,84.9803 286.915,84.9803 287.045,85.3459 287.174,85.5287 287.304,85.3459 287.434,85.3459 287.564,84.9803 287.694,87.1741 287.823,87.1741 287.953,87.5397 288.083,85.3459 288.213,84.6147 288.343,84.6147 288.472,84.6147 288.602,84.9803 288.732,84.6147 288.862,84.6147 288.992,84.9803 289.121,87.1741 289.251,87.1741 289.381,87.1741 289.511,87.1741 289.641,87.1741 289.77,84.9803 289.9,84.9803 290.03,84.6147 290.16,84.6147 290.29,84.6147 290.419,84.9803 290.549,84.9803 290.679,84.6147 290.809,84.6147 290.939,87.1741 291.069,87.1741 291.198,87.1741 291.328,87.5397 291.458,87.1741 291.588,87.1741 291.718,87.7226 291.847,87.7226 291.977,85.3459 292.107,85.3459 292.237,85.3459 292.367,85.3459 292.496,84.9803 292.626,84.6147 292.756,87.1741 292.886,87.1741 293.016,87.1741 293.145,87.5397 293.275,87.7226 293.405,84.9803 293.535,84.6147 293.665,84.6147 293.794,84.6147 293.924,85.3459 294.054,85.3459 294.184,85.5287 294.314,85.3459 294.443,87.7226 294.573,87.7226 294.703,87.7226 294.833,87.1741 294.963,84.9803 295.092,84.6147 295.222,84.9803 295.352,85.3459 295.482,85.3459 295.612,84.6147 295.741,85.3459 295.871,86.26 296.001,87.1741 296.131,87.1741 296.261,87.1741 296.39,87.1741 296.52,87.7226 296.65,87.7226 296.78,85.3459 296.91,85.3459 297.04,85.3459 297.169,85.5287 297.299,85.5287 297.429,85.3459 297.559,85.3459 297.689,85.3459 297.818,84.9803 297.948,85.3459 298.078,85.3459 298.208,87.7226 298.338,87.7226 298.467,87.7226 298.597,87.7226 298.727,87.7226 298.857,85.3459 298.987,84.6147 299.116,84.9803 299.246,84.9803 299.376,84.6147 299.506,84.6147 299.636,84.6147 299.765,84.9803 299.895,84.9803 300.025,84.9803 300.155,84.6147 300.285,84.6147 300.414,84.6147 300.544,87.1741 300.674,87.1741 300.804,87.1741 300.934,87.1741 301.063,84.9803 301.193,84.6147 301.323,84.6147 301.453,84.6147 301.583,84.6147 301.712,84.9803 301.842,84.6147 301.972,87.1741 302.102,87.1741 302.232,87.1741 302.362,87.1741 302.491,84.6147 302.621,84.6147 302.751,84.9803 302.881,84.6147 303.011,84.6147 303.14,84.9803 303.27,84.6147 303.4,87.1741 303.53,87.1741 303.66,87.1741 303.789,87.1741 303.919,87.1741 304.049,87.1741 304.179,87.1741 304.309,84.9803 304.438,84.6147 304.568,84.9803 304.698,84.6147 304.828,84.9803 304.958,84.9803 305.087,84.9803 305.217,84.249 305.347,87.1741 305.477,84.6147 305.607,87.1741 305.736,87.1741 305.866,87.1741 305.996,87.1741 306.126,87.1741 306.256,87.1741 306.385,87.1741 306.515,87.7226 306.645,87.7226 306.775,87.7226 306.905,87.7226 307.034,87.7226 307.164,85.3459 307.294,85.3459 307.424,85.3459 307.554,85.3459 307.684,85.3459 307.813,85.3459 307.943,84.9803 308.073,84.6147 308.203,84.6147 308.333,84.6147 308.462,84.9803 308.592,84.6147 308.722,84.6147 308.852,84.9803 308.982,84.9803 309.111,84.9803 309.241,87.1741 309.371,87.1741 309.501,87.1741 309.631,87.1741 309.76,87.1741 309.89,87.1741 310.02,85.5287 310.15,87.1741 310.28,84.9803 310.409,84.9803 310.539,84.9803 310.669,84.9803 310.799,84.9803 310.929,85.3459 311.058,84.6147 311.188,85.3459 311.318,85.3459 311.448,87.1741 311.578,87.7226 311.707,87.7226 311.837,87.7226 311.967,80.227 312.097,64.3218 312.227,68.7094 312.356,79.6785 312.486,72.183 312.616,72.3658 312.746,63.9562 312.876,103.993 313.005,64.8703 313.135,74.5596 313.265,59.0201 313.395,74.9253 313.525,43.8461 313.655,65.2359 313.784,34.1567 313.914,34.5224 314.044,44.2118 314.174,36.7162 314.304,37.2647 314.433,50.7932 314.563,35.0709 314.693,44.7602 314.823,59.9342 314.953,38.5444 315.082,94.6697 315.212,40.1898 315.342,73.6456 315.472,65.7844 315.602,51.1589 315.731,52.6214 315.861,52.6214 315.991,58.2888 316.121,34.7052 316.251,30.6832"/>
  </g>
  <clipPath id="cp00418314">
   <polygon points="0,314 418,314 418,0 0,0"/>
  </clipPath>
  <g clip-path="url(#cp00418314)">
   <polygon fill="#ffffff" shape-rendering="crispEdges" points="300.478,47.9341 370.953,47.9341 370.953,31.547 300.478,31.547"/>
   <polyline fill="none" stroke-dasharray="16,0" stroke-linecap="square" stroke-width="0.5" stroke-linejoin="miter" stroke="#262626" points="300.478,47.9341 370.953,47.9341"/>
   <polyline fill="none" stroke-dasharray="16,0" stroke-linecap="square" stroke-width="0.5" stroke-linejoin="miter" stroke="#262626" points="300.478,31.547 370.953,31.547"/>
   <polyline fill="none" stroke-dasharray="16,0" stroke-linecap="square" stroke-width="0.5" stroke-linejoin="miter" stroke="#262626" points="300.478,47.9341 300.478,31.547"/>
   <polyline fill="none" stroke-dasharray="16,0" stroke-linecap="square" stroke-width="0.5" stroke-linejoin="miter" stroke="#262626" points="370.953,47.9341 370.953,31.547"/>
   <polyline fill="none" stroke-linecap="butt" stroke-width="0.5" stroke-linejoin="round" stroke="#0071bc" points="304.475,39.7406 324.459,39.7406"/>
   <g font-style="normal" transform="translate(328.456,44.2406) rotate(-0,-0,-4.5)" font-weight="normal" font-family="FreeSans" font-size="9" xml:space="preserve">
    <text y="-1" fill="rgb(0,0,0)" x="0 5 7 10 13 18 22 27 32 34 ">ultrasonic</text>
   </g>
  </g>
 </g>
</svg>
