<?xml version='1.0' encoding='UTF-8' standalone='no'?>
<svg viewBox="0 0 418 314" xmlns="http://www.w3.org/2000/svg" xmlns:xlink="http://www.w3.org/1999/xlink" height="314pt" width="418pt">
 <title>Figure 1</title>
 <desc>
Creator: GL2PS 1.4.2, (C) 1999-2020 C. Geuzaine
For: Octave
CreationDate: Wed Mar 12 13:42:46 2025
</desc>
 <defs/>
 <polygon fill="#ffffff" points="0,0 418,0 418,314 0,314"/>
 <g>
  <polygon fill="#ffffff" points="0,314 418,314 418,0 0,0" shape-rendering="crispEdges"/>
  <clipPath id="cp00418314">
   <polygon points="0,314 418,314 418,0 0,0"/>
  </clipPath>
  <g clip-path="url(#cp00418314)">
   <polygon fill="#ffffff" points="54.4343,279.499 378.946,279.499 378.946,23.5533 54.4343,23.5533" shape-rendering="crispEdges"/>
   <polyline fill="none" stroke-width="0.5" stroke="#262626" points="54.4343,279.499 54.4343,23.5533" stroke-linecap="butt" stroke-opacity="0.15" stroke-linejoin="miter" stroke-dasharray="16,0"/>
   <polyline fill="none" stroke-width="0.5" stroke="#262626" points="100.793,279.499 100.793,23.5533" stroke-linecap="butt" stroke-opacity="0.15" stroke-linejoin="miter" stroke-dasharray="16,0"/>
   <polyline fill="none" stroke-width="0.5" stroke="#262626" points="147.152,279.499 147.152,23.5533" stroke-linecap="butt" stroke-opacity="0.15" stroke-linejoin="miter" stroke-dasharray="16,0"/>
   <polyline fill="none" stroke-width="0.5" stroke="#262626" points="193.511,279.499 193.511,23.5533" stroke-linecap="butt" stroke-opacity="0.15" stroke-linejoin="miter" stroke-dasharray="16,0"/>
   <polyline fill="none" stroke-width="0.5" stroke="#262626" points="239.87,279.499 239.87,23.5533" stroke-linecap="butt" stroke-opacity="0.15" stroke-linejoin="miter" stroke-dasharray="16,0"/>
   <polyline fill="none" stroke-width="0.5" stroke="#262626" points="286.229,279.499 286.229,23.5533" stroke-linecap="butt" stroke-opacity="0.15" stroke-linejoin="miter" stroke-dasharray="16,0"/>
   <polyline fill="none" stroke-width="0.5" stroke="#262626" points="332.588,279.499 332.588,23.5533" stroke-linecap="butt" stroke-opacity="0.15" stroke-linejoin="miter" stroke-dasharray="16,0"/>
   <polyline fill="none" stroke-width="0.5" stroke="#262626" points="378.946,279.499 378.946,23.5533" stroke-linecap="butt" stroke-opacity="0.15" stroke-linejoin="miter" stroke-dasharray="16,0"/>
   <polyline fill="none" stroke-width="0.5" stroke="#262626" points="54.4343,279.499 54.4343,276.255" stroke-linecap="butt" stroke-linejoin="miter"/>
   <polyline fill="none" stroke-width="0.5" stroke="#262626" points="100.793,279.499 100.793,276.255" stroke-linecap="butt" stroke-linejoin="miter"/>
   <polyline fill="none" stroke-width="0.5" stroke="#262626" points="147.152,279.499 147.152,276.255" stroke-linecap="butt" stroke-linejoin="miter"/>
   <polyline fill="none" stroke-width="0.5" stroke="#262626" points="193.511,279.499 193.511,276.255" stroke-linecap="butt" stroke-linejoin="miter"/>
   <polyline fill="none" stroke-width="0.5" stroke="#262626" points="239.87,279.499 239.87,276.255" stroke-linecap="butt" stroke-linejoin="miter"/>
   <polyline fill="none" stroke-width="0.5" stroke="#262626" points="286.229,279.499 286.229,276.255" stroke-linecap="butt" stroke-linejoin="miter"/>
   <polyline fill="none" stroke-width="0.5" stroke="#262626" points="332.588,279.499 332.588,276.255" stroke-linecap="butt" stroke-linejoin="miter"/>
   <polyline fill="none" stroke-width="0.5" stroke="#262626" points="378.946,279.499 378.946,276.255" stroke-linecap="butt" stroke-linejoin="miter"/>
   <g font-weight="normal" font-family="FreeSans" font-size="10" font-style="normal" xml:space="preserve" transform="translate(51.4343,294.998) rotate(-0,3,-8)">
    <text fill="rgb(38,38,38)" x="0 " y="-0">0</text>
   </g>
   <g font-weight="normal" font-family="FreeSans" font-size="10" font-style="normal" xml:space="preserve" transform="translate(91.7932,294.998) rotate(-0,9,-8)">
    <text fill="rgb(38,38,38)" x="0 6 12 " y="-0">500</text>
   </g>
   <g font-weight="normal" font-family="FreeSans" font-size="10" font-style="normal" xml:space="preserve" transform="translate(135.152,294.998) rotate(-0,12,-8)">
    <text fill="rgb(38,38,38)" x="0 6 12 18 " y="-0">1000</text>
   </g>
   <g font-weight="normal" font-family="FreeSans" font-size="10" font-style="normal" xml:space="preserve" transform="translate(181.511,294.998) rotate(-0,12,-8)">
    <text fill="rgb(38,38,38)" x="0 6 12 18 " y="-0">1500</text>
   </g>
   <g font-weight="normal" font-family="FreeSans" font-size="10" font-style="normal" xml:space="preserve" transform="translate(227.87,294.998) rotate(-0,12,-8)">
    <text fill="rgb(38,38,38)" x="0 6 12 18 " y="-0">2000</text>
   </g>
   <g font-weight="normal" font-family="FreeSans" font-size="10" font-style="normal" xml:space="preserve" transform="translate(274.229,294.998) rotate(-0,12,-8)">
    <text fill="rgb(38,38,38)" x="0 6 12 18 " y="-0">2500</text>
   </g>
   <g font-weight="normal" font-family="FreeSans" font-size="10" font-style="normal" xml:space="preserve" transform="translate(320.588,294.998) rotate(-0,12,-8)">
    <text fill="rgb(38,38,38)" x="0 6 12 18 " y="-0">3000</text>
   </g>
   <g font-weight="normal" font-family="FreeSans" font-size="10" font-style="normal" xml:space="preserve" transform="translate(366.946,294.998) rotate(-0,12,-8)">
    <text fill="rgb(38,38,38)" x="0 6 12 18 " y="-0">3500</text>
   </g>
   <polyline fill="none" stroke-width="0.5" stroke="#262626" points="54.4343,279.499 378.946,279.499" stroke-linecap="butt" stroke-opacity="0.15" stroke-linejoin="miter" stroke-dasharray="16,0"/>
   <polyline fill="none" stroke-width="0.5" stroke="#262626" points="54.4343,215.513 378.946,215.513" stroke-linecap="butt" stroke-opacity="0.15" stroke-linejoin="miter" stroke-dasharray="16,0"/>
   <polyline fill="none" stroke-width="0.5" stroke="#262626" points="54.4343,151.526 378.946,151.526" stroke-linecap="butt" stroke-opacity="0.15" stroke-linejoin="miter" stroke-dasharray="16,0"/>
   <polyline fill="none" stroke-width="0.5" stroke="#262626" points="54.4343,87.5397 378.946,87.5397" stroke-linecap="butt" stroke-opacity="0.15" stroke-linejoin="miter" stroke-dasharray="16,0"/>
   <polyline fill="none" stroke-width="0.5" stroke="#262626" points="54.4343,23.5533 378.946,23.5533" stroke-linecap="butt" stroke-opacity="0.15" stroke-linejoin="miter" stroke-dasharray="16,0"/>
   <polyline fill="none" stroke-width="0.5" stroke="#262626" points="54.4343,279.499 57.6745,279.499" stroke-linecap="butt" stroke-linejoin="miter"/>
   <polyline fill="none" stroke-width="0.5" stroke="#262626" points="54.4343,215.513 57.6745,215.513" stroke-linecap="butt" stroke-linejoin="miter"/>
   <polyline fill="none" stroke-width="0.5" stroke="#262626" points="54.4343,151.526 57.6745,151.526" stroke-linecap="butt" stroke-linejoin="miter"/>
   <polyline fill="none" stroke-width="0.5" stroke="#262626" points="54.4343,87.5397 57.6745,87.5397" stroke-linecap="butt" stroke-linejoin="miter"/>
   <polyline fill="none" stroke-width="0.5" stroke="#262626" points="54.4343,23.5533 57.6745,23.5533" stroke-linecap="butt" stroke-linejoin="miter"/>
   <g font-weight="normal" font-family="FreeSans" font-size="10" font-style="normal" xml:space="preserve" transform="translate(43.4418,283.499) rotate(-0,6,-4)">
    <text fill="rgb(38,38,38)" x="0 " y="-0">0</text>
   </g>
   <g font-weight="normal" font-family="FreeSans" font-size="10" font-style="normal" xml:space="preserve" transform="translate(43.4418,219.513) rotate(-0,6,-4)">
    <text fill="rgb(38,38,38)" x="0 " y="-0">5</text>
   </g>
   <g font-weight="normal" font-family="FreeSans" font-size="10" font-style="normal" xml:space="preserve" transform="translate(37.4418,155.526) rotate(-0,12,-4)">
    <text fill="rgb(38,38,38)" x="0 6 " y="-0">10</text>
   </g>
   <g font-weight="normal" font-family="FreeSans" font-size="10" font-style="normal" xml:space="preserve" transform="translate(37.4418,91.5398) rotate(-0,12,-4)">
    <text fill="rgb(38,38,38)" x="0 6 " y="-0">15</text>
   </g>
   <g font-weight="normal" font-family="FreeSans" font-size="10" font-style="normal" xml:space="preserve" transform="translate(37.4418,27.5533) rotate(-0,12,-4)">
    <text fill="rgb(38,38,38)" x="0 6 " y="-0">20</text>
   </g>
   <polyline fill="none" stroke-width="0.5" stroke="#262626" points="54.4343,279.499 378.946,279.499" stroke-linecap="square" stroke-linejoin="miter" stroke-dasharray="16,0"/>
   <polyline fill="none" stroke-width="0.5" stroke="#262626" points="54.4343,279.499 54.4343,23.5533" stroke-linecap="square" stroke-linejoin="miter" stroke-dasharray="16,0"/>
   <g font-weight="normal" font-family="FreeSans" font-size="11" font-style="normal" xml:space="preserve" transform="translate(203.69,309.998) rotate(-0,13,-10)">
    <text fill="rgb(38,38,38)" x="0 3 9 15 21 " y="-1">Index</text>
   </g>
   <g font-weight="normal" font-family="FreeSans" font-size="11" font-style="normal" xml:space="preserve" transform="translate(18.9418,151.526) rotate(-90,13.5,0)">
    <text fill="rgb(38,38,38)" x="0 7 13 15 21 " y="-1">Value</text>
   </g>
   <g font-weight="bold" font-family="FreeSans" font-size="11" font-style="normal" xml:space="preserve" transform="translate(179.19,13.5533) rotate(-0,37.5,0)">
    <text fill="rgb(0,0,0)" x="0 7 13 20 26 33 37 40 47 53 56 63 69 " y="-1">Sensor Values</text>
   </g>
   <polyline fill="none" stroke-width="0.5" stroke="#0071bc" points="54.527,272.205 54.6197,272.205 54.7124,271.949 54.8052,272.205 54.8979,271.693 54.9906,272.205 55.0833,272.333 55.176,272.205 55.2687,270.413 55.3615,271.693 55.4542,272.205 55.5469,272.333 55.6396,271.949 55.7323,270.413 55.8251,271.693 55.9178,272.205 56.0105,271.693 56.1032,272.205 56.1959,270.413 56.2886,271.949 56.3814,272.205 56.4741,272.333 56.5668,272.205 56.6595,270.413 56.7522,271.693 56.845,272.205 56.9377,272.205 57.0304,272.205 57.1231,270.413 57.2158,271.949 57.3085,272.205 57.4013,271.693 57.494,272.205 57.5867,271.693 57.6794,272.205 57.7721,270.413 57.8648,272.205 57.9576,272.205 58.0503,271.693 58.143,271.949 58.2357,271.309 58.3284,272.205 58.4211,271.053 58.5139,271.949 58.6066,272.205 58.6993,271.693 58.792,272.205 58.8847,270.157 58.9775,272.333 59.0702,272.205 59.1629,272.205 59.2556,272.205 59.3483,272.205 59.441,272.205 59.5338,272.205 59.6265,272.205 59.7192,272.205 59.8119,269.901 59.9046,272.205 59.9974,272.205 60.0901,272.205 60.1828,272.205 60.2755,271.693 60.3682,272.205 60.4609,271.693 60.5537,270.797 60.6464,272.205 60.7391,272.205 60.8318,270.413 60.9245,277.452 61.0173,272.205 61.11,272.205 61.2027,272.205 61.2954,272.205 61.3881,271.949 61.4808,270.413 61.5736,277.196 61.6663,272.205 61.759,272.205 61.8517,277.196 61.9444,270.413 62.0371,271.949 62.1299,271.949 62.2226,270.413 62.3153,271.693 62.408,272.205 62.5007,272.205 62.5935,271.949 62.6862,270.413 62.7789,271.693 62.8716,271.949 62.9643,271.693 63.057,272.205 63.1497,272.333 63.2425,272.205 63.3352,270.413 63.4279,271.693 63.5206,272.205 63.6133,270.413 63.7061,272.205 63.7988,271.693 63.8915,271.693 63.9842,272.205 64.0769,277.452 64.1696,271.693 64.2624,272.205 64.3551,270.413 64.4478,271.949 64.5405,272.205 64.6332,271.949 64.726,271.949 64.8187,269.901 64.9114,272.205 65.0041,272.205 65.0968,272.205 65.1895,272.205 65.2823,270.157 65.375,272.205 65.4677,269.901 65.5604,277.58 65.6531,272.205 65.7459,269.901 65.8386,272.333 65.9313,272.205 66.024,271.949 66.1167,271.949 66.2094,271.949 66.3022,269.901 66.3949,272.205 66.4876,271.693 66.5803,272.205 66.673,272.205 66.7658,269.901 66.8585,271.949 66.9512,271.693 67.0439,272.205 67.1366,272.205 67.2293,270.413 67.3221,272.205 67.4148,271.693 67.5075,272.205 67.6002,272.205 67.6929,270.413 67.7856,272.205 67.8784,276.94 67.9711,272.205 68.0638,271.693 68.1565,270.413 68.2492,272.205 68.3419,270.413 68.4347,272.205 68.5274,272.205 68.6201,272.333 68.7128,272.205 68.8055,270.669 68.8983,272.205 68.991,271.693 69.0837,272.205 69.1764,271.693 69.2691,272.205 69.3618,271.949 69.4546,270.413 69.5473,272.205 69.64,271.693 69.7327,272.205 69.8254,271.693 69.9182,270.413 70.0109,272.333 70.1036,270.413 70.1963,272.205 70.289,271.309 70.3817,272.333 70.4745,271.949 70.5672,272.205 70.6599,272.205 70.7526,270.413 70.8453,272.333 70.938,272.333 71.0308,272.333 71.1235,277.58 71.2162,272.333 71.3089,272.333 71.4016,272.205 71.4943,275.916 71.5871,271.949 71.6798,272.333 71.7725,277.58 71.8652,272.205 71.9579,272.205 72.0507,272.333 72.1434,272.333 72.2361,271.693 72.3288,270.669 72.4215,272.205 72.5142,276.94 72.607,270.669 72.6997,271.693 72.7924,271.949 72.8851,272.205 72.9778,272.333 73.0705,270.413 73.1633,271.693 73.256,270.413 73.3487,272.205 73.4414,272.205 73.5341,272.205 73.6269,272.205 73.7196,272.205 73.8123,271.693 73.905,272.333 73.9977,277.58 74.0904,277.58 74.1832,271.309 74.2759,271.693 74.3686,270.669 74.4613,272.205 74.554,272.205 74.6468,271.693 74.7395,272.333 74.8322,270.669 74.9249,272.333 75.0176,272.205 75.1103,272.333 75.2031,271.693 75.2958,270.413 75.3885,272.205 75.4812,272.333 75.5739,272.333 75.6667,272.333 75.7594,272.205 75.8521,272.333 75.9448,272.333 76.0375,271.693 76.1302,272.205 76.223,272.333 76.3157,270.669 76.4084,272.205 76.5011,271.693 76.5938,272.333 76.6865,271.949 76.7793,272.205 76.872,272.333 76.9647,271.693 77.0574,272.333 77.1501,272.333 77.2429,270.413 77.3356,272.205 77.4283,271.693 77.521,272.333 77.6137,272.333 77.7064,270.413 77.7992,272.205 77.8919,271.693 77.9846,272.205 78.0773,272.205 78.17,272.205 78.2627,271.949 78.3555,272.205 78.4482,272.333 78.5409,271.693 78.6336,272.333 78.7263,272.333 78.8191,272.205 78.9118,272.333 79.0045,270.157 79.0972,272.333 79.1899,272.205 79.2826,272.205 79.3754,272.205 79.4681,269.901 79.5608,272.205 79.6535,269.901 79.7462,272.333 79.839,277.58 79.9317,270.413 80.0244,272.333 80.1171,269.901 80.2098,272.333 80.3025,272.205 80.3953,271.693 80.488,272.205 80.5807,271.693 80.6734,271.949 80.7661,270.413 80.8588,272.205 80.9516,272.205 81.0443,271.693 81.137,272.333 81.2297,271.949 81.3224,272.205 81.4151,269.901 81.5079,272.333 81.6006,272.205 81.6933,272.333 81.786,272.205 81.8787,271.949 81.9715,272.205 82.0642,271.693 82.1569,272.205 82.2496,270.413 82.3423,271.949 82.435,270.669 82.5278,272.205 82.6205,271.949 82.7132,272.205 82.8059,270.413 82.8986,271.949 82.9914,272.205 83.0841,271.693 83.1768,271.949 83.2695,270.413 83.3622,272.205 83.4549,271.949 83.5477,271.949 83.6404,272.205 83.7331,270.413 83.8258,271.949 83.9185,277.58 84.0113,272.205 84.104,272.205 84.1967,270.669 84.2894,272.205 84.3821,271.309 84.4748,271.693 84.5676,272.205 84.6603,272.205 84.753,272.333 84.8457,270.413 84.9384,272.205 85.0312,270.669 85.1239,271.693 85.2166,272.205 85.3093,270.413 85.402,272.205 85.4947,270.413 85.5874,277.452 85.6802,270.413 85.7729,271.949 85.8656,272.205 85.9583,270.413 86.051,272.333 86.1438,272.205 86.2365,276.812 86.3292,277.196 86.4219,270.413 86.5146,272.333 86.6073,272.333 86.7001,271.693 86.7928,272.205 86.8855,271.309 86.9782,272.333 87.0709,270.413 87.1637,272.205 87.2564,271.949 87.3491,270.413 87.4418,272.205 87.5345,270.413 87.6272,272.205 87.72,272.205 87.8127,271.693 87.9054,272.205 87.9981,270.413 88.0908,272.205 88.1835,275.404 88.2763,272.589 88.369,271.949 88.4617,271.693 88.5544,277.452 88.6471,264.91 88.7399,259.663 88.8326,268.238 88.9253,272.589 89.018,269.517 89.1107,268.877 89.2034,264.526 89.2962,277.452 89.3889,266.19 89.4816,249.553 89.5743,256.592 89.667,271.693 89.7597,255.312 89.8525,254.8 89.9452,265.55 90.0379,265.55 90.1306,260.303 90.2233,265.55 90.316,260.047 90.4088,264.014 90.5015,260.303 90.5942,265.294 90.6869,260.559 90.7796,260.303 90.8724,260.559 90.9651,260.559 91.0578,260.303 91.1505,260.303 91.2432,260.303 91.3359,265.806 91.4287,260.559 91.5214,260.559 91.6141,260.303 91.7068,260.303 91.7995,260.559 91.8923,260.047 91.985,260.303 92.0777,258.512 92.1704,260.559 92.2631,258.768 92.3558,260.303 92.4486,260.303 92.5413,260.303 92.634,260.559 92.7267,265.55 92.8194,265.55 92.9122,260.559 93.0049,260.559 93.0976,260.303 93.1903,260.559 93.283,260.047 93.3757,260.303 93.4685,259.919 93.5612,260.303 93.6539,265.294 93.7466,260.559 93.8393,265.294 93.932,265.806 94.0248,264.014 94.1175,260.559 94.2102,264.014 94.3029,265.806 94.3956,265.806 94.4883,265.806 94.5811,265.806 94.6738,265.294 94.7665,259.919 94.8592,259.919 94.9519,265.806 95.0447,264.014 95.1374,265.55 95.2301,260.303 95.3228,265.806 95.4155,260.303 95.5082,265.806 95.601,265.806 95.6937,265.294 95.7864,260.559 95.8791,260.047 95.9718,265.806 96.0646,258.384 96.1573,265.806 96.25,254.8 96.3427,265.806 96.4354,260.559 96.5281,260.047 96.6209,260.559 96.7136,265.294 96.8063,260.559 96.899,263.631 96.9917,265.806 97.0844,258.768 97.1772,265.806 97.2699,264.014 97.3626,260.559 97.4553,265.806 97.548,265.806 97.6407,260.303 97.7335,260.047 97.8262,260.559 97.9189,264.014 98.0116,265.806 98.1043,264.654 98.1971,260.303 98.2898,260.559 98.3825,260.559 98.4752,260.303 98.5679,260.559 98.6607,260.303 98.7534,260.303 98.8461,265.806 98.9388,258.512 99.0315,260.559 99.1242,265.294 99.217,260.303 99.3097,259.919 99.4024,260.559 99.4951,259.919 99.5878,260.303 99.6805,260.303 99.7733,258.512 99.866,260.303 99.9587,260.047 100.051,260.303 100.144,260.047 100.237,260.559 100.33,259.919 100.422,260.559 100.515,260.303 100.608,260.559 100.7,260.559 100.793,260.303 100.886,260.303 100.979,260.303 101.071,260.559 101.164,260.303 101.257,265.55 101.349,258.768 101.442,260.559 101.535,260.303 101.628,260.559 101.72,265.294 101.813,260.559 101.906,260.047 101.998,258.768 102.091,260.303 102.184,260.559 102.277,260.559 102.369,260.047 102.462,260.559 102.555,258.768 102.648,260.559 102.74,260.559 102.833,260.303 102.926,260.559 103.018,260.303 103.111,260.047 103.204,260.303 103.297,265.166 103.389,265.806 103.482,260.559 103.575,258.512 103.667,265.55 103.76,249.298 103.853,260.559 103.946,244.051 104.038,260.559 104.131,237.908 104.224,254.161 104.316,266.83 104.409,255.312 104.502,249.937 104.595,249.937 104.687,249.937 104.78,238.804 104.873,255.312 104.965,244.691 105.058,254.161 105.151,249.298 105.244,248.658 105.336,259.663 105.429,259.919 105.522,265.806 105.614,260.559 105.707,265.806 105.8,260.559 105.893,266.446 105.985,277.452 106.078,256.336 106.171,271.437 106.264,256.848 106.356,244.691 106.449,256.976 106.542,238.164 106.634,249.042 106.727,245.586 106.82,245.586 106.913,244.435 107.005,249.042 107.098,250.449 107.191,250.833 107.283,250.577 107.376,250.833 107.469,250.833 107.562,250.577 107.654,250.833 107.747,250.577 107.84,250.449 107.932,250.833 108.025,250.577 108.118,250.833 108.211,250.577 108.303,250.577 108.396,250.833 108.489,250.833 108.581,250.449 108.674,245.33 108.767,250.833 108.86,250.577 108.952,250.577 109.045,250.577 109.138,249.042 109.23,250.577 109.323,250.577 109.416,250.577 109.509,249.042 109.601,250.577 109.694,250.577 109.787,250.577 109.88,250.577 109.972,244.946 110.065,244.946 110.158,250.833 110.25,250.577 110.343,244.946 110.436,248.914 110.529,250.577 110.621,244.946 110.714,250.577 110.807,249.042 110.899,250.577 110.992,248.914 111.085,250.833 111.178,249.042 111.27,250.577 111.363,250.577 111.456,250.449 111.548,244.946 111.641,250.193 111.734,250.833 111.827,250.577 111.919,250.577 112.012,250.577 112.105,245.33 112.197,243.155 112.29,244.946 112.383,250.577 112.476,250.833 112.568,244.946 112.661,250.449 112.754,244.946 112.846,244.946 112.939,244.946 113.032,244.946 113.125,244.946 113.217,244.435 113.31,244.946 113.403,250.449 113.495,250.577 113.588,243.411 113.681,250.833 113.774,243.411 113.866,250.833 113.959,244.946 114.052,250.833 114.145,250.577 114.237,244.691 114.33,250.577 114.423,250.577 114.515,250.577 114.608,250.449 114.701,250.577 114.794,250.577 114.886,250.577 114.979,250.449 115.072,244.946 115.164,244.946 115.257,250.577 115.35,250.577 115.443,244.946 115.535,244.946 115.628,250.577 115.721,250.577 115.813,250.577 115.906,250.577 115.999,244.946 116.092,244.946 116.184,244.946 116.277,250.577 116.37,244.946 116.462,244.946 116.555,250.833 116.648,250.577 116.741,244.946 116.833,244.946 116.926,244.946 117.019,250.449 117.111,243.155 117.204,244.435 117.297,249.042 117.39,250.577 117.482,250.577 117.575,250.577 117.668,250.577 117.761,250.577 117.853,250.577 117.946,250.577 118.039,245.33 118.131,244.946 118.224,250.577 118.317,250.577 118.41,244.946 118.502,250.577 118.595,245.202 118.688,250.577 118.78,250.833 118.873,249.042 118.966,250.449 119.059,250.577 119.151,250.449 119.244,250.577 119.337,244.946 119.429,249.042 119.522,250.577 119.615,248.914 119.708,250.577 119.8,249.042 119.893,250.577 119.986,249.042 120.078,244.946 120.171,249.042 120.264,250.833 120.357,250.577 120.449,250.577 120.542,250.577 120.635,244.946 120.727,250.577 120.82,250.577 120.913,250.577 121.006,244.946 121.098,250.577 121.191,250.449 121.284,250.577 121.376,250.577 121.469,250.577 121.562,250.833 121.655,250.577 121.747,244.946 121.84,250.577 121.933,250.577 122.026,244.946 122.118,250.577 122.211,250.577 122.304,249.042 122.396,250.577 122.489,250.577 122.582,250.833 122.675,250.193 122.767,250.577 122.86,250.449 122.953,250.577 123.045,244.435 123.138,250.833 123.231,250.449 123.324,250.577 123.416,250.577 123.509,250.833 123.602,250.577 123.694,244.946 123.787,250.833 123.88,250.577 123.973,250.449 124.065,250.577 124.158,250.577 124.251,250.577 124.343,250.833 124.436,250.577 124.529,250.577 124.622,250.833 124.714,250.833 124.807,250.577 124.9,250.833 124.992,244.946 125.085,250.577 125.178,250.833 125.271,244.946 125.363,250.833 125.456,250.577 125.549,244.946 125.642,244.946 125.734,250.193 125.827,244.946 125.92,250.833 126.012,250.577 126.105,250.577 126.198,250.577 126.291,250.577 126.383,250.577 126.476,250.577 126.569,250.577 126.661,250.577 126.754,244.946 126.847,244.946 126.94,243.155 127.032,244.946 127.125,243.795 127.218,244.946 127.31,244.946 127.403,250.577 127.496,250.577 127.589,244.946 127.681,250.193 127.774,250.833 127.867,248.658 127.959,244.946 128.052,244.946 128.145,250.577 128.238,250.833 128.33,250.577 128.423,250.577 128.516,250.833 128.608,250.577 128.701,250.577 128.794,244.946 128.887,244.946 128.979,244.691 129.072,249.042 129.165,250.833 129.258,244.435 129.35,244.946 129.443,250.577 129.536,250.577 129.628,250.577 129.721,250.577 129.814,250.577 129.907,250.577 129.999,244.946 130.092,249.042 130.185,244.946 130.277,250.577 130.37,250.577 130.463,242.771 130.556,244.946 130.648,250.577 130.741,250.833 130.834,244.946 130.926,244.946 131.019,250.577 131.112,250.577 131.205,250.833 131.297,250.833 131.39,248.402 131.483,250.833 131.575,250.577 131.668,250.577 131.761,248.658 131.854,250.833 131.946,245.202 132.039,244.946 132.132,250.833 132.224,244.946 132.317,250.833 132.41,244.946 132.503,244.946 132.595,250.577 132.688,250.577 132.781,244.946 132.874,250.577 132.966,250.833 133.059,250.577 133.152,244.946 133.244,250.577 133.337,250.577 133.43,245.33 133.523,245.586 133.615,250.577 133.708,250.833 133.801,245.33 133.893,239.7 133.986,272.973 134.079,261.199 134.172,249.937 134.264,244.946 134.357,239.7 134.45,261.199 134.542,227.414 134.635,249.937 134.728,239.06 134.821,249.553 134.913,249.553 135.006,271.693 135.099,249.553 135.191,259.023 135.284,260.559 135.377,270.157 135.47,271.437 135.562,265.806 135.655,265.166 135.748,255.312 135.84,257.616 135.933,255.312 136.026,243.411 136.119,260.559 136.211,226.774 136.304,276.94 136.397,273.74 136.489,240.979 136.582,271.949 136.675,244.307 136.768,232.021 136.86,228.438 136.953,233.941 137.046,228.438 137.139,228.438 137.231,233.685 137.324,228.438 137.417,228.438 137.509,233.685 137.602,239.7 137.695,245.586 137.788,245.586 137.88,239.7 137.973,254.8 138.066,268.366 138.158,267.086 138.251,246.226 138.344,248.658 138.437,244.307 138.529,252.113 138.622,235.732 138.715,264.526 138.807,250.577 138.9,269.133 138.993,234.453 139.086,228.438 139.178,229.846 139.271,243.411 139.364,216.792 139.456,218.584 139.549,227.414 139.642,223.831 139.735,240.979 139.827,233.045 139.92,244.946 140.013,239.7 140.105,239.7 140.198,232.661 140.291,239.7 140.384,234.453 140.476,239.7 140.569,234.453 140.662,234.581 140.755,239.7 140.847,239.7 140.94,239.7 141.033,234.453 141.125,239.7 141.218,239.7 141.311,239.7 141.404,234.453 141.496,234.453 141.589,234.453 141.682,239.7 141.774,234.197 141.867,239.7 141.96,239.7 142.053,234.453 142.145,239.7 142.238,239.7 142.331,239.828 142.423,239.7 142.516,234.453 142.609,239.7 142.702,239.7 142.794,234.453 142.887,233.941 142.98,234.453 143.072,234.453 143.165,237.908 143.258,233.941 143.351,239.7 143.443,234.453 143.536,239.7 143.629,233.941 143.721,234.453 143.814,234.453 143.907,234.197 144,234.453 144.092,233.941 144.185,234.453 144.278,234.453 144.37,234.453 144.463,237.908 144.556,234.453 144.649,234.453 144.741,234.453 144.834,239.7 144.927,239.7 145.02,239.188 145.112,234.453 145.205,239.7 145.298,239.7 145.39,234.453 145.483,234.453 145.576,234.453 145.669,234.453 145.761,239.7 145.854,234.453 145.947,234.453 146.039,232.405 146.132,234.453 146.225,239.7 146.318,239.7 146.41,234.453 146.503,234.453 146.596,239.7 146.688,234.453 146.781,239.7 146.874,234.197 146.967,234.453 147.059,234.453 147.152,234.453 147.245,234.453 147.337,239.7 147.43,234.453 147.523,239.7 147.616,234.197 147.708,234.197 147.801,234.453 147.894,234.197 147.986,234.453 148.079,239.188 148.172,234.197 148.265,239.7 148.357,234.453 148.45,234.453 148.543,234.453 148.636,237.908 148.728,234.453 148.821,239.7 148.914,234.453 149.006,234.453 149.099,234.453 149.192,239.7 149.285,234.453 149.377,234.453 149.47,238.164 149.563,239.828 149.655,234.453 149.748,239.7 149.841,234.453 149.934,234.453 150.026,234.197 150.119,239.7 150.212,233.941 150.304,234.453 150.397,234.453 150.49,233.941 150.583,239.7 150.675,239.7 150.768,239.7 150.861,234.453 150.953,239.7 151.046,239.7 151.139,239.7 151.232,234.453 151.324,239.7 151.417,234.453 151.51,239.7 151.602,234.453 151.695,234.453 151.788,234.453 151.881,234.453 151.973,239.7 152.066,234.453 152.159,239.7 152.252,234.453 152.344,234.453 152.437,234.581 152.53,234.453 152.622,234.453 152.715,234.453 152.808,234.453 152.901,234.453 152.993,239.7 153.086,239.444 153.179,238.292 153.271,228.438 153.364,236.372 153.457,262.095 153.55,229.846 153.642,228.438 153.735,235.093 153.828,229.846 153.92,227.798 154.013,235.093 154.106,222.167 154.199,226.774 154.291,272.333 154.384,216.153 154.477,221.399 154.569,221.271 154.662,221.399 154.755,221.399 154.848,226.774 154.94,226.774 155.033,221.271 155.126,226.774 155.218,221.271 155.311,221.399 155.404,221.655 155.497,221.271 155.589,221.399 155.682,226.518 155.775,226.774 155.867,221.399 155.96,221.399 156.053,226.774 156.146,226.774 156.238,221.271 156.331,221.271 156.424,221.271 156.517,221.399 156.609,221.271 156.702,221.655 156.795,226.774 156.887,226.774 156.98,221.271 157.073,226.774 157.166,221.271 157.258,221.271 157.351,226.774 157.444,226.774 157.536,222.935 157.629,221.271 157.722,221.271 157.815,221.271 157.907,221.271 158,221.271 158.093,221.271 158.185,226.774 158.278,226.774 158.371,221.271 158.464,221.271 158.556,221.399 158.649,221.271 158.742,221.399 158.834,232.149 158.927,226.518 159.02,221.271 159.113,221.271 159.205,221.271 159.298,221.271 159.391,221.271 159.483,221.399 159.576,221.271 159.669,221.271 159.762,226.774 159.854,232.149 159.947,221.271 160.04,232.149 160.133,221.271 160.225,221.271 160.318,221.399 160.411,221.271 160.503,221.271 160.596,221.271 160.689,232.149 160.782,232.149 160.874,221.271 160.967,221.271 161.06,226.518 161.152,226.518 161.245,221.271 161.338,221.271 161.431,226.774 161.523,226.518 161.616,226.518 161.709,226.518 161.801,226.518 161.894,226.518 161.987,226.518 162.08,226.518 162.172,226.518 162.265,226.518 162.358,226.518 162.45,221.271 162.543,226.518 162.636,226.774 162.729,226.518 162.821,226.518 162.914,232.405 163.007,226.518 163.099,226.774 163.192,226.774 163.285,221.271 163.378,221.271 163.47,232.149 163.563,232.405 163.656,221.271 163.749,232.149 163.841,226.518 163.934,221.271 164.027,226.518 164.119,226.518 164.212,226.518 164.305,221.399 164.398,226.774 164.49,226.518 164.583,232.405 164.676,226.262 164.768,232.405 164.861,221.271 164.954,226.774 165.047,226.774 165.139,227.798 165.232,221.271 165.325,221.271 165.417,226.518 165.51,226.518 165.603,226.774 165.696,221.271 165.788,226.774 165.881,226.774 165.974,226.774 166.066,226.518 166.159,226.518 166.252,226.774 166.345,226.774 166.437,226.518 166.53,221.271 166.623,221.399 166.715,221.271 166.808,226.518 166.901,226.774 166.994,226.518 167.086,226.518 167.179,221.271 167.272,221.016 167.365,226.518 167.457,232.149 167.55,232.149 167.643,221.271 167.735,221.399 167.828,221.271 167.921,226.518 168.014,221.271 168.106,226.518 168.199,221.271 168.292,221.271 168.384,221.271 168.477,221.271 168.57,221.271 168.663,221.271 168.755,226.518 168.848,222.167 168.941,226.518 169.033,226.774 169.126,221.271 169.219,226.518 169.312,221.399 169.404,226.518 169.497,226.518 169.59,226.518 169.682,221.271 169.775,221.271 169.868,226.518 169.961,226.774 170.053,226.518 170.146,221.271 170.239,221.271 170.331,221.271 170.424,221.271 170.517,226.774 170.61,226.774 170.702,221.271 170.795,226.774 170.888,226.774 170.98,221.271 171.073,221.271 171.166,221.271 171.259,221.271 171.351,226.518 171.444,232.149 171.537,226.774 171.63,226.774 171.722,221.271 171.815,221.271 171.908,226.518 172,221.271 172.093,221.271 172.186,226.518 172.279,226.518 172.371,226.518 172.464,221.271 172.557,221.271 172.649,222.935 172.742,221.271 172.835,221.399 172.928,226.774 173.02,221.271 173.113,226.774 173.206,221.271 173.298,221.271 173.391,221.271 173.484,221.271 173.577,221.271 173.669,226.774 173.762,221.271 173.855,221.016 173.947,226.774 174.04,221.271 174.133,221.399 174.226,221.271 174.318,226.518 174.411,226.774 174.504,226.518 174.596,221.399 174.689,226.518 174.782,221.271 174.875,221.271 174.967,221.399 175.06,221.271 175.153,226.774 175.246,221.271 175.338,221.271 175.431,221.271 175.524,221.399 175.616,221.271 175.709,221.399 175.802,226.774 175.895,221.271 175.987,221.271 176.08,221.271 176.173,221.271 176.265,221.271 176.358,221.271 176.451,221.271 176.544,221.271 176.636,226.774 176.729,221.271 176.822,226.774 176.914,221.271 177.007,222.551 177.1,226.518 177.193,226.774 177.285,221.016 177.378,221.271 177.471,221.271 177.563,226.774 177.656,221.271 177.749,221.399 177.842,221.271 177.934,221.271 178.027,226.774 178.12,226.518 178.212,221.271 178.305,226.774 178.398,221.271 178.491,226.518 178.583,221.271 178.676,221.271 178.769,221.271 178.861,221.271 178.954,226.518 179.047,221.271 179.14,226.774 179.232,221.271 179.325,221.271 179.418,221.911 179.511,232.405 179.603,221.399 179.696,226.774 179.789,226.774 179.881,226.774 179.974,221.271 180.067,226.774 180.16,221.271 180.252,221.271 180.345,221.271 180.438,226.006 180.53,237.012 180.623,257.616 180.716,237.524 180.809,237.652 180.901,269.133 180.994,242.771 181.087,232.405 181.179,248.018 181.272,216.025 181.365,216.153 181.458,221.271 181.55,216.153 181.643,221.399 181.736,216.153 181.828,221.911 181.921,189.662 182.014,216.025 182.107,210.906 182.199,210.65 182.292,216.025 182.385,210.906 182.477,237.524 182.57,221.271 182.663,221.271 182.756,230.486 182.848,236.116 182.941,220.376 183.034,230.486 183.127,225.879 183.219,225.879 183.312,231.125 183.405,235.732 183.497,224.471 183.59,214.873 183.683,231.125 183.776,225.879 183.868,220.632 183.961,236.756 184.054,226.518 184.146,220.632 184.239,237.268 184.332,237.652 184.425,246.866 184.517,216.025 184.61,233.045 184.703,240.339 184.795,242.131 184.888,247.506 184.981,242.131 185.074,242.131 185.166,242.259 185.259,242.259 185.352,242.259 185.444,242.131 185.537,242.131 185.63,241.875 185.723,247.506 185.815,242.259 185.908,242.131 186.001,242.131 186.093,241.875 186.186,242.131 186.279,241.619 186.372,245.586 186.464,247.506 186.557,242.259 186.65,242.131 186.743,242.131 186.835,242.131 186.928,242.131 187.021,242.131 187.113,241.619 187.206,242.131 187.299,242.131 187.392,242.131 187.484,242.131 187.577,242.259 187.67,242.131 187.762,242.131 187.855,242.131 187.948,242.131 188.041,247.506 188.133,242.259 188.226,242.131 188.319,242.259 188.411,252.881 188.504,263.758 188.597,263.375 188.69,263.758 188.782,258.128 188.875,263.758 188.968,251.345 189.06,212.185 189.153,199.772 189.246,211.418 189.339,196.829 189.431,229.846 189.524,216.153 189.617,217.56 189.709,253.265 189.802,199.516 189.895,202.076 189.988,200.54 190.08,206.299 190.173,206.683 190.266,206.043 190.358,206.299 190.451,206.683 190.544,206.043 190.637,211.418 190.729,197.98 190.822,194.909 190.915,215.513 191.008,199.772 191.1,205.659 191.193,200.796 191.286,202.076 191.378,205.659 191.471,200.412 191.564,205.659 191.657,205.659 191.749,205.659 191.842,205.659 191.935,205.659 192.027,205.659 192.12,205.659 192.213,205.659 192.306,205.659 192.398,207.45 192.491,200.412 192.584,205.659 192.676,206.043 192.769,201.692 192.862,205.659 192.955,205.659 193.047,206.043 193.14,207.45 193.233,205.659 193.325,200.412 193.418,205.659 193.511,207.45 193.604,205.915 193.696,205.659 193.789,205.659 193.882,200.412 193.974,205.659 194.067,206.043 194.16,200.412 194.253,205.659 194.345,200.412 194.438,205.659 194.531,200.412 194.624,202.076 194.716,205.659 194.809,205.659 194.902,200.412 194.994,206.299 195.087,205.659 195.18,205.659 195.273,202.076 195.365,205.659 195.458,200.412 195.551,205.659 195.643,207.45 195.736,199.9 195.829,199.9 195.922,200.412 196.014,207.45 196.107,205.659 196.2,205.659 196.292,200.412 196.385,202.076 196.478,206.043 196.571,205.659 196.663,200.412 196.756,200.412 196.849,206.299 196.941,205.659 197.034,200.412 197.127,207.578 197.22,199.9 197.312,200.412 197.405,200.412 197.498,207.45 197.59,205.659 197.683,205.659 197.776,205.659 197.869,200.796 197.961,205.659 198.054,200.412 198.147,205.659 198.24,206.043 198.332,200.412 198.425,205.659 198.518,202.587 198.61,200.412 198.703,205.659 198.796,200.412 198.889,201.436 198.981,205.659 199.074,205.659 199.167,205.659 199.259,207.45 199.352,205.659 199.445,205.659 199.538,205.659 199.63,207.45 199.723,200.412 199.816,205.403 199.908,205.659 200.001,207.45 200.094,200.412 200.187,205.659 200.279,205.659 200.372,207.45 200.465,205.659 200.557,205.659 200.65,206.043 200.743,205.915 200.836,200.412 200.928,205.659 201.021,207.45 201.114,205.403 201.206,200.412 201.299,205.659 201.392,207.45 201.485,205.659 201.577,205.659 201.67,205.659 201.763,205.659 201.855,205.659 201.948,205.659 202.041,205.659 202.134,200.412 202.226,200.412 202.319,202.587 202.412,205.403 202.505,205.659 202.597,205.659 202.69,206.043 202.783,200.412 202.875,205.659 202.968,199.9 203.061,206.043 203.154,200.412 203.246,205.659 203.339,200.412 203.432,200.412 203.524,200.412 203.617,205.659 203.71,200.412 203.803,205.659 203.895,200.412 203.988,205.659 204.081,202.076 204.173,205.659 204.266,200.412 204.359,205.659 204.452,205.659 204.544,199.9 204.637,205.659 204.73,200.156 204.822,207.45 204.915,200.412 205.008,200.412 205.101,200.412 205.193,200.796 205.286,205.915 205.379,205.659 205.471,205.659 205.564,207.45 205.657,199.9 205.75,205.659 205.842,205.659 205.935,205.659 206.028,205.403 206.121,200.412 206.213,205.659 206.306,207.45 206.399,205.659 206.491,200.412 206.584,205.659 206.677,205.659 206.77,205.659 206.862,205.659 206.955,200.796 207.048,205.659 207.14,205.659 207.233,200.412 207.326,206.043 207.419,205.659 207.511,205.659 207.604,200.412 207.697,207.45 207.789,205.659 207.882,205.659 207.975,205.659 208.068,205.659 208.16,201.052 208.253,205.659 208.346,205.659 208.438,206.043 208.531,205.659 208.624,200.412 208.717,205.659 208.809,207.45 208.902,205.659 208.995,205.659 209.087,206.043 209.18,200.412 209.273,205.659 209.366,205.659 209.458,202.076 209.551,199.9 209.644,205.659 209.737,205.659 209.829,207.45 209.922,205.659 210.015,205.915 210.107,200.412 210.2,202.076 210.293,205.659 210.386,206.299 210.478,205.659 210.571,205.659 210.664,205.659 210.756,205.659 210.849,200.412 210.942,200.412 211.035,207.45 211.127,205.659 211.22,205.659 211.313,200.412 211.405,202.076 211.498,200.412 211.591,205.659 211.684,200.796 211.776,202.076 211.869,200.412 211.962,200.412 212.054,200.796 212.147,202.076 212.24,200.412 212.333,200.412 212.425,200.796 212.518,202.076 212.611,200.412 212.703,200.412 212.796,205.659 212.889,200.412 212.982,200.412 213.074,200.412 213.167,200.412 213.26,205.915 213.352,205.659 213.445,205.659 213.538,205.659 213.631,202.076 213.723,200.412 213.816,205.659 213.909,205.659 214.002,207.45 214.094,205.659 214.187,205.659 214.28,205.659 214.372,207.578 214.465,205.659 214.558,200.156 214.651,206.043 214.743,205.659 214.836,205.659 214.929,205.659 215.021,205.659 215.114,205.659 215.207,200.412 215.3,207.45 215.392,200.412 215.485,200.412 215.578,201.948 215.67,200.412 215.763,200.412 215.856,205.915 215.949,207.45 216.041,205.659 216.134,205.659 216.227,199.9 216.319,207.45 216.412,205.659 216.505,205.659 216.598,206.043 216.69,207.45 216.783,205.659 216.876,205.659 216.968,205.659 217.061,205.659 217.154,205.659 217.247,205.659 217.339,202.076 217.432,205.659 217.525,200.412 217.618,205.659 217.71,199.9 217.803,205.659 217.896,205.659 217.988,206.043 218.081,207.45 218.174,205.659 218.267,205.659 218.359,199.9 218.452,207.45 218.545,205.659 218.637,205.659 218.73,205.659 218.823,200.412 218.916,199.9 219.008,205.659 219.101,206.043 219.194,207.194 219.286,205.659 219.379,200.412 219.472,201.692 219.565,200.412 219.657,206.043 219.75,205.659 219.843,205.659 219.935,205.659 220.028,200.412 220.121,202.076 220.214,205.659 220.306,205.659 220.399,205.659 220.492,206.683 220.584,205.659 220.677,205.659 220.77,200.412 220.863,200.412 220.955,205.659 221.048,205.659 221.141,205.915 221.234,207.45 221.326,205.659 221.419,200.796 221.512,205.659 221.604,207.45 221.697,200.412 221.79,200.412 221.883,202.076 221.975,200.412 222.068,200.54 222.161,200.412 222.253,205.659 222.346,205.659 222.439,200.412 222.532,200.412 222.624,200.412 222.717,200.412 222.81,200.412 222.902,200.412 222.995,200.412 223.088,200.796 223.181,200.412 223.273,202.076 223.366,205.403 223.459,205.659 223.551,205.659 223.644,200.412 223.737,200.412 223.83,199.9 223.922,205.659 224.015,194.653 224.108,199.9 224.2,194.397 224.293,207.45 224.386,205.659 224.479,216.792 224.571,196.445 224.664,210.906 224.757,199.9 224.85,210.906 224.942,205.019 225.035,216.664 225.128,205.147 225.22,199.772 225.313,196.189 225.406,227.798 225.499,205.659 225.591,189.79 225.684,237.652 225.777,195.293 225.869,195.549 225.962,195.293 226.055,190.302 226.148,206.299 226.24,202.843 226.333,223.191 226.426,201.052 226.518,216.664 226.611,194.397 226.704,194.397 226.797,210.65 226.889,205.019 226.982,209.626 227.075,199.004 227.167,199.004 227.26,199.516 227.353,200.54 227.446,199.26 227.538,199.26 227.631,199.516 227.724,199.004 227.816,199.004 227.909,199.26 228.002,199.004 228.095,200.796 228.187,199.004 228.28,199.004 228.373,199.004 228.465,199.004 228.558,199.004 228.651,199.004 228.744,199.004 228.836,199.516 228.929,200.796 229.022,199.004 229.115,199.004 229.207,199.26 229.3,199.516 229.393,200.796 229.485,193.373 229.578,193.373 229.671,193.373 229.764,193.373 229.856,193.373 229.949,195.165 230.042,193.373 230.134,193.373 230.227,204.507 230.32,200.412 230.413,199.26 230.505,229.078 230.598,182.88 230.691,199.004 230.783,245.586 230.876,177.761 230.969,172.258 231.062,207.45 231.154,188.126 231.247,173.794 231.34,186.079 231.432,192.734 231.525,186.719 231.618,189.022 231.711,186.975 231.803,186.719 231.896,186.719 231.989,186.719 232.081,186.719 232.174,186.719 232.267,189.022 232.36,186.975 232.452,186.719 232.545,186.719 232.638,186.719 232.73,186.719 232.823,188.51 232.916,186.719 233.009,186.719 233.101,186.719 233.194,186.719 233.287,186.719 233.38,189.022 233.472,187.231 233.565,186.719 233.658,186.719 233.75,186.719 233.843,188.51 233.936,187.231 234.029,186.719 234.121,186.719 234.214,186.975 234.307,186.719 234.399,189.022 234.492,186.719 234.585,186.975 234.678,186.719 234.77,186.719 234.863,188.51 234.956,187.231 235.048,186.719 235.141,186.719 235.234,186.719 235.327,186.591 235.419,188.126 235.512,189.022 235.605,187.231 235.697,186.719 235.79,186.719 235.883,186.719 235.976,188.51 236.068,187.231 236.161,186.719 236.254,186.719 236.346,186.719 236.439,186.719 236.532,186.975 236.625,186.719 236.717,187.231 236.81,187.231 236.903,186.719 236.996,186.719 237.088,186.719 237.181,188.51 237.274,186.719 237.366,186.591 237.459,186.719 237.552,186.719 237.645,188.51 237.737,186.975 237.83,187.231 237.923,186.719 238.015,186.719 238.108,188.51 238.201,187.487 238.294,187.231 238.386,186.591 238.479,186.975 238.572,186.719 238.664,188.51 238.757,186.975 238.85,186.719 238.943,187.231 239.035,186.719 239.128,187.487 239.221,186.975 239.313,187.231 239.406,186.719 239.499,186.719 239.592,188.254 239.684,186.719 239.777,186.719 239.87,186.975 239.962,186.719 240.055,188.51 240.148,186.719 240.241,186.719 240.333,186.719 240.426,186.719 240.519,188.51 240.612,186.719 240.704,186.719 240.797,186.719 240.89,186.719 240.982,187.231 241.075,186.719 241.168,188.51 241.261,186.719 241.353,186.719 241.446,186.591 241.539,186.975 241.631,187.231 241.724,186.719 241.817,188.51 241.91,186.719 242.002,186.719 242.095,187.231 242.188,186.719 242.28,188.51 242.373,188.51 242.466,186.719 242.559,186.719 242.651,186.719 242.744,186.719 242.837,188.51 242.929,186.719 243.022,186.975 243.115,186.719 243.208,186.719 243.3,187.231 243.393,188.766 243.486,186.591 243.578,186.719 243.671,186.719 243.764,186.719 243.857,186.719 243.949,189.022 244.042,186.719 244.135,186.719 244.228,186.719 244.32,186.719 244.413,186.719 244.506,187.615 244.598,189.022 244.691,186.719 244.784,186.719 244.877,186.719 244.969,186.719 245.062,189.022 245.155,186.719 245.247,186.719 245.34,186.719 245.433,186.719 245.526,189.022 245.618,186.719 245.711,186.975 245.804,186.719 245.896,186.719 245.989,189.022 246.082,186.975 246.175,186.719 246.267,186.719 246.36,186.719 246.453,188.51 246.545,186.975 246.638,186.719 246.731,186.719 246.824,186.975 246.916,186.719 247.009,188.51 247.102,187.231 247.194,186.719 247.287,186.719 247.38,186.719 247.473,188.51 247.565,187.231 247.658,186.719 247.751,186.719 247.843,186.719 247.936,187.487 248.029,188.51 248.122,187.231 248.214,187.231 248.307,186.719 248.4,186.719 248.493,186.719 248.585,188.51 248.678,187.231 248.771,186.719 248.863,186.719 248.956,186.719 249.049,186.719 249.142,188.51 249.234,186.719 249.327,187.231 249.42,186.719 249.512,186.719 249.605,186.719 249.698,188.51 249.791,187.231 249.883,186.719 249.976,186.719 250.069,186.719 250.161,188.51 250.254,186.719 250.347,187.231 250.44,186.719 250.532,186.719 250.625,186.719 250.718,188.51 250.81,187.231 250.903,186.719 250.996,186.719 251.089,186.719 251.181,186.719 251.274,186.719 251.367,187.231 251.459,186.719 251.552,186.719 251.645,186.719 251.738,186.975 251.83,188.51 251.923,186.719 252.016,187.231 252.109,186.719 252.201,186.975 252.294,188.51 252.387,186.719 252.479,187.231 252.572,186.975 252.665,186.975 252.758,188.51 252.85,188.51 252.943,186.719 253.036,187.231 253.128,186.719 253.221,186.719 253.314,188.51 253.407,186.719 253.499,187.231 253.592,186.975 253.685,186.719 253.777,186.719 253.87,187.231 253.963,187.231 254.056,187.231 254.148,186.719 254.241,186.719 254.334,181.088 254.426,188.51 254.519,186.719 254.612,186.719 254.705,187.231 254.797,186.719 254.89,192.094 254.983,199.004 255.075,192.094 255.168,203.611 255.261,197.98 255.354,197.724 255.446,204.123 255.539,192.734 255.632,198.236 255.725,203.867 255.817,199.004 255.91,203.867 256.003,205.019 256.095,187.615 256.188,200.412 256.281,187.487 256.374,210.01 256.466,198.62 256.559,182.112 256.652,182.112 256.744,189.15 256.837,178.017 256.93,177.505 257.023,182.624 257.115,182.112 257.208,203.867 257.301,183.264 257.393,209.882 257.486,192.478 257.579,192.734 257.672,187.487 257.764,195.165 257.857,183.903 257.95,188.254 258.042,199.772 258.135,199.9 258.228,205.659 258.321,248.914 258.413,198.62 258.506,203.611 258.599,205.019 258.691,204.763 258.784,183.264 258.877,188.126 258.97,193.373 259.062,211.418 259.155,209.882 259.248,243.667 259.34,169.698 259.433,218.2 259.526,200.54 259.619,156.261 259.711,173.794 259.804,165.091 259.897,163.044 259.99,167.651 260.082,178.656 260.175,178.401 260.268,178.401 260.36,178.401 260.453,179.936 260.546,178.273 260.639,178.401 260.731,178.656 260.824,178.656 260.917,178.273 261.009,180.192 261.102,179.552 261.195,178.401 261.288,178.656 261.38,178.401 261.473,180.192 261.566,179.936 261.658,179.936 261.751,178.273 261.844,178.273 261.937,178.401 262.029,178.656 262.122,178.656 262.215,178.656 262.307,179.04 262.4,179.936 262.493,179.936 262.586,178.273 262.678,178.401 262.771,178.656 262.864,178.273 262.956,179.936 263.049,178.273 263.142,178.401 263.235,178.401 263.327,178.656 263.42,178.656 263.513,179.936 263.605,178.401 263.698,178.401 263.791,178.401 263.884,178.273 263.976,178.401 264.069,178.656 264.162,179.936 264.255,178.273 264.347,178.401 264.44,178.401 264.533,178.273 264.625,180.448 264.718,179.936 264.811,178.273 264.904,178.273 264.996,178.401 265.089,178.401 265.182,178.401 265.274,180.448 265.367,178.273 265.46,178.273 265.553,178.273 265.645,178.273 265.738,178.401 265.831,178.401 265.923,178.401 266.016,178.273 266.109,178.273 266.202,180.448 266.294,178.656 266.387,178.401 266.48,178.273 266.572,178.401 266.665,178.273 266.758,178.401 266.851,180.448 266.943,178.656 267.036,178.273 267.129,178.273 267.221,178.401 267.314,178.401 267.407,178.273 267.5,178.401 267.592,180.448 267.685,178.656 267.778,178.401 267.871,178.401 267.963,178.273 268.056,178.401 268.149,178.401 268.241,180.448 268.334,178.656 268.427,178.401 268.52,178.273 268.612,178.273 268.705,178.273 268.798,179.936 268.89,180.448 268.983,178.656 269.076,178.656 269.169,178.273 269.261,178.273 269.354,178.401 269.447,179.936 269.539,178.656 269.632,178.912 269.725,178.656 269.818,178.401 269.91,178.273 270.003,178.401 270.096,179.936 270.188,178.273 270.281,178.656 270.374,178.656 270.467,178.273 270.559,178.273 270.652,178.273 270.745,179.936 270.837,179.936 270.93,178.656 271.023,178.656 271.116,178.401 271.208,178.273 271.301,178.273 271.394,179.936 271.487,179.936 271.579,179.936 271.672,178.273 271.765,178.401 271.857,178.656 271.95,178.273 272.043,178.273 272.136,179.936 272.228,178.273 272.321,178.273 272.414,178.656 272.506,178.656 272.599,178.401 272.692,178.273 272.785,179.936 272.877,178.401 272.97,178.273 273.063,178.656 273.155,173.41 273.248,178.273 273.341,179.936 273.434,179.936 273.526,178.401 273.619,178.273 273.712,178.656 273.804,173.41 273.897,178.273 273.99,179.936 274.083,178.401 274.175,178.273 274.268,178.273 274.361,178.273 274.453,178.656 274.546,178.401 274.639,174.689 274.732,174.689 274.824,179.936 274.917,178.273 275.01,178.656 275.103,178.656 275.195,179.04 275.288,178.273 275.381,178.273 275.473,178.273 275.566,178.273 275.659,178.656 275.752,178.656 275.844,179.936 275.937,178.273 276.03,178.273 276.122,178.273 276.215,178.273 276.308,178.656 276.401,179.936 276.493,178.273 276.586,178.273 276.679,178.401 276.771,178.273 276.864,178.656 276.957,179.936 277.05,180.192 277.142,178.401 277.235,178.273 277.328,178.273 277.42,178.273 277.513,175.201 277.606,179.936 277.699,180.448 277.791,179.936 277.884,178.273 277.977,178.401 278.069,178.273 278.162,178.401 278.255,178.273 278.348,180.448 278.44,178.401 278.533,178.401 278.626,178.273 278.719,178.273 278.811,180.448 278.904,178.273 278.997,178.273 279.089,178.273 279.182,178.401 279.275,180.448 279.368,180.448 279.46,178.273 279.553,178.273 279.646,178.401 279.738,178.401 279.831,178.273 279.924,180.448 280.017,178.273 280.109,178.273 280.202,178.401 280.295,178.401 280.387,178.273 280.48,178.401 280.573,179.936 280.666,180.448 280.758,178.273 280.851,178.273 280.944,178.401 281.036,178.401 281.129,178.273 281.222,179.936 281.315,175.201 281.407,175.201 281.5,178.401 281.593,178.273 281.685,178.273 281.778,178.401 281.871,180.448 281.964,173.41 282.056,178.273 282.149,178.273 282.242,178.401 282.334,178.401 282.427,178.273 282.52,180.448 282.613,180.448 282.705,178.401 282.798,178.273 282.891,178.273 282.984,178.273 283.076,178.401 283.169,180.448 283.262,178.656 283.354,178.401 283.447,178.401 283.54,178.401 283.633,178.273 283.725,178.273 283.818,178.401 283.911,180.448 284.003,178.656 284.096,178.273 284.189,178.401 284.282,178.401 284.374,178.401 284.467,178.401 284.56,178.401 284.652,180.576 284.745,178.656 284.838,178.401 284.931,178.401 285.023,178.401 285.116,179.936 285.209,179.296 285.301,178.656 285.394,178.401 285.487,178.401 285.58,178.401 285.672,178.273 285.765,178.273 285.858,179.936 285.951,178.401 286.043,178.656 286.136,178.656 286.229,178.273 286.321,178.273 286.414,179.936 286.507,178.273 286.6,178.656 286.692,178.656 286.785,178.401 286.878,178.273 286.97,179.936 287.063,179.936 287.156,179.936 287.249,178.401 287.341,178.656 287.434,178.656 287.527,178.273 287.619,178.401 287.712,179.936 287.805,178.273 287.898,178.401 287.99,178.656 288.083,178.656 288.176,178.273 288.268,178.273 288.361,179.936 288.454,178.273 288.547,178.401 288.639,178.401 288.732,178.656 288.825,178.656 288.917,179.936 289.01,178.273 289.103,178.273 289.196,178.273 289.288,178.273 289.381,178.401 289.474,178.401 289.566,178.656 289.659,179.936 289.752,178.401 289.845,178.401 289.937,178.273 290.03,178.656 290.123,180.448 290.215,179.936 290.308,178.401 290.401,178.273 290.494,178.273 290.586,178.273 290.679,178.273 290.772,178.656 290.865,179.936 290.957,178.273 291.05,178.273 291.143,178.273 291.235,172.898 291.328,178.401 291.421,178.401 291.514,178.273 291.606,178.656 291.699,179.936 291.792,178.273 291.884,178.401 291.977,178.401 292.07,178.401 292.163,178.401 292.255,179.296 292.348,180.448 292.441,180.448 292.533,178.273 292.626,178.273 292.719,178.273 292.812,178.273 292.904,178.401 292.997,178.273 293.09,179.936 293.182,178.656 293.275,178.656 293.368,178.273 293.461,178.273 293.553,178.273 293.646,178.401 293.739,179.936 293.831,178.656 293.924,178.656 294.017,178.273 294.11,178.273 294.202,178.401 294.295,178.273 294.388,178.273 294.481,179.936 294.573,178.273 294.666,178.656 294.759,178.656 294.851,178.656 294.944,178.273 295.037,179.936 295.13,179.936 295.222,178.273 295.315,178.656 295.408,173.41 295.5,178.273 295.593,178.273 295.686,179.936 295.779,178.273 295.871,178.656 295.964,178.656 296.057,178.273 296.149,178.273 296.242,179.936 296.335,178.401 296.428,178.273 296.52,178.656 296.613,178.273 296.706,178.273 296.798,179.936 296.891,178.401 296.984,178.273 297.077,178.401 297.169,184.159 297.262,177.761 297.355,151.91 297.447,184.543 297.54,194.013 297.633,183.903 297.726,155.877 297.818,172.258 297.911,182.88 298.004,162.404 298.097,184.543 298.189,154.982 298.282,172.898 298.375,207.578 298.467,202.971 298.56,182.112 298.653,153.574 298.746,271.693 298.838,179.296 298.931,190.686 299.024,184.799 299.116,175.329 299.209,200.412 299.302,156.645 299.395,162.66 299.487,136.937 299.58,137.577 299.673,145.767 299.765,141.544 299.858,145.767 299.951,140.904 300.044,142.184 300.136,136.937 300.229,199.9 300.322,156.005 300.414,188.766 300.507,145.511 300.6,151.27 300.693,170.338 300.785,216.153 300.878,183.519 300.971,183.647 301.063,178.656 301.156,184.159 301.249,178.401 301.342,179.936 301.434,178.401 301.527,178.401 301.62,178.273 301.712,178.401 301.805,178.401 301.898,178.656 301.991,178.656 302.083,178.401 302.176,178.273 302.269,178.401 302.362,178.273 302.454,178.401 302.547,178.656 302.64,178.273 302.732,179.936 302.825,178.273 302.918,178.273 303.011,178.273 303.103,184.159 303.196,178.401 303.289,179.936 303.381,178.401 303.474,178.401 303.567,178.273 303.66,178.273 303.752,178.912 303.845,178.656 303.938,178.401 304.03,179.936 304.123,178.401 304.216,178.401 304.309,178.273 304.401,178.401 304.494,178.656 304.587,178.656 304.679,180.192 304.772,179.936 304.865,178.401 304.958,178.273 305.05,178.401 305.143,178.273 305.236,178.656 305.328,178.656 305.421,179.936 305.514,178.273 305.607,178.273 305.699,178.401 305.792,178.273 305.885,178.656 305.978,179.936 306.07,178.401 306.163,178.273 306.256,178.401 306.348,178.401 306.441,178.273 306.534,178.656 306.627,179.936 306.719,179.936 306.812,205.147 306.905,156.261 306.997,192.094 307.09,159.972 307.183,154.342 307.276,129.259 307.368,163.3 307.461,162.148 307.554,131.946 307.646,184.159 307.739,150.119 307.832,149.735 307.925,172.258 308.017,171.874 308.11,149.863 308.203,149.735 308.295,149.735 308.388,149.735 308.481,149.735 308.574,149.735 308.666,149.735 308.759,149.479 308.852,149.479 308.944,149.223 309.037,149.223 309.13,149.735 309.223,149.735 309.315,149.735 309.408,149.735 309.501,149.735 309.594,149.735 309.686,149.863 309.779,149.735 309.872,149.735 309.964,149.735 310.057,155.365 310.15,149.863 310.243,149.735 310.335,149.223 310.428,149.863 310.521,149.735 310.613,149.863 310.706,149.735 310.799,149.735 310.892,149.735 310.984,149.735 311.077,149.735 311.17,149.735 311.262,149.735 311.355,149.223 311.448,149.223 311.541,147.687 311.633,147.431 311.726,147.431 311.819,147.431 311.911,149.735 312.004,149.735 312.097,149.735 312.19,149.735 312.282,149.735 312.375,149.735 312.468,149.735 312.56,149.863 312.653,155.621 312.746,147.943 312.839,149.735 312.931,149.735 313.024,148.199 313.117,149.735 313.21,149.735 313.302,149.735 313.395,149.735 313.488,149.735 313.58,149.735 313.673,149.735 313.766,149.735 313.859,149.735 313.951,149.735 314.044,149.863 314.137,149.735 314.229,149.735 314.322,149.863 314.415,149.735 314.508,147.943 314.6,147.943 314.693,149.735 314.786,149.735 314.878,149.863 314.971,149.735 315.064,149.735 315.157,149.735 315.249,149.735 315.342,149.863 315.435,149.735 315.527,149.735 315.62,149.863 315.713,149.735 315.806,149.735 315.898,149.735 315.991,149.735 316.084,149.735 316.176,149.735 316.269,149.735 316.362,149.735 316.455,149.863 316.547,149.735 316.64,149.735 316.733,149.735 316.825,149.735 316.918,149.863 317.011,149.863 317.104,149.735 317.196,149.735 317.289,149.735 317.382,149.735 317.475,149.735 317.567,149.735 317.66,148.199 317.753,149.735 317.845,147.943 317.938,147.943 318.031,149.735 318.124,149.735 318.216,149.735 318.309,149.863 318.402,149.735 318.494,149.735 318.587,149.735 318.68,149.735 318.773,149.735 318.865,149.735 318.958,149.735 319.051,149.735 319.143,149.735 319.236,149.735 319.329,149.735 319.422,149.735 319.514,149.735 319.607,149.735 319.7,149.863 319.792,149.863 319.885,148.199 319.978,149.735 320.071,149.735 320.163,149.863 320.256,149.863 320.349,149.863 320.441,149.735 320.534,149.735 320.627,149.223 320.72,149.863 320.812,149.735 320.905,149.735 320.998,149.735 321.091,149.735 321.183,149.735 321.276,149.223 321.369,149.735 321.461,149.735 321.554,149.735 321.647,149.735 321.74,149.735 321.832,149.863 321.925,149.735 322.018,149.735 322.11,149.863 322.203,149.735 322.296,149.863 322.389,149.863 322.481,149.863 322.574,149.735 322.667,149.863 322.759,149.735 322.852,149.863 322.945,149.735 323.038,149.735 323.13,149.863 323.223,149.735 323.316,149.735 323.408,149.735 323.501,149.735 323.594,149.863 323.687,149.735 323.779,149.735 323.872,149.735 323.965,149.735 324.057,149.735 324.15,149.735 324.243,149.735 324.336,149.735 324.428,149.863 324.521,149.735 324.614,149.735 324.707,149.863 324.799,149.735 324.892,149.863 324.985,149.735 325.077,149.735 325.17,149.735 325.263,149.735 325.356,149.735 325.448,149.735 325.541,149.735 325.634,149.735 325.726,149.735 325.819,149.735 325.912,149.735 326.005,149.735 326.097,149.863 326.19,149.863 326.283,147.943 326.375,149.863 326.468,147.943 326.561,147.943 326.654,148.199 326.746,147.943 326.839,147.943 326.932,149.735 327.024,149.735 327.117,149.735 327.21,149.735 327.303,149.735 327.395,148.199 327.488,149.863 327.581,149.735 327.673,149.735 327.766,149.735 327.859,149.735 327.952,148.199 328.044,149.863 328.137,149.735 328.23,147.943 328.322,149.735 328.415,147.943 328.508,148.199 328.601,147.943 328.693,148.199 328.786,148.199 328.879,148.199 328.972,149.735 329.064,149.863 329.157,148.199 329.25,147.943 329.342,149.735 329.435,149.863 329.528,148.199 329.621,149.735 329.713,149.735 329.806,149.863 329.899,149.223 329.991,149.479 330.084,149.223 330.177,149.223 330.27,149.223 330.362,149.223 330.455,149.223 330.548,149.479 330.64,149.223 330.733,149.223 330.826,149.223 330.919,149.479 331.011,149.223 331.104,149.223 331.197,149.223 331.289,149.223 331.382,149.223 331.475,149.223 331.568,149.223 331.66,149.223 331.753,149.223 331.846,149.223 331.938,149.223 332.031,149.223 332.124,149.223 332.217,149.223 332.309,149.223 332.402,149.223 332.495,149.223 332.588,147.687 332.68,147.431 332.773,147.687 332.866,147.687 332.958,147.687 333.051,147.687 333.144,147.687 333.237,147.687 333.329,147.687 333.422,147.687 333.515,147.687 333.607,149.479 333.7,149.223 333.793,147.687 333.886,147.431 333.978,147.687 334.071,147.687 334.164,149.223 334.256,149.223 334.349,149.223 334.442,149.223 334.535,149.479 334.627,149.223 334.72,149.735 334.813,149.223 334.905,149.223 334.998,149.735 335.091,149.735 335.184,149.223 335.276,149.223 335.369,149.223 335.462,149.223 335.554,149.223 335.647,149.223 335.74,149.735 335.833,155.621 335.925,149.735 336.018,149.735 336.111,149.735 336.203,149.223 336.296,149.223 336.389,149.735 336.482,147.687 336.574,155.109 336.667,149.223 336.76,143.976 336.853,147.687 336.945,142.44 337.038,142.44 337.131,153.446 337.223,158.693 337.316,158.693 337.409,158.693 337.502,142.44 337.594,147.687 337.687,164.579 337.78,175.585 337.872,169.186 337.965,169.698 338.058,152.806 338.151,142.184 338.243,153.83 338.336,148.199 338.429,196.829 338.521,136.553 338.614,158.053 338.707,135.658 338.8,135.146 338.892,119.789 338.985,157.797 339.078,142.056 339.17,129.003 339.263,128.363 339.356,151.27 339.449,124.268 339.541,133.61 339.634,127.723 339.727,144.616 339.819,182.88 339.912,94.1944 340.005,192.734 340.098,155.877 340.19,114.158 340.283,70.9033 340.376,94.1944 340.469,132.074 340.561,121.581 340.654,114.158 340.747,215.513 340.839,104.688 340.932,99.6972 341.025,153.446 341.118,92.0188 341.21,104.304 341.303,118.253 341.396,94.8342 341.488,117.229 341.581,141.8 341.674,141.8 341.767,136.553 341.859,141.8 341.952,136.553 342.045,136.553 342.137,136.297 342.23,138.473 342.323,138.729 342.416,138.729 342.508,143.976 342.601,138.473 342.694,143.976 342.786,143.976 342.879,138.729 342.972,138.729 343.065,138.729 343.157,143.976 343.25,143.592 343.343,138.729 343.435,143.592 343.528,143.976 343.621,143.592 343.714,143.592 343.806,143.592 343.899,138.217 343.992,143.592 344.085,143.592 344.177,138.217 344.27,143.592 344.363,143.592 344.455,138.217 344.548,136.553 344.641,141.8 344.734,136.297 344.826,136.553 344.919,141.8 345.012,136.937 345.104,136.937 345.197,142.184 345.29,136.937 345.383,136.937 345.475,136.681 345.568,136.937 345.661,138.217 345.753,138.217 345.846,143.592 345.939,143.592 346.032,143.592 346.124,138.217 346.217,138.217 346.31,138.217 346.402,138.089 346.495,138.217 346.588,138.089 346.681,138.089 346.773,138.217 346.866,138.217 346.959,138.217 347.051,138.217 347.144,138.473 347.237,138.729 347.33,138.473 347.422,142.184 347.515,136.937 347.608,138.473 347.701,138.473 347.793,138.473 347.886,143.976 347.979,138.473 348.071,136.937 348.164,136.937 348.257,136.553 348.35,141.8 348.442,141.8 348.535,136.553 348.628,141.8 348.72,136.553 348.813,136.553 348.906,136.553 348.999,141.8 349.091,136.553 349.184,136.553 349.277,136.553 349.369,136.553 349.462,136.297 349.555,136.553 349.648,136.553 349.74,136.553 349.833,136.553 349.926,141.8 350.018,141.8 350.111,141.8 350.204,141.8 350.297,141.8 350.389,141.8 350.482,142.184 350.575,141.8 350.667,142.184 350.76,141.8 350.853,141.8 350.946,141.8 351.038,136.553 351.131,136.937 351.224,136.937 351.316,136.937 351.409,136.937 351.502,136.937 351.595,136.937 351.687,136.937 351.78,142.184 351.873,136.937 351.966,136.553 352.058,136.553 352.151,136.553 352.244,138.217 352.336,142.056 352.429,143.592 352.522,138.217 352.615,138.217 352.707,138.729 352.8,143.976 352.893,143.976 352.985,143.976 353.078,138.729 353.171,138.729 353.264,138.473 353.356,138.473 353.449,138.729 353.542,142.824 353.634,138.729 353.727,143.08 353.82,143.976 353.913,138.473 354.005,138.473 354.098,143.976 354.191,138.473 354.283,141.8 354.376,141.8 354.469,138.729 354.562,138.089 354.654,141.8 354.747,143.336 354.84,141.544 354.932,141.8 355.025,143.08 355.118,143.592 355.211,143.592 355.303,143.592 355.396,138.217 355.489,138.217 355.582,143.592 355.674,138.217 355.767,138.217 355.86,143.592 355.952,143.592 356.045,143.592 356.138,143.592 356.231,143.592 356.323,138.217 356.416,138.217 356.509,136.553 356.601,138.217 356.694,136.553 356.787,136.553 356.88,136.937 356.972,136.937 357.065,136.681 357.158,136.937 357.25,136.681 357.343,136.937 357.436,136.937 357.529,142.184 357.621,136.937 357.714,136.937 357.807,136.681 357.899,136.937 357.992,136.937 358.085,136.937 358.178,142.184 358.27,142.184 358.363,136.553 358.456,136.937 358.548,136.297 358.641,141.8 358.734,141.8 358.827,141.8 358.919,136.553 359.012,141.8 359.105,141.8 359.198,136.553 359.29,136.297 359.383,136.553 359.476,136.553 359.568,141.8 359.661,141.8 359.754,138.473 359.847,143.336 359.939,138.473 360.032,143.976 360.125,138.473 360.217,143.976 360.31,138.473 360.403,138.473 360.496,143.592 360.588,143.592 360.681,143.592 360.774,138.217 360.866,143.592 360.959,137.833 361.052,136.553 361.145,143.592 361.237,141.8 361.33,141.8 361.423,136.553 361.515,136.553 361.608,138.089 361.701,138.217 361.794,138.217 361.886,136.937 361.979,142.184 362.072,136.937 362.164,136.937 362.257,136.937 362.35,136.553 362.443,136.553 362.535,141.8 362.628,136.553 362.721,136.553 362.813,136.553 362.906,138.217 362.999,138.217 363.092,138.217 363.184,143.592 363.277,138.473 363.37,138.729 363.463,143.976 363.555,138.729 363.648,138.729 363.741,138.729 363.833,138.729 363.926,138.473 364.019,138.473 364.112,138.473 364.204,138.473 364.297,138.729 364.39,138.473 364.482,136.553 364.575,136.553 364.668,141.8 364.761,136.553 364.853,136.553 364.946,136.297 365.039,141.8 365.131,142.184 365.224,136.937 365.317,138.473 365.41,138.473 365.502,143.592 365.595,138.217 365.688,138.217 365.78,138.217 365.873,138.217 365.966,136.553 366.059,136.553 366.151,136.553 366.244,136.553 366.337,136.937 366.429,136.937 366.522,136.937 366.615,136.937 366.708,136.937 366.8,143.592 366.893,138.217 366.986,138.217 367.079,138.217 367.171,132.33 367.264,153.83 367.357,148.583 367.449,132.33 367.542,148.839 367.635,203.611 367.728,137.833 367.82,120.301 367.913,158.693 368.006,229.846 368.098,98.5454 368.191,88.6915 368.284,94.8342 368.377,95.0902 368.469,110.447 368.562,123.756 368.655,97.0098 368.747,118.765 368.84,90.2272 368.933,131.051 369.026,98.2895 369.118,102.769 369.211,132.33 369.304,127.339 369.396,103.792 369.489,95.4741 369.582,116.334 369.675,104.944 369.767,111.727 369.86,122.476 369.953,122.22 370.046,115.054 370.138,115.438 370.231,117.229 370.324,116.718 370.416,115.054 370.509,115.054 370.602,115.438 370.694,116.974 370.787,117.229 370.88,116.718 370.973,116.59 371.065,116.718 371.158,115.438 371.251,115.438 371.344,116.974 371.436,116.59 371.529,115.054 371.622,115.438 371.714,115.438 371.807,116.718 371.9,116.718 371.993,115.054 372.085,115.182 372.178,116.59 372.271,116.718 372.363,116.59 372.456,116.59 372.549,115.438 372.642,115.182 372.734,116.718 372.827,111.471 372.92,98.9294 373.012,98.9294 373.105,83.4446 373.198,123.756 373.291,123.756 373.383,71.2872 373.476,76.662 373.569,75.5103 373.661,109.295 373.754,78.5816" stroke-linecap="butt" stroke-linejoin="round"/>
  </g>
  <clipPath id="cp00418314">
   <polygon points="0,314 418,314 418,0 0,0"/>
  </clipPath>
  <g clip-path="url(#cp00418314)">
   <polygon fill="#ffffff" points="300.478,47.9341 370.953,47.9341 370.953,31.547 300.478,31.547" shape-rendering="crispEdges"/>
   <polyline fill="none" stroke-width="0.5" stroke="#262626" points="300.478,47.9341 370.953,47.9341" stroke-linecap="square" stroke-linejoin="miter" stroke-dasharray="16,0"/>
   <polyline fill="none" stroke-width="0.5" stroke="#262626" points="300.478,31.547 370.953,31.547" stroke-linecap="square" stroke-linejoin="miter" stroke-dasharray="16,0"/>
   <polyline fill="none" stroke-width="0.5" stroke="#262626" points="300.478,47.9341 300.478,31.547" stroke-linecap="square" stroke-linejoin="miter" stroke-dasharray="16,0"/>
   <polyline fill="none" stroke-width="0.5" stroke="#262626" points="370.953,47.9341 370.953,31.547" stroke-linecap="square" stroke-linejoin="miter" stroke-dasharray="16,0"/>
   <polyline fill="none" stroke-width="0.5" stroke="#0071bc" points="304.475,39.7406 324.459,39.7406" stroke-linecap="butt" stroke-linejoin="round"/>
   <g font-weight="normal" font-family="FreeSans" font-size="9" font-style="normal" xml:space="preserve" transform="translate(328.456,44.2406) rotate(-0,-0,-4.5)">
    <text fill="rgb(0,0,0)" x="0 5 7 10 13 18 22 27 32 34 " y="-1">ultrasonic</text>
   </g>
  </g>
 </g>
</svg>
